MerriweatherSans-LightItalic.ufo
<glyph name="exclam" format="2">
  <advance width="606.0"/>
  <unicode hex="0021"/>
  <note>
exclam
</note>
  <outline>
    <contour>
      <point x="230.0" y="476.0" type="line"/>
      <point x="348.0" y="476.0" type="line"/>
      <point x="558.0" y="1736.0" type="line"/>
      <point x="390.0" y="1736.0" type="line"/>
    </contour>
    <contour>
      <point x="216.0" y="-16.0" type="curve" smooth="yes"/>
      <point x="292.0" y="-16.0"/>
      <point x="350.0" y="42.0"/>
      <point x="350.0" y="118.0" type="curve" smooth="yes"/>
      <point x="350.0" y="168.0"/>
      <point x="322.0" y="198.0"/>
      <point x="260.0" y="198.0" type="curve" smooth="yes"/>
      <point x="190.0" y="198.0"/>
      <point x="128.0" y="140.0"/>
      <point x="128.0" y="66.0" type="curve" smooth="yes"/>
      <point x="128.0" y="16.0"/>
      <point x="166.0" y="-16.0"/>
    </contour>
  </outline>
</glyph>
<glyph name="numbersign" format="2">
  <advance width="1360.0"/>
  <unicode hex="0023"/>
  <note>
numbersign
</note>
  <outline>
    <contour>
      <point x="260.0" y="0.0" type="line"/>
      <point x="382.0" y="0.0" type="line"/>
      <point x="442.0" y="356.0" type="line"/>
      <point x="824.0" y="356.0" type="line"/>
      <point x="772.0" y="0.0" type="line"/>
      <point x="892.0" y="0.0" type="line"/>
      <point x="948.0" y="356.0" type="line"/>
      <point x="1180.0" y="356.0" type="line"/>
      <point x="1186.0" y="452.0" type="line"/>
      <point x="962.0" y="452.0" type="line"/>
      <point x="1034.0" y="904.0" type="line"/>
      <point x="1270.0" y="904.0" type="line"/>
      <point x="1276.0" y="1000.0" type="line"/>
      <point x="1048.0" y="1000.0" type="line"/>
      <point x="1102.0" y="1326.0" type="line"/>
      <point x="978.0" y="1326.0" type="line"/>
      <point x="924.0" y="1000.0" type="line"/>
      <point x="544.0" y="1000.0" type="line"/>
      <point x="594.0" y="1326.0" type="line"/>
      <point x="472.0" y="1326.0" type="line"/>
      <point x="420.0" y="1000.0" type="line"/>
      <point x="194.0" y="1000.0" type="line"/>
      <point x="188.0" y="904.0" type="line"/>
      <point x="404.0" y="904.0" type="line"/>
      <point x="334.0" y="452.0" type="line"/>
      <point x="116.0" y="452.0" type="line"/>
      <point x="110.0" y="356.0" type="line"/>
      <point x="318.0" y="356.0" type="line"/>
    </contour>
    <contour>
      <point x="458.0" y="452.0" type="line"/>
      <point x="530.0" y="904.0" type="line"/>
      <point x="908.0" y="904.0" type="line"/>
      <point x="838.0" y="452.0" type="line"/>
    </contour>
  </outline>
</glyph>
<glyph name="percent" format="2">
  <advance width="1792.0"/>
  <unicode hex="0025"/>
  <note>
percent
</note>
  <outline>
    <contour>
      <point x="330.0" y="0.0" type="line"/>
      <point x="450.0" y="0.0" type="line"/>
      <point x="1376.0" y="1494.0" type="line"/>
      <point x="1256.0" y="1494.0" type="line"/>
    </contour>
    <contour>
      <point x="396.0" y="728.0" type="curve" smooth="yes"/>
      <point x="628.0" y="728.0"/>
      <point x="796.0" y="922.0"/>
      <point x="796.0" y="1158.0" type="curve" smooth="yes"/>
      <point x="796.0" y="1314.0"/>
      <point x="710.0" y="1446.0"/>
      <point x="514.0" y="1446.0" type="curve" smooth="yes"/>
      <point x="294.0" y="1446.0"/>
      <point x="122.0" y="1250.0"/>
      <point x="122.0" y="1030.0" type="curve" smooth="yes"/>
      <point x="122.0" y="854.0"/>
      <point x="226.0" y="728.0"/>
    </contour>
    <contour>
      <point x="418.0" y="820.0" type="curve" smooth="yes"/>
      <point x="308.0" y="820.0"/>
      <point x="242.0" y="904.0"/>
      <point x="242.0" y="1032.0" type="curve" smooth="yes"/>
      <point x="242.0" y="1210.0"/>
      <point x="366.0" y="1354.0"/>
      <point x="494.0" y="1354.0" type="curve" smooth="yes"/>
      <point x="614.0" y="1354.0"/>
      <point x="670.0" y="1278.0"/>
      <point x="670.0" y="1152.0" type="curve" smooth="yes"/>
      <point x="670.0" y="966.0"/>
      <point x="548.0" y="820.0"/>
    </contour>
    <contour>
      <point x="1220.0" y="112.0" type="curve" smooth="yes"/>
      <point x="1452.0" y="112.0"/>
      <point x="1620.0" y="306.0"/>
      <point x="1620.0" y="542.0" type="curve" smooth="yes"/>
      <point x="1620.0" y="698.0"/>
      <point x="1534.0" y="830.0"/>
      <point x="1338.0" y="830.0" type="curve" smooth="yes"/>
      <point x="1118.0" y="830.0"/>
      <point x="946.0" y="634.0"/>
      <point x="946.0" y="414.0" type="curve" smooth="yes"/>
      <point x="946.0" y="238.0"/>
      <point x="1050.0" y="112.0"/>
    </contour>
    <contour>
      <point x="1242.0" y="204.0" type="curve" smooth="yes"/>
      <point x="1132.0" y="204.0"/>
      <point x="1066.0" y="288.0"/>
      <point x="1066.0" y="416.0" type="curve" smooth="yes"/>
      <point x="1066.0" y="594.0"/>
      <point x="1190.0" y="738.0"/>
      <point x="1318.0" y="738.0" type="curve" smooth="yes"/>
      <point x="1438.0" y="738.0"/>
      <point x="1494.0" y="662.0"/>
      <point x="1494.0" y="536.0" type="curve" smooth="yes"/>
      <point x="1494.0" y="350.0"/>
      <point x="1372.0" y="204.0"/>
    </contour>
  </outline>
</glyph>
<glyph name="ampersand" format="2">
  <advance width="1498.0"/>
  <unicode hex="0026"/>
  <note>
ampersand
</note>
  <outline>
    <contour>
      <point x="608.0" y="-16.0" type="curve" smooth="yes"/>
      <point x="742.0" y="-16.0"/>
      <point x="860.0" y="10.0"/>
      <point x="958.0" y="62.0" type="curve"/>
      <point x="1024.0" y="8.0"/>
      <point x="1126.0" y="-20.0"/>
      <point x="1212.0" y="-20.0" type="curve" smooth="yes"/>
      <point x="1270.0" y="-20.0"/>
      <point x="1318.0" y="-16.0"/>
      <point x="1356.0" y="-6.0" type="curve"/>
      <point x="1370.0" y="84.0" type="line"/>
      <point x="1280.0" y="72.0"/>
      <point x="1154.0" y="86.0"/>
      <point x="1070.0" y="142.0" type="curve"/>
      <point x="1180.0" y="244.0"/>
      <point x="1238.0" y="390.0"/>
      <point x="1238.0" y="572.0" type="curve" smooth="yes"/>
      <point x="1238.0" y="610.0"/>
      <point x="1234.0" y="646.0"/>
      <point x="1224.0" y="678.0" type="curve"/>
      <point x="1402.0" y="678.0" type="line"/>
      <point x="1410.0" y="786.0" type="line"/>
      <point x="1134.0" y="788.0" type="line" smooth="yes"/>
      <point x="1068.0" y="788.0"/>
      <point x="986.0" y="774.0"/>
      <point x="970.0" y="758.0" type="curve"/>
      <point x="960.0" y="656.0" type="line"/>
      <point x="984.0" y="670.0"/>
      <point x="1032.0" y="676.0"/>
      <point x="1082.0" y="678.0" type="curve"/>
      <point x="1096.0" y="634.0"/>
      <point x="1104.0" y="588.0"/>
      <point x="1104.0" y="540.0" type="curve" smooth="yes"/>
      <point x="1104.0" y="406.0"/>
      <point x="1058.0" y="296.0"/>
      <point x="976.0" y="218.0" type="curve"/>
      <point x="842.0" y="340.0"/>
      <point x="714.0" y="508.0"/>
      <point x="590.0" y="722.0" type="curve"/>
      <point x="956.0" y="918.0"/>
      <point x="1066.0" y="1018.0"/>
      <point x="1066.0" y="1216.0" type="curve" smooth="yes"/>
      <point x="1066.0" y="1458.0"/>
      <point x="892.0" y="1510.0"/>
      <point x="736.0" y="1510.0" type="curve" smooth="yes"/>
      <point x="508.0" y="1510.0"/>
      <point x="334.0" y="1350.0"/>
      <point x="334.0" y="1110.0" type="curve" smooth="yes"/>
      <point x="334.0" y="1006.0"/>
      <point x="374.0" y="864.0"/>
      <point x="428.0" y="752.0" type="curve"/>
      <point x="240.0" y="652.0"/>
      <point x="102.0" y="538.0"/>
      <point x="102.0" y="356.0" type="curve" smooth="yes"/>
      <point x="102.0" y="100.0"/>
      <point x="322.0" y="-16.0"/>
    </contour>
    <contour>
      <point x="620.0" y="88.0" type="curve" smooth="yes"/>
      <point x="420.0" y="88.0"/>
      <point x="254.0" y="174.0"/>
      <point x="254.0" y="360.0" type="curve" smooth="yes"/>
      <point x="254.0" y="482.0"/>
      <point x="336.0" y="570.0"/>
      <point x="478.0" y="658.0" type="curve"/>
      <point x="600.0" y="448.0"/>
      <point x="698.0" y="308.0"/>
      <point x="868.0" y="142.0" type="curve"/>
      <point x="794.0" y="106.0"/>
      <point x="712.0" y="88.0"/>
    </contour>
    <contour>
      <point x="542.0" y="814.0" type="curve"/>
      <point x="500.0" y="894.0"/>
      <point x="468.0" y="1004.0"/>
      <point x="468.0" y="1114.0" type="curve" smooth="yes"/>
      <point x="468.0" y="1236.0"/>
      <point x="552.0" y="1412.0"/>
      <point x="732.0" y="1412.0" type="curve" smooth="yes"/>
      <point x="862.0" y="1412.0"/>
      <point x="928.0" y="1322.0"/>
      <point x="928.0" y="1200.0" type="curve" smooth="yes"/>
      <point x="928.0" y="1026.0"/>
      <point x="766.0" y="934.0"/>
    </contour>
  </outline>
</glyph>
<glyph name="parenright" format="2">
  <advance width="422.0"/>
  <unicode hex="0029"/>
  <note>
parenright
</note>
  <outline>
    <contour>
      <point x="23.0" y="-153.0" type="line"/>
      <point x="201.0" y="-54.0"/>
      <point x="328.0" y="198.0"/>
      <point x="328.0" y="413.0" type="curve" smooth="yes"/>
      <point x="328.0" y="591.0"/>
      <point x="269.0" y="776.0"/>
      <point x="162.0" y="853.0" type="curve"/>
      <point x="115.0" y="830.0" type="line"/>
      <point x="205.0" y="755.0"/>
      <point x="250.0" y="573.0"/>
      <point x="250.0" y="413.0" type="curve" smooth="yes"/>
      <point x="250.0" y="212.0"/>
      <point x="144.0" y="-31.0"/>
      <point x="-9.0" y="-130.0" type="curve"/>
    </contour>
  </outline>
</glyph>
<glyph name="plus" format="2">
  <advance width="1334.0"/>
  <unicode hex="002B"/>
  <note>
plus
</note>
  <outline>
    <contour>
      <point x="558.0" y="288.0" type="line"/>
      <point x="694.0" y="288.0" type="line"/>
      <point x="722.0" y="524.0" type="line"/>
      <point x="736.0" y="700.0" type="line"/>
      <point x="864.0" y="696.0" type="line"/>
      <point x="1114.0" y="696.0" type="line"/>
      <point x="1128.0" y="814.0" type="line"/>
      <point x="878.0" y="814.0" type="line"/>
      <point x="748.0" y="806.0" type="line"/>
      <point x="776.0" y="982.0" type="line"/>
      <point x="802.0" y="1206.0" type="line"/>
      <point x="668.0" y="1206.0" type="line"/>
      <point x="642.0" y="982.0" type="line"/>
      <point x="626.0" y="804.0" type="line"/>
      <point x="472.0" y="814.0" type="line"/>
      <point x="250.0" y="814.0" type="line"/>
      <point x="238.0" y="696.0" type="line"/>
      <point x="458.0" y="696.0" type="line"/>
      <point x="614.0" y="700.0" type="line"/>
      <point x="586.0" y="524.0" type="line"/>
    </contour>
  </outline>
</glyph>
<glyph name="comma" format="2">
  <advance width="492.0"/>
  <unicode hex="002C"/>
  <note>
comma
</note>
  <outline>
    <contour>
      <point x="32.0" y="-490.0" type="line"/>
      <point x="152.0" y="-442.0"/>
      <point x="246.0" y="-352.0"/>
      <point x="296.0" y="-230.0" type="curve" smooth="yes"/>
      <point x="322.0" y="-168.0"/>
      <point x="334.0" y="-102.0"/>
      <point x="334.0" y="-30.0" type="curve" smooth="yes"/>
      <point x="334.0" y="88.0"/>
      <point x="288.0" y="208.0"/>
      <point x="170.0" y="258.0" type="curve"/>
      <point x="94.0" y="164.0" type="line"/>
      <point x="88.0" y="124.0" type="line"/>
      <point x="142.0" y="100.0"/>
      <point x="180.0" y="22.0"/>
      <point x="180.0" y="-80.0" type="curve" smooth="yes"/>
      <point x="180.0" y="-230.0"/>
      <point x="94.0" y="-350.0"/>
      <point x="-20.0" y="-406.0" type="curve"/>
      <point x="-22.0" y="-424.0" type="line"/>
    </contour>
  </outline>
</glyph>
<glyph name="slash" format="2">
  <advance width="834.0"/>
  <unicode hex="002F"/>
  <note>
slash
</note>
  <outline>
    <contour>
      <point x="-74.0" y="-354.0" type="line"/>
      <point x="56.0" y="-354.0" type="line"/>
      <point x="898.0" y="1560.0" type="line"/>
      <point x="768.0" y="1560.0" type="line"/>
    </contour>
  </outline>
</glyph>
<glyph name="one" format="2">
  <advance width="908.0"/>
  <unicode hex="0031"/>
  <outline>
    <contour>
      <point x="326.0" y="0.0" type="line"/>
      <point x="476.0" y="0.0" type="line"/>
      <point x="702.0" y="1494.0" type="line"/>
      <point x="636.0" y="1510.0" type="line"/>
      <point x="634.0" y="1510.0" type="line"/>
      <point x="536.0" y="1432.0"/>
      <point x="364.0" y="1328.0"/>
      <point x="226.0" y="1296.0" type="curve"/>
      <point x="244.0" y="1202.0" type="line"/>
      <point x="352.0" y="1224.0"/>
      <point x="452.0" y="1264.0"/>
      <point x="522.0" y="1292.0" type="curve"/>
    </contour>
  </outline>
</glyph>
<glyph name="two" format="2">
  <advance width="582.0"/>
  <unicode hex="0032"/>
  <outline>
    <contour>
      <point x="30.0" y="0.0" type="line"/>
      <point x="496.0" y="0.0" type="line"/>
      <point x="495.0" y="64.0" type="line"/>
      <point x="108.0" y="50.0" type="line"/>
      <point x="281.0" y="145.0"/>
      <point x="526.0" y="373.0"/>
      <point x="526.0" y="557.0" type="curve" smooth="yes"/>
      <point x="526.0" y="637.0"/>
      <point x="484.0" y="754.0"/>
      <point x="310.0" y="754.0" type="curve" smooth="yes"/>
      <point x="210.0" y="754.0"/>
      <point x="120.0" y="704.0"/>
      <point x="82.0" y="655.0" type="curve"/>
      <point x="109.0" y="613.0" type="line"/>
      <point x="146.0" y="646.0"/>
      <point x="208.0" y="694.0"/>
      <point x="289.0" y="694.0" type="curve" smooth="yes"/>
      <point x="408.0" y="694.0"/>
      <point x="444.0" y="620.0"/>
      <point x="444.0" y="536.0" type="curve" smooth="yes"/>
      <point x="444.0" y="368.0"/>
      <point x="200.0" y="154.0"/>
      <point x="17.0" y="45.0" type="curve"/>
    </contour>
  </outline>
</glyph>
<glyph name="three" format="2">
  <advance width="1116.0"/>
  <unicode hex="0033"/>
  <outline>
    <contour>
      <point x="270.0" y="-14.0" type="curve" smooth="yes"/>
      <point x="612.0" y="-14.0"/>
      <point x="964.0" y="184.0"/>
      <point x="964.0" y="486.0" type="curve" smooth="yes"/>
      <point x="964.0" y="644.0"/>
      <point x="852.0" y="790.0"/>
      <point x="596.0" y="784.0" type="curve"/>
      <point x="788.0" y="850.0"/>
      <point x="976.0" y="1008.0"/>
      <point x="976.0" y="1192.0" type="curve" smooth="yes"/>
      <point x="976.0" y="1404.0"/>
      <point x="812.0" y="1508.0"/>
      <point x="636.0" y="1508.0" type="curve" smooth="yes"/>
      <point x="426.0" y="1508.0"/>
      <point x="258.0" y="1418.0"/>
      <point x="192.0" y="1354.0" type="curve"/>
      <point x="238.0" y="1250.0" type="line"/>
      <point x="320.0" y="1314.0"/>
      <point x="436.0" y="1388.0"/>
      <point x="602.0" y="1388.0" type="curve" smooth="yes"/>
      <point x="738.0" y="1388.0"/>
      <point x="828.0" y="1314.0"/>
      <point x="828.0" y="1190.0" type="curve" smooth="yes"/>
      <point x="828.0" y="1008.0"/>
      <point x="580.0" y="850.0"/>
      <point x="318.0" y="788.0" type="curve"/>
      <point x="306.0" y="660.0" type="line"/>
      <point x="478.0" y="710.0" type="line"/>
      <point x="716.0" y="708.0"/>
      <point x="806.0" y="608.0"/>
      <point x="806.0" y="472.0" type="curve" smooth="yes"/>
      <point x="806.0" y="242.0"/>
      <point x="534.0" y="100.0"/>
      <point x="260.0" y="100.0" type="curve" smooth="yes"/>
      <point x="212.0" y="100.0"/>
      <point x="146.0" y="104.0"/>
      <point x="82.0" y="110.0" type="curve"/>
      <point x="70.0" y="-2.0" type="line"/>
      <point x="146.0" y="-8.0"/>
      <point x="210.0" y="-14.0"/>
    </contour>
  </outline>
</glyph>
<glyph name="four" format="2">
  <advance width="610.0"/>
  <unicode hex="0034"/>
  <outline>
    <contour>
      <point x="336.0" y="0.0" type="line"/>
      <point x="406.0" y="0.0" type="line"/>
      <point x="425.0" y="158.0" type="line"/>
      <point x="559.0" y="158.0" type="line"/>
      <point x="567.0" y="223.0" type="line"/>
      <point x="432.0" y="218.0" type="line"/>
      <point x="463.0" y="441.0" type="line"/>
      <point x="391.0" y="425.0" type="line"/>
      <point x="362.0" y="213.0" type="line"/>
      <point x="105.0" y="207.0" type="line"/>
      <point x="161.0" y="285.0" type="line"/>
      <point x="438.0" y="714.0" type="line"/>
      <point x="391.0" y="747.0" type="line"/>
      <point x="369.0" y="747.0" type="line"/>
      <point x="240.0" y="526.0"/>
      <point x="137.0" y="364.0"/>
      <point x="24.0" y="193.0" type="curve"/>
      <point x="38.0" y="158.0" type="line"/>
      <point x="355.0" y="158.0" type="line"/>
    </contour>
  </outline>
</glyph>
<glyph name="five" format="2">
  <advance width="584.0"/>
  <unicode hex="0035"/>
  <outline>
    <contour>
      <point x="113.0" y="-7.0" type="curve" smooth="yes"/>
      <point x="323.0" y="-7.0"/>
      <point x="509.0" y="115.0"/>
      <point x="509.0" y="293.0" type="curve" smooth="yes"/>
      <point x="509.0" y="397.0"/>
      <point x="447.0" y="471.0"/>
      <point x="307.0" y="471.0" type="curve" smooth="yes"/>
      <point x="264.0" y="471.0"/>
      <point x="211.0" y="458.0"/>
      <point x="180.0" y="445.0" type="curve"/>
      <point x="239.0" y="685.0" type="line"/>
      <point x="525.0" y="685.0" type="line"/>
      <point x="540.0" y="755.0" type="line"/>
      <point x="484.0" y="755.0" type="line"/>
      <point x="475.0" y="747.0" type="line"/>
      <point x="182.0" y="747.0" type="line"/>
      <point x="104.0" y="407.0" type="line"/>
      <point x="132.0" y="378.0" type="line"/>
      <point x="165.0" y="394.0"/>
      <point x="240.0" y="414.0"/>
      <point x="288.0" y="414.0" type="curve" smooth="yes"/>
      <point x="387.0" y="414.0"/>
      <point x="428.0" y="362.0"/>
      <point x="428.0" y="280.0" type="curve" smooth="yes"/>
      <point x="428.0" y="128.0"/>
      <point x="261.0" y="49.0"/>
      <point x="103.0" y="49.0" type="curve" smooth="yes"/>
      <point x="87.0" y="49.0"/>
      <point x="74.0" y="51.0"/>
      <point x="57.0" y="54.0" type="curve"/>
      <point x="48.0" y="1.0" type="line"/>
      <point x="68.0" y="-6.0"/>
      <point x="97.0" y="-7.0"/>
    </contour>
  </outline>
</glyph>
<glyph name="six" format="2">
  <advance width="1236.0"/>
  <unicode hex="0036"/>
  <outline>
    <contour>
      <point x="586.0" y="-18.0" type="curve" smooth="yes"/>
      <point x="936.0" y="-18.0"/>
      <point x="1122.0" y="304.0"/>
      <point x="1122.0" y="588.0" type="curve" smooth="yes"/>
      <point x="1122.0" y="778.0"/>
      <point x="996.0" y="966.0"/>
      <point x="736.0" y="966.0" type="curve" smooth="yes"/>
      <point x="542.0" y="966.0"/>
      <point x="436.0" y="880.0"/>
      <point x="372.0" y="822.0" type="curve"/>
      <point x="468.0" y="1102.0"/>
      <point x="692.0" y="1318.0"/>
      <point x="1002.0" y="1424.0" type="curve"/>
      <point x="968.0" y="1510.0" type="line"/>
      <point x="482.0" y="1376.0"/>
      <point x="160.0" y="976.0"/>
      <point x="160.0" y="482.0" type="curve" smooth="yes"/>
      <point x="160.0" y="214.0"/>
      <point x="304.0" y="-18.0"/>
    </contour>
    <contour>
      <point x="600.0" y="86.0" type="curve" smooth="yes"/>
      <point x="394.0" y="86.0"/>
      <point x="308.0" y="244.0"/>
      <point x="308.0" y="460.0" type="curve" smooth="yes"/>
      <point x="308.0" y="546.0"/>
      <point x="316.0" y="610.0"/>
      <point x="332.0" y="684.0" type="curve"/>
      <point x="376.0" y="732.0"/>
      <point x="482.0" y="850.0"/>
      <point x="702.0" y="850.0" type="curve" smooth="yes"/>
      <point x="850.0" y="850.0"/>
      <point x="976.0" y="752.0"/>
      <point x="976.0" y="568.0" type="curve" smooth="yes"/>
      <point x="976.0" y="340.0"/>
      <point x="830.0" y="86.0"/>
    </contour>
  </outline>
</glyph>
<glyph name="seven" format="2">
  <advance width="1048.0"/>
  <unicode hex="0037"/>
  <outline>
    <contour>
      <point x="176.0" y="2.0" type="line"/>
      <point x="348.0" y="0.0" type="line"/>
      <point x="1032.0" y="1458.0" type="line"/>
      <point x="1004.0" y="1494.0" type="line"/>
      <point x="152.0" y="1494.0" type="line"/>
      <point x="136.0" y="1374.0" type="line"/>
      <point x="864.0" y="1376.0" type="line"/>
    </contour>
  </outline>
</glyph>
<glyph name="nine" format="2">
  <advance width="1238.0"/>
  <unicode hex="0039"/>
  <outline>
    <contour>
      <point x="326.0" y="-14.0" type="line"/>
      <point x="806.0" y="120.0"/>
      <point x="1126.0" y="500.0"/>
      <point x="1126.0" y="996.0" type="curve" smooth="yes"/>
      <point x="1126.0" y="1262.0"/>
      <point x="996.0" y="1494.0"/>
      <point x="708.0" y="1494.0" type="curve" smooth="yes"/>
      <point x="364.0" y="1494.0"/>
      <point x="172.0" y="1194.0"/>
      <point x="172.0" y="910.0" type="curve" smooth="yes"/>
      <point x="172.0" y="716.0"/>
      <point x="290.0" y="506.0"/>
      <point x="562.0" y="506.0" type="curve" smooth="yes"/>
      <point x="748.0" y="506.0"/>
      <point x="862.0" y="578.0"/>
      <point x="922.0" y="640.0" type="curve"/>
      <point x="826.0" y="360.0"/>
      <point x="602.0" y="178.0"/>
      <point x="294.0" y="72.0" type="curve"/>
    </contour>
    <contour>
      <point x="598.0" y="620.0" type="curve" smooth="yes"/>
      <point x="436.0" y="620.0"/>
      <point x="318.0" y="726.0"/>
      <point x="318.0" y="930.0" type="curve" smooth="yes"/>
      <point x="318.0" y="1130.0"/>
      <point x="444.0" y="1390.0"/>
      <point x="688.0" y="1390.0" type="curve" smooth="yes"/>
      <point x="880.0" y="1390.0"/>
      <point x="978.0" y="1226.0"/>
      <point x="978.0" y="1008.0" type="curve" smooth="yes"/>
      <point x="978.0" y="922.0"/>
      <point x="972.0" y="860.0"/>
      <point x="954.0" y="786.0" type="curve"/>
      <point x="912.0" y="736.0"/>
      <point x="806.0" y="620.0"/>
    </contour>
  </outline>
</glyph>
<glyph name="greater" format="2">
  <advance width="1336.0"/>
  <unicode hex="003E"/>
  <note>
greater
</note>
  <outline>
    <contour>
      <point x="244.0" y="174.0" type="line"/>
      <point x="1232.0" y="686.0" type="line"/>
      <point x="1244.0" y="782.0" type="line"/>
      <point x="376.0" y="1296.0" type="line"/>
      <point x="362.0" y="1164.0" type="line"/>
      <point x="1076.0" y="742.0" type="line"/>
      <point x="262.0" y="320.0" type="line"/>
    </contour>
  </outline>
</glyph>
<glyph name="question" format="2">
  <advance width="840.0"/>
  <unicode hex="003F"/>
  <note>
question
</note>
  <outline>
    <contour>
      <point x="268.0" y="514.0" type="curve"/>
      <point x="398.0" y="514.0" type="line"/>
      <point x="380.0" y="570.0"/>
      <point x="380.0" y="610.0"/>
      <point x="382.0" y="660.0" type="curve" smooth="yes"/>
      <point x="386.0" y="768.0"/>
      <point x="488.0" y="820.0"/>
      <point x="608.0" y="892.0" type="curve" smooth="yes"/>
      <point x="782.0" y="998.0"/>
      <point x="900.0" y="1150.0"/>
      <point x="900.0" y="1348.0" type="curve" smooth="yes"/>
      <point x="900.0" y="1598.0"/>
      <point x="750.0" y="1738.0"/>
      <point x="480.0" y="1738.0" type="curve" smooth="yes"/>
      <point x="364.0" y="1738.0"/>
      <point x="272.0" y="1716.0"/>
      <point x="246.0" y="1686.0" type="curve"/>
      <point x="224.0" y="1580.0" type="line"/>
      <point x="294.0" y="1604.0"/>
      <point x="352.0" y="1618.0"/>
      <point x="434.0" y="1618.0" type="curve" smooth="yes"/>
      <point x="640.0" y="1618.0"/>
      <point x="764.0" y="1516.0"/>
      <point x="764.0" y="1330.0" type="curve" smooth="yes"/>
      <point x="764.0" y="1202.0"/>
      <point x="692.0" y="1068.0"/>
      <point x="524.0" y="972.0" type="curve" smooth="yes"/>
      <point x="388.0" y="894.0"/>
      <point x="248.0" y="808.0"/>
      <point x="248.0" y="674.0" type="curve" smooth="yes"/>
      <point x="248.0" y="576.0"/>
      <point x="268.0" y="546.0"/>
    </contour>
    <contour>
      <point x="304.0" y="-12.0" type="curve" smooth="yes"/>
      <point x="378.0" y="-12.0"/>
      <point x="420.0" y="32.0"/>
      <point x="420.0" y="118.0" type="curve" smooth="yes"/>
      <point x="420.0" y="168.0"/>
      <point x="392.0" y="202.0"/>
      <point x="334.0" y="202.0" type="curve" smooth="yes"/>
      <point x="264.0" y="202.0"/>
      <point x="216.0" y="146.0"/>
      <point x="216.0" y="74.0" type="curve" smooth="yes"/>
      <point x="216.0" y="20.0"/>
      <point x="254.0" y="-12.0"/>
    </contour>
  </outline>
</glyph>
<glyph name="A" format="2">
  <advance width="1236.0"/>
  <unicode hex="0041"/>
  <note>
A
</note>
  <anchor x="544.0" y="0.0" name="bottom"/>
  <anchor x="1122.0" y="0.0" name="ogonek"/>
  <anchor x="742.0" y="1494.0" name="top"/>
  <outline>
    <contour>
      <point x="-48.0" y="0.0" type="line"/>
      <point x="108.0" y="0.0" type="line"/>
      <point x="304.0" y="420.0" type="line"/>
      <point x="904.0" y="420.0" type="line"/>
      <point x="978.0" y="0.0" type="line"/>
      <point x="1126.0" y="0.0" type="line"/>
      <point x="842.0" y="1494.0" type="line"/>
      <point x="678.0" y="1494.0" type="line"/>
    </contour>
    <contour>
      <point x="358.0" y="534.0" type="line"/>
      <point x="690.0" y="1246.0" type="line"/>
      <point x="744.0" y="1362.0" type="line"/>
      <point x="758.0" y="1250.0" type="line"/>
      <point x="884.0" y="534.0" type="line"/>
    </contour>
  </outline>
</glyph>
<glyph name="C" format="2">
  <advance width="1114.0"/>
  <unicode hex="0043"/>
  <note>
C
</note>
  <anchor x="604.0" y="0.0" name="bottom"/>
  <anchor x="800.0" y="1494.0" name="top"/>
  <outline>
    <contour>
      <point x="608.0" y="-14.0" type="curve" smooth="yes"/>
      <point x="776.0" y="-14.0"/>
      <point x="912.0" y="18.0"/>
      <point x="1014.0" y="82.0" type="curve"/>
      <point x="992.0" y="206.0" type="line"/>
      <point x="920.0" y="158.0"/>
      <point x="768.0" y="102.0"/>
      <point x="634.0" y="102.0" type="curve" smooth="yes"/>
      <point x="370.0" y="102.0"/>
      <point x="258.0" y="348.0"/>
      <point x="258.0" y="648.0" type="curve" smooth="yes"/>
      <point x="258.0" y="888.0"/>
      <point x="336.0" y="1130.0"/>
      <point x="500.0" y="1276.0" type="curve" smooth="yes"/>
      <point x="582.0" y="1350.0"/>
      <point x="680.0" y="1386.0"/>
      <point x="798.0" y="1386.0" type="curve" smooth="yes"/>
      <point x="924.0" y="1386.0"/>
      <point x="1002.0" y="1360.0"/>
      <point x="1068.0" y="1326.0" type="curve"/>
      <point x="1120.0" y="1450.0" type="line"/>
      <point x="958.0" y="1500.0"/>
      <point x="904.0" y="1510.0"/>
      <point x="804.0" y="1510.0" type="curve" smooth="yes"/>
      <point x="546.0" y="1510.0"/>
      <point x="322.0" y="1356.0"/>
      <point x="200.0" y="1092.0" type="curve" smooth="yes"/>
      <point x="138.0" y="958.0"/>
      <point x="108.0" y="806.0"/>
      <point x="108.0" y="636.0" type="curve" smooth="yes"/>
      <point x="108.0" y="410.0"/>
      <point x="166.0" y="204.0"/>
      <point x="316.0" y="80.0" type="curve" smooth="yes"/>
      <point x="390.0" y="18.0"/>
      <point x="488.0" y="-14.0"/>
    </contour>
  </outline>
</glyph>
<glyph name="D" format="2">
  <advance width="1344.0"/>
  <unicode hex="0044"/>
  <note>
D
</note>
  <anchor x="598.0" y="0.0" name="bottom"/>
  <anchor x="698.0" y="748.0" name="center"/>
  <anchor x="796.0" y="1494.0" name="top"/>
  <outline>
    <contour>
      <point x="510.0" y="-16.0" type="curve" smooth="yes"/>
      <point x="970.0" y="-28.0"/>
      <point x="1268.0" y="382.0"/>
      <point x="1268.0" y="884.0" type="curve" smooth="yes"/>
      <point x="1268.0" y="1274.0"/>
      <point x="1092.0" y="1510.0"/>
      <point x="706.0" y="1510.0" type="curve" smooth="yes"/>
      <point x="608.0" y="1510.0"/>
      <point x="498.0" y="1494.0"/>
      <point x="420.0" y="1494.0" type="curve"/>
      <point x="306.0" y="1494.0" type="line"/>
      <point x="118.0" y="0.0" type="line"/>
      <point x="194.0" y="0.0" type="line" smooth="yes"/>
      <point x="324.0" y="0.0"/>
      <point x="396.0" y="-12.0"/>
    </contour>
    <contour>
      <point x="530.0" y="96.0" type="curve" smooth="yes"/>
      <point x="460.0" y="96.0"/>
      <point x="378.0" y="104.0"/>
      <point x="280.0" y="122.0" type="curve"/>
      <point x="438.0" y="1382.0" type="line"/>
      <point x="528.0" y="1394.0"/>
      <point x="602.0" y="1400.0"/>
      <point x="664.0" y="1400.0" type="curve" smooth="yes"/>
      <point x="880.0" y="1400.0"/>
      <point x="1008.0" y="1328.0"/>
      <point x="1070.0" y="1176.0" type="curve" smooth="yes"/>
      <point x="1100.0" y="1100.0"/>
      <point x="1116.0" y="1000.0"/>
      <point x="1116.0" y="876.0" type="curve" smooth="yes"/>
      <point x="1116.0" y="606.0"/>
      <point x="1024.0" y="356.0"/>
      <point x="848.0" y="208.0" type="curve" smooth="yes"/>
      <point x="760.0" y="134.0"/>
      <point x="654.0" y="96.0"/>
    </contour>
  </outline>
</glyph>
<glyph name="E" format="2">
  <advance width="1112.0"/>
  <unicode hex="0045"/>
  <note>
E
</note>
  <anchor x="576.0" y="0.0" name="bottom"/>
  <anchor x="930.0" y="20.0" name="ogonek"/>
  <anchor x="696.0" y="1494.0" name="top"/>
  <anchor x="164.0" y="1494.0" name="topleft"/>
  <outline>
    <contour>
      <point x="118.0" y="0.0" type="line"/>
      <point x="988.0" y="0.0" type="line"/>
      <point x="998.0" y="124.0" type="line"/>
      <point x="278.0" y="112.0" type="line"/>
      <point x="354.0" y="710.0" type="line"/>
      <point x="822.0" y="700.0" type="line"/>
      <point x="832.0" y="824.0" type="line"/>
      <point x="368.0" y="818.0" type="line"/>
      <point x="440.0" y="1384.0" type="line"/>
      <point x="1040.0" y="1376.0" type="line"/>
      <point x="1044.0" y="1494.0" type="line"/>
      <point x="306.0" y="1494.0" type="line"/>
    </contour>
  </outline>
</glyph>
<glyph name="F" format="2">
  <advance width="1032.0"/>
  <unicode hex="0046"/>
  <note>
F
</note>
  <anchor x="442.0" y="0.0" name="bottom"/>
  <anchor x="640.0" y="1494.0" name="top"/>
  <outline>
    <contour>
      <point x="118.0" y="0.0" type="line"/>
      <point x="264.0" y="0.0" type="line"/>
      <point x="354.0" y="708.0" type="line"/>
      <point x="854.0" y="696.0" type="line"/>
      <point x="864.0" y="824.0" type="line"/>
      <point x="368.0" y="816.0" type="line"/>
      <point x="440.0" y="1384.0" type="line"/>
      <point x="1056.0" y="1376.0" type="line"/>
      <point x="1068.0" y="1494.0" type="line"/>
      <point x="306.0" y="1494.0" type="line"/>
    </contour>
  </outline>
</glyph>
<glyph name="G" format="2">
  <advance width="1308.0"/>
  <unicode hex="0047"/>
  <note>
G
</note>
  <anchor x="580.0" y="0.0" name="bottom"/>
  <anchor x="778.0" y="1494.0" name="top"/>
  <outline>
    <contour>
      <point x="602.0" y="-16.0" type="curve" smooth="yes"/>
      <point x="724.0" y="-16.0"/>
      <point x="824.0" y="10.0"/>
      <point x="958.0" y="50.0" type="curve" smooth="yes"/>
      <point x="1048.0" y="76.0"/>
      <point x="1082.0" y="86.0"/>
      <point x="1124.0" y="92.0" type="curve"/>
      <point x="1204.0" y="712.0" type="line"/>
      <point x="784.0" y="712.0" type="line"/>
      <point x="768.0" y="594.0" type="line"/>
      <point x="1042.0" y="592.0" type="line"/>
      <point x="992.0" y="182.0" type="line"/>
      <point x="864.0" y="134.0"/>
      <point x="732.0" y="98.0"/>
      <point x="628.0" y="98.0" type="curve" smooth="yes"/>
      <point x="370.0" y="98.0"/>
      <point x="258.0" y="350.0"/>
      <point x="258.0" y="640.0" type="curve" smooth="yes"/>
      <point x="258.0" y="890.0"/>
      <point x="346.0" y="1136.0"/>
      <point x="516.0" y="1282.0" type="curve" smooth="yes"/>
      <point x="602.0" y="1354.0"/>
      <point x="704.0" y="1390.0"/>
      <point x="824.0" y="1390.0" type="curve" smooth="yes"/>
      <point x="982.0" y="1390.0"/>
      <point x="1098.0" y="1352.0"/>
      <point x="1170.0" y="1310.0" type="curve"/>
      <point x="1218.0" y="1444.0" type="line"/>
      <point x="1068.0" y="1492.0"/>
      <point x="974.0" y="1510.0"/>
      <point x="826.0" y="1510.0" type="curve" smooth="yes"/>
      <point x="556.0" y="1510.0"/>
      <point x="324.0" y="1352.0"/>
      <point x="198.0" y="1080.0" type="curve" smooth="yes"/>
      <point x="136.0" y="942.0"/>
      <point x="106.0" y="786.0"/>
      <point x="110.0" y="612.0" type="curve" smooth="yes"/>
      <point x="112.0" y="396.0"/>
      <point x="180.0" y="194.0"/>
      <point x="326.0" y="74.0" type="curve" smooth="yes"/>
      <point x="400.0" y="14.0"/>
      <point x="492.0" y="-16.0"/>
    </contour>
  </outline>
</glyph>
<glyph name="H" format="2">
  <advance width="1376.0"/>
  <unicode hex="0048"/>
  <note>
H
</note>
  <anchor x="616.0" y="0.0" name="bottom"/>
  <anchor x="816.0" y="1494.0" name="top"/>
  <outline>
    <contour>
      <point x="118.0" y="0.0" type="line"/>
      <point x="264.0" y="0.0" type="line"/>
      <point x="352.0" y="698.0" type="line"/>
      <point x="1062.0" y="698.0" type="line"/>
      <point x="974.0" y="0.0" type="line"/>
      <point x="1122.0" y="0.0" type="line"/>
      <point x="1308.0" y="1494.0" type="line"/>
      <point x="1162.0" y="1494.0" type="line"/>
      <point x="1076.0" y="810.0" type="line"/>
      <point x="368.0" y="810.0" type="line"/>
      <point x="454.0" y="1494.0" type="line"/>
      <point x="306.0" y="1494.0" type="line"/>
    </contour>
  </outline>
</glyph>
<glyph name="J" format="2">
  <advance width="570.0"/>
  <unicode hex="004A"/>
  <note>
J
</note>
  <anchor x="212.0" y="0.0" name="bottom"/>
  <anchor x="430.0" y="1494.0" name="top"/>
  <outline>
    <contour>
      <point x="-138.0" y="-316.0" type="line"/>
      <point x="100.0" y="-272.0"/>
      <point x="234.0" y="-156.0"/>
      <point x="302.0" y="74.0" type="curve" smooth="yes"/>
      <point x="316.0" y="120.0"/>
      <point x="342.0" y="286.0"/>
      <point x="380.0" y="572.0" type="curve" smooth="yes"/>
      <point x="490.0" y="1494.0" type="line"/>
      <point x="342.0" y="1494.0" type="line"/>
      <point x="236.0" y="524.0"/>
      <point x="210.0" y="314.0"/>
      <point x="160.0" y="84.0" type="curve" smooth="yes"/>
      <point x="128.0" y="-72.0"/>
      <point x="4.0" y="-202.0"/>
      <point x="-166.0" y="-250.0" type="curve"/>
    </contour>
  </outline>
</glyph>
<glyph name="K" format="2">
  <advance width="608.0"/>
  <unicode hex="004B"/>
  <note>
K
</note>
  <anchor x="297.0" y="0.0" name="bottom"/>
  <anchor x="366.0" y="747.0" name="top"/>
  <outline>
    <contour>
      <point x="59.0" y="0.0" type="line"/>
      <point x="129.0" y="0.0" type="line"/>
      <point x="161.0" y="246.0" type="line"/>
      <point x="275.0" y="369.0" type="line"/>
      <point x="364.0" y="207.0" type="line" smooth="yes"/>
      <point x="406.0" y="131.0"/>
      <point x="473.0" y="8.0"/>
      <point x="479.0" y="0.0" type="curve"/>
      <point x="568.0" y="0.0" type="line"/>
      <point x="544.0" y="33.0"/>
      <point x="524.0" y="67.0"/>
      <point x="441.0" y="214.0" type="curve" smooth="yes"/>
      <point x="383.0" y="316.0"/>
      <point x="347.0" y="377.0"/>
      <point x="323.0" y="417.0" type="curve"/>
      <point x="626.0" y="747.0" type="line"/>
      <point x="540.0" y="747.0" type="line"/>
      <point x="174.0" y="346.0" type="line"/>
      <point x="224.0" y="747.0" type="line"/>
      <point x="153.0" y="747.0" type="line"/>
    </contour>
  </outline>
</glyph>
<glyph name="O" format="2">
  <advance width="1336.0"/>
  <unicode hex="004F"/>
  <note>
O
</note>
  <anchor x="600.0" y="0.0" name="bottom"/>
  <anchor x="700.0" y="748.0" name="center"/>
  <anchor x="770.0" y="20.0" name="ogonek"/>
  <anchor x="810.0" y="1494.0" name="top"/>
  <anchor x="164.0" y="1494.0" name="topleft"/>
  <anchor x="1430.0" y="1494.0" name="topright"/>
  <outline>
    <contour>
      <point x="596.0" y="-16.0" type="curve" smooth="yes"/>
      <point x="1016.0" y="-16.0"/>
      <point x="1276.0" y="398.0"/>
      <point x="1276.0" y="872.0" type="curve" smooth="yes"/>
      <point x="1276.0" y="1212.0"/>
      <point x="1126.0" y="1510.0"/>
      <point x="800.0" y="1510.0" type="curve" smooth="yes"/>
      <point x="384.0" y="1510.0"/>
      <point x="116.0" y="1092.0"/>
      <point x="116.0" y="624.0" type="curve" smooth="yes"/>
      <point x="116.0" y="272.0"/>
      <point x="276.0" y="-16.0"/>
    </contour>
    <contour>
      <point x="620.0" y="96.0" type="curve" smooth="yes"/>
      <point x="394.0" y="96.0"/>
      <point x="268.0" y="282.0"/>
      <point x="268.0" y="644.0" type="curve" smooth="yes"/>
      <point x="268.0" y="1008.0"/>
      <point x="460.0" y="1394.0"/>
      <point x="776.0" y="1394.0" type="curve" smooth="yes"/>
      <point x="1008.0" y="1394.0"/>
      <point x="1122.0" y="1206.0"/>
      <point x="1122.0" y="844.0" type="curve" smooth="yes"/>
      <point x="1122.0" y="476.0"/>
      <point x="940.0" y="96.0"/>
    </contour>
  </outline>
</glyph>
<glyph name="Q" format="2">
  <advance width="1346.0"/>
  <unicode hex="0051"/>
  <note>
Q
</note>
  <anchor x="600.0" y="0.0" name="bottom"/>
  <anchor x="700.0" y="748.0" name="center"/>
  <anchor x="770.0" y="20.0" name="ogonek"/>
  <anchor x="810.0" y="1494.0" name="top"/>
  <anchor x="164.0" y="1494.0" name="topleft"/>
  <anchor x="1430.0" y="1494.0" name="topright"/>
  <outline>
    <contour>
      <point x="890.0" y="-350.0" type="curve" smooth="yes"/>
      <point x="1008.0" y="-350.0"/>
      <point x="1138.0" y="-328.0"/>
      <point x="1188.0" y="-294.0" type="curve"/>
      <point x="1188.0" y="-180.0" type="line"/>
      <point x="1132.0" y="-204.0"/>
      <point x="1042.0" y="-214.0"/>
      <point x="976.0" y="-214.0" type="curve" smooth="yes"/>
      <point x="800.0" y="-214.0"/>
      <point x="670.0" y="-162.0"/>
      <point x="670.0" y="-22.0" type="curve" smooth="yes"/>
      <point x="670.0" y="-10.0"/>
      <point x="670.0" y="18.0"/>
      <point x="670.0" y="22.0" type="curve"/>
      <point x="564.0" y="22.0" type="line"/>
      <point x="562.0" y="4.0"/>
      <point x="562.0" y="-48.0"/>
      <point x="562.0" y="-62.0" type="curve" smooth="yes"/>
      <point x="562.0" y="-244.0"/>
      <point x="702.0" y="-350.0"/>
    </contour>
    <component base="O"/>
  </outline>
</glyph>
<glyph name="R" format="2">
  <advance width="1226.0"/>
  <unicode hex="0052"/>
  <note>
R
</note>
  <anchor x="540.0" y="0.0" name="bottom"/>
  <anchor x="684.0" y="1494.0" name="top"/>
  <outline>
    <contour>
      <point x="118.0" y="0.0" type="line"/>
      <point x="264.0" y="0.0" type="line"/>
      <point x="344.0" y="642.0" type="line"/>
      <point x="590.0" y="640.0" type="line" smooth="yes"/>
      <point x="684.0" y="640.0"/>
      <point x="776.0" y="434.0"/>
      <point x="808.0" y="330.0" type="curve" smooth="yes"/>
      <point x="888.0" y="122.0"/>
      <point x="926.0" y="38.0"/>
      <point x="950.0" y="0.0" type="curve"/>
      <point x="1118.0" y="0.0" type="line"/>
      <point x="1080.0" y="48.0"/>
      <point x="1034.0" y="164.0"/>
      <point x="962.0" y="330.0" type="curve" smooth="yes"/>
      <point x="920.0" y="442.0"/>
      <point x="838.0" y="612.0"/>
      <point x="780.0" y="662.0" type="curve"/>
      <point x="1006.0" y="724.0"/>
      <point x="1142.0" y="916.0"/>
      <point x="1142.0" y="1154.0" type="curve" smooth="yes"/>
      <point x="1142.0" y="1386.0"/>
      <point x="980.0" y="1510.0"/>
      <point x="682.0" y="1510.0" type="curve" smooth="yes"/>
      <point x="628.0" y="1510.0"/>
      <point x="488.0" y="1494.0"/>
      <point x="378.0" y="1494.0" type="curve" smooth="yes"/>
      <point x="304.0" y="1494.0" type="line"/>
    </contour>
    <contour>
      <point x="622.0" y="758.0" type="curve" smooth="yes"/>
      <point x="460.0" y="758.0"/>
      <point x="390.0" y="758.0"/>
      <point x="360.0" y="760.0" type="curve"/>
      <point x="438.0" y="1380.0" type="line"/>
      <point x="492.0" y="1388.0"/>
      <point x="614.0" y="1396.0"/>
      <point x="662.0" y="1396.0" type="curve" smooth="yes"/>
      <point x="876.0" y="1396.0"/>
      <point x="982.0" y="1314.0"/>
      <point x="982.0" y="1148.0" type="curve" smooth="yes"/>
      <point x="982.0" y="928.0"/>
      <point x="850.0" y="758.0"/>
    </contour>
  </outline>
</glyph>
<glyph name="S" format="2">
  <advance width="1020.0"/>
  <unicode hex="0053"/>
  <note>
S
</note>
  <anchor x="436.0" y="0.0" name="bottom"/>
  <anchor x="628.0" y="1494.0" name="top"/>
  <outline>
    <contour>
      <point x="394.0" y="-16.0" type="curve" smooth="yes"/>
      <point x="672.0" y="-16.0"/>
      <point x="900.0" y="116.0"/>
      <point x="900.0" y="392.0" type="curve" smooth="yes"/>
      <point x="900.0" y="580.0"/>
      <point x="788.0" y="678.0"/>
      <point x="596.0" y="804.0" type="curve" smooth="yes"/>
      <point x="426.0" y="916.0"/>
      <point x="330.0" y="988.0"/>
      <point x="330.0" y="1152.0" type="curve" smooth="yes"/>
      <point x="330.0" y="1336.0"/>
      <point x="478.0" y="1398.0"/>
      <point x="640.0" y="1398.0" type="curve" smooth="yes"/>
      <point x="752.0" y="1398.0"/>
      <point x="866.0" y="1368.0"/>
      <point x="920.0" y="1314.0" type="curve"/>
      <point x="968.0" y="1428.0" type="line"/>
      <point x="890.0" y="1482.0"/>
      <point x="776.0" y="1510.0"/>
      <point x="630.0" y="1510.0" type="curve" smooth="yes"/>
      <point x="384.0" y="1510.0"/>
      <point x="182.0" y="1380.0"/>
      <point x="182.0" y="1132.0" type="curve" smooth="yes"/>
      <point x="182.0" y="932.0"/>
      <point x="308.0" y="818.0"/>
      <point x="510.0" y="686.0" type="curve" smooth="yes"/>
      <point x="672.0" y="582.0"/>
      <point x="748.0" y="494.0"/>
      <point x="748.0" y="366.0" type="curve" smooth="yes"/>
      <point x="748.0" y="188.0"/>
      <point x="592.0" y="100.0"/>
      <point x="398.0" y="100.0" type="curve" smooth="yes"/>
      <point x="284.0" y="100.0"/>
      <point x="110.0" y="142.0"/>
      <point x="70.0" y="192.0" type="curve"/>
      <point x="28.0" y="72.0" type="line"/>
      <point x="82.0" y="28.0"/>
      <point x="276.0" y="-16.0"/>
    </contour>
  </outline>
</glyph>
<glyph name="X" format="2">
  <advance width="1120.0"/>
  <unicode hex="0058"/>
  <note>
X
</note>
  <anchor x="486.0" y="0.0" name="bottom"/>
  <anchor x="684.0" y="1494.0" name="top"/>
  <outline>
    <contour>
      <point x="-34.0" y="0.0" type="line"/>
      <point x="144.0" y="0.0" type="line"/>
      <point x="564.0" y="640.0" type="line"/>
      <point x="832.0" y="0.0" type="line"/>
      <point x="1000.0" y="0.0" type="line"/>
      <point x="660.0" y="740.0" type="line"/>
      <point x="1184.0" y="1494.0" type="line"/>
      <point x="1018.0" y="1494.0" type="line"/>
      <point x="604.0" y="874.0" type="line"/>
      <point x="354.0" y="1494.0" type="line"/>
      <point x="192.0" y="1494.0" type="line"/>
      <point x="508.0" y="770.0" type="line"/>
    </contour>
  </outline>
</glyph>
<glyph name="Y" format="2">
  <advance width="1058.0"/>
  <unicode hex="0059"/>
  <note>
Y
</note>
  <anchor x="456.0" y="0.0" name="bottom"/>
  <anchor x="654.0" y="1494.0" name="top"/>
  <anchor x="164.0" y="1494.0" name="topleft"/>
  <outline>
    <contour>
      <point x="392.0" y="0.0" type="line"/>
      <point x="534.0" y="0.0" type="line"/>
      <point x="606.0" y="572.0" type="line"/>
      <point x="1184.0" y="1494.0" type="line"/>
      <point x="1026.0" y="1494.0" type="line"/>
      <point x="608.0" y="800.0" type="line"/>
      <point x="554.0" y="700.0" type="line"/>
      <point x="514.0" y="800.0" type="line"/>
      <point x="260.0" y="1494.0" type="line"/>
      <point x="102.0" y="1494.0" type="line"/>
      <point x="466.0" y="572.0" type="line"/>
    </contour>
  </outline>
</glyph>
<glyph name="Z" format="2">
  <advance width="1130.0"/>
  <unicode hex="005A"/>
  <note>
Z
</note>
  <anchor x="492.0" y="0.0" name="bottom"/>
  <anchor x="592.0" y="748.0" name="center"/>
  <anchor x="730.0" y="1494.0" name="top"/>
  <outline>
    <contour>
      <point x="36.0" y="0.0" type="line"/>
      <point x="982.0" y="0.0" type="line"/>
      <point x="1002.0" y="126.0" type="line"/>
      <point x="210.0" y="118.0" type="line"/>
      <point x="332.0" y="262.0" type="line"/>
      <point x="1154.0" y="1430.0" type="line"/>
      <point x="1136.0" y="1494.0" type="line"/>
      <point x="254.0" y="1494.0" type="line"/>
      <point x="238.0" y="1370.0" type="line"/>
      <point x="964.0" y="1380.0" type="line"/>
      <point x="818.0" y="1198.0" type="line"/>
      <point x="14.0" y="68.0" type="line"/>
    </contour>
  </outline>
</glyph>
<glyph name="grave" format="2">
  <advance width="528.0"/>
  <unicode hex="0060"/>
  <note>
grave
</note>
  <anchor x="72.0" y="1114.0" name="_top"/>
  <anchor x="134.0" y="1584.0" name="top"/>
  <outline>
    <contour>
      <point x="406.0" y="1220.0" type="curve"/>
      <point x="470.0" y="1274.0" type="line"/>
      <point x="182.0" y="1662.0" type="line"/>
      <point x="70.0" y="1560.0" type="line"/>
      <point x="130.0" y="1462.0"/>
      <point x="302.0" y="1296.0"/>
    </contour>
  </outline>
</glyph>
<glyph name="c" format="2">
  <advance width="890.0"/>
  <unicode hex="0063"/>
  <note>
c
</note>
  <anchor x="450.0" y="0.0" name="bottom"/>
  <anchor x="638.0" y="1114.0" name="top"/>
  <outline>
    <contour>
      <point x="450.0" y="-16.0" type="curve" smooth="yes"/>
      <point x="608.0" y="-16.0"/>
      <point x="734.0" y="72.0"/>
      <point x="800.0" y="160.0" type="curve"/>
      <point x="750.0" y="240.0" type="line"/>
      <point x="656.0" y="144.0"/>
      <point x="576.0" y="96.0"/>
      <point x="472.0" y="96.0" type="curve" smooth="yes"/>
      <point x="314.0" y="96.0"/>
      <point x="236.0" y="204.0"/>
      <point x="236.0" y="438.0" type="curve" smooth="yes"/>
      <point x="236.0" y="640.0"/>
      <point x="316.0" y="834.0"/>
      <point x="438.0" y="940.0" type="curve" smooth="yes"/>
      <point x="500.0" y="994.0"/>
      <point x="564.0" y="1020.0"/>
      <point x="634.0" y="1020.0" type="curve" smooth="yes"/>
      <point x="708.0" y="1020.0"/>
      <point x="778.0" y="1002.0"/>
      <point x="824.0" y="964.0" type="curve"/>
      <point x="862.0" y="1088.0" type="line"/>
      <point x="812.0" y="1114.0"/>
      <point x="726.0" y="1128.0"/>
      <point x="648.0" y="1128.0" type="curve" smooth="yes"/>
      <point x="416.0" y="1128.0"/>
      <point x="240.0" y="970.0"/>
      <point x="152.0" y="750.0" type="curve" smooth="yes"/>
      <point x="108.0" y="640.0"/>
      <point x="86.0" y="530.0"/>
      <point x="86.0" y="422.0" type="curve" smooth="yes"/>
      <point x="86.0" y="148.0"/>
      <point x="216.0" y="-16.0"/>
    </contour>
  </outline>
</glyph>
<glyph name="d" format="2">
  <advance width="1122.0"/>
  <unicode hex="0064"/>
  <note>
d
</note>
  <anchor x="488.0" y="0.0" name="bottom"/>
  <anchor x="562.0" y="558.0" name="center"/>
  <anchor x="530.0" y="1114.0" name="top"/>
  <anchor x="1156.0" y="1114.0" name="topright"/>
  <outline>
    <contour>
      <point x="388.0" y="-16.0" type="curve" smooth="yes"/>
      <point x="538.0" y="-16.0"/>
      <point x="678.0" y="84.0"/>
      <point x="760.0" y="204.0" type="curve"/>
      <point x="740.0" y="0.0" type="line"/>
      <point x="870.0" y="0.0" type="line"/>
      <point x="1088.0" y="1598.0" type="line"/>
      <point x="944.0" y="1598.0" type="line"/>
      <point x="876.0" y="1104.0" type="line"/>
      <point x="810.0" y="1120.0"/>
      <point x="752.0" y="1128.0"/>
      <point x="702.0" y="1128.0" type="curve" smooth="yes"/>
      <point x="432.0" y="1128.0"/>
      <point x="242.0" y="962.0"/>
      <point x="148.0" y="738.0" type="curve" smooth="yes"/>
      <point x="102.0" y="626.0"/>
      <point x="78.0" y="516.0"/>
      <point x="78.0" y="406.0" type="curve" smooth="yes"/>
      <point x="78.0" y="144.0"/>
      <point x="182.0" y="-16.0"/>
    </contour>
    <contour>
      <point x="414.0" y="98.0" type="curve" smooth="yes"/>
      <point x="294.0" y="98.0"/>
      <point x="228.0" y="208.0"/>
      <point x="228.0" y="424.0" type="curve" smooth="yes"/>
      <point x="228.0" y="602.0"/>
      <point x="298.0" y="806.0"/>
      <point x="436.0" y="930.0" type="curve" smooth="yes"/>
      <point x="504.0" y="992.0"/>
      <point x="586.0" y="1022.0"/>
      <point x="680.0" y="1022.0" type="curve" smooth="yes"/>
      <point x="742.0" y="1022.0"/>
      <point x="806.0" y="1010.0"/>
      <point x="860.0" y="988.0" type="curve"/>
      <point x="772.0" y="354.0" type="line"/>
      <point x="696.0" y="230.0"/>
      <point x="562.0" y="98.0"/>
    </contour>
  </outline>
</glyph>
<glyph name="e" format="2">
  <advance width="1006.0"/>
  <unicode hex="0065"/>
  <note>
e
</note>
  <anchor x="490.0" y="0.0" name="bottom"/>
  <anchor x="636.0" y="20.0" name="ogonek"/>
  <anchor x="658.0" y="1114.0" name="top"/>
  <outline>
    <contour>
      <point x="468.0" y="-16.0" type="curve" smooth="yes"/>
      <point x="600.0" y="-16.0"/>
      <point x="806.0" y="100.0"/>
      <point x="866.0" y="182.0" type="curve"/>
      <point x="824.0" y="266.0" type="line"/>
      <point x="718.0" y="156.0"/>
      <point x="594.0" y="100.0"/>
      <point x="484.0" y="100.0" type="curve" smooth="yes"/>
      <point x="308.0" y="100.0"/>
      <point x="240.0" y="232.0"/>
      <point x="240.0" y="400.0" type="curve" smooth="yes"/>
      <point x="240.0" y="414.0"/>
      <point x="240.0" y="426.0"/>
      <point x="242.0" y="432.0" type="curve"/>
      <point x="594.0" y="468.0"/>
      <point x="936.0" y="618.0"/>
      <point x="936.0" y="884.0" type="curve" smooth="yes"/>
      <point x="936.0" y="1038.0"/>
      <point x="810.0" y="1128.0"/>
      <point x="664.0" y="1128.0" type="curve" smooth="yes"/>
      <point x="446.0" y="1128.0"/>
      <point x="268.0" y="998.0"/>
      <point x="168.0" y="786.0" type="curve" smooth="yes"/>
      <point x="118.0" y="680.0"/>
      <point x="90.0" y="560.0"/>
      <point x="88.0" y="430.0" type="curve" smooth="yes"/>
      <point x="82.0" y="276.0"/>
      <point x="134.0" y="134.0"/>
      <point x="248.0" y="48.0" type="curve" smooth="yes"/>
      <point x="306.0" y="6.0"/>
      <point x="378.0" y="-16.0"/>
    </contour>
    <contour>
      <point x="246.0" y="538.0" type="curve"/>
      <point x="260.0" y="690.0"/>
      <point x="332.0" y="852.0"/>
      <point x="446.0" y="948.0" type="curve" smooth="yes"/>
      <point x="502.0" y="994.0"/>
      <point x="564.0" y="1018.0"/>
      <point x="632.0" y="1018.0" type="curve" smooth="yes"/>
      <point x="734.0" y="1018.0"/>
      <point x="792.0" y="970.0"/>
      <point x="792.0" y="872.0" type="curve" smooth="yes"/>
      <point x="792.0" y="674.0"/>
      <point x="478.0" y="544.0"/>
    </contour>
  </outline>
</glyph>
<glyph name="g" format="2">
  <advance width="1122.0"/>
  <unicode hex="0067"/>
  <note>
g
</note>
  <anchor x="416.0" y="-546.0" name="bottom"/>
  <anchor x="700.0" y="1114.0" name="top"/>
  <outline>
    <contour>
      <point x="362.0" y="-494.0" type="curve" smooth="yes"/>
      <point x="506.0" y="-494.0"/>
      <point x="654.0" y="-444.0"/>
      <point x="760.0" y="-324.0" type="curve" smooth="yes"/>
      <point x="812.0" y="-262.0"/>
      <point x="844.0" y="-184.0"/>
      <point x="858.0" y="-86.0" type="curve" smooth="yes"/>
      <point x="1030.0" y="1128.0" type="line"/>
      <point x="916.0" y="1094.0" type="line"/>
      <point x="852.0" y="1112.0"/>
      <point x="766.0" y="1128.0"/>
      <point x="702.0" y="1128.0" type="curve" smooth="yes"/>
      <point x="432.0" y="1128.0"/>
      <point x="242.0" y="962.0"/>
      <point x="148.0" y="738.0" type="curve" smooth="yes"/>
      <point x="102.0" y="626.0"/>
      <point x="78.0" y="516.0"/>
      <point x="78.0" y="406.0" type="curve" smooth="yes"/>
      <point x="78.0" y="144.0"/>
      <point x="182.0" y="-16.0"/>
      <point x="388.0" y="-16.0" type="curve" smooth="yes"/>
      <point x="538.0" y="-16.0"/>
      <point x="678.0" y="84.0"/>
      <point x="760.0" y="204.0" type="curve"/>
      <point x="712.0" y="-90.0" type="line" smooth="yes"/>
      <point x="680.0" y="-280.0"/>
      <point x="568.0" y="-382.0"/>
      <point x="390.0" y="-382.0" type="curve" smooth="yes"/>
      <point x="300.0" y="-382.0"/>
      <point x="208.0" y="-362.0"/>
      <point x="150.0" y="-336.0" type="curve"/>
      <point x="112.0" y="-458.0" type="line"/>
      <point x="152.0" y="-476.0"/>
      <point x="276.0" y="-494.0"/>
    </contour>
    <contour>
      <point x="414.0" y="98.0" type="curve" smooth="yes"/>
      <point x="294.0" y="98.0"/>
      <point x="228.0" y="208.0"/>
      <point x="228.0" y="424.0" type="curve" smooth="yes"/>
      <point x="228.0" y="602.0"/>
      <point x="298.0" y="802.0"/>
      <point x="436.0" y="928.0" type="curve" smooth="yes"/>
      <point x="504.0" y="990.0"/>
      <point x="586.0" y="1022.0"/>
      <point x="680.0" y="1022.0" type="curve" smooth="yes"/>
      <point x="742.0" y="1022.0"/>
      <point x="810.0" y="1008.0"/>
      <point x="864.0" y="986.0" type="curve"/>
      <point x="770.0" y="350.0" type="line"/>
      <point x="694.0" y="228.0"/>
      <point x="556.0" y="98.0"/>
    </contour>
  </outline>
</glyph>
<glyph name="s" format="2">
  <advance width="852.0"/>
  <unicode hex="0073"/>
  <note>
s
</note>
  <anchor x="344.0" y="0.0" name="bottom"/>
  <anchor x="540.0" y="1114.0" name="top"/>
  <outline>
    <contour>
      <point x="332.0" y="-16.0" type="curve" smooth="yes"/>
      <point x="538.0" y="-16.0"/>
      <point x="712.0" y="78.0"/>
      <point x="712.0" y="282.0" type="curve" smooth="yes"/>
      <point x="712.0" y="404.0"/>
      <point x="654.0" y="480.0"/>
      <point x="478.0" y="614.0" type="curve" smooth="yes"/>
      <point x="348.0" y="718.0"/>
      <point x="308.0" y="760.0"/>
      <point x="308.0" y="852.0" type="curve" smooth="yes"/>
      <point x="308.0" y="954.0"/>
      <point x="396.0" y="1020.0"/>
      <point x="538.0" y="1020.0" type="curve" smooth="yes"/>
      <point x="622.0" y="1020.0"/>
      <point x="736.0" y="984.0"/>
      <point x="756.0" y="950.0" type="curve"/>
      <point x="786.0" y="1086.0" type="line"/>
      <point x="746.0" y="1108.0"/>
      <point x="644.0" y="1128.0"/>
      <point x="538.0" y="1128.0" type="curve" smooth="yes"/>
      <point x="344.0" y="1128.0"/>
      <point x="168.0" y="1030.0"/>
      <point x="168.0" y="834.0" type="curve" smooth="yes"/>
      <point x="168.0" y="682.0"/>
      <point x="262.0" y="600.0"/>
      <point x="380.0" y="508.0" type="curve" smooth="yes"/>
      <point x="488.0" y="430.0"/>
      <point x="568.0" y="362.0"/>
      <point x="568.0" y="266.0" type="curve" smooth="yes"/>
      <point x="568.0" y="152.0"/>
      <point x="474.0" y="94.0"/>
      <point x="338.0" y="94.0" type="curve" smooth="yes"/>
      <point x="226.0" y="94.0"/>
      <point x="126.0" y="134.0"/>
      <point x="72.0" y="174.0" type="curve"/>
      <point x="44.0" y="46.0" type="line"/>
      <point x="82.0" y="14.0"/>
      <point x="210.0" y="-16.0"/>
    </contour>
  </outline>
</glyph>
<glyph name="u" format="2">
  <advance width="1146.0"/>
  <unicode hex="0075"/>
  <note>
u
</note>
  <anchor x="500.0" y="0.0" name="bottom"/>
  <anchor x="958.0" y="20.0" name="ogonek"/>
  <anchor x="618.0" y="1114.0" name="top"/>
  <anchor x="1180.0" y="1114.0" name="topright"/>
  <outline>
    <contour>
      <point x="360.0" y="-18.0" type="curve" smooth="yes"/>
      <point x="514.0" y="-18.0"/>
      <point x="678.0" y="98.0"/>
      <point x="790.0" y="256.0" type="curve"/>
      <point x="762.0" y="0.0" type="line"/>
      <point x="896.0" y="0.0" type="line"/>
      <point x="1044.0" y="1114.0" type="line"/>
      <point x="900.0" y="1114.0" type="line"/>
      <point x="806.0" y="406.0" type="line"/>
      <point x="718.0" y="270.0"/>
      <point x="548.0" y="108.0"/>
      <point x="412.0" y="108.0" type="curve" smooth="yes"/>
      <point x="308.0" y="108.0"/>
      <point x="258.0" y="150.0"/>
      <point x="258.0" y="270.0" type="curve" smooth="yes"/>
      <point x="258.0" y="328.0"/>
      <point x="266.0" y="402.0"/>
      <point x="282.0" y="520.0" type="curve" smooth="yes"/>
      <point x="288.0" y="568.0"/>
      <point x="310.0" y="712.0"/>
      <point x="364.0" y="1114.0" type="curve"/>
      <point x="218.0" y="1114.0" type="line"/>
      <point x="182.0" y="860.0"/>
      <point x="154.0" y="664.0"/>
      <point x="136.0" y="522.0" type="curve" smooth="yes"/>
      <point x="122.0" y="400.0"/>
      <point x="110.0" y="292.0"/>
      <point x="110.0" y="260.0" type="curve" smooth="yes"/>
      <point x="110.0" y="60.0"/>
      <point x="190.0" y="-18.0"/>
    </contour>
  </outline>
</glyph>
<glyph name="x" format="2">
  <advance width="926.0"/>
  <unicode hex="0078"/>
  <note>
x
</note>
  <anchor x="390.0" y="0.0" name="bottom"/>
  <anchor x="538.0" y="1114.0" name="top"/>
  <outline>
    <contour>
      <point x="-42.0" y="2.0" type="line"/>
      <point x="114.0" y="2.0" type="line"/>
      <point x="434.0" y="464.0" type="line"/>
      <point x="632.0" y="2.0" type="line"/>
      <point x="802.0" y="2.0" type="line"/>
      <point x="526.0" y="560.0" type="line"/>
      <point x="944.0" y="1114.0" type="line"/>
      <point x="784.0" y="1114.0" type="line"/>
      <point x="476.0" y="674.0" type="line"/>
      <point x="304.0" y="1114.0" type="line"/>
      <point x="130.0" y="1114.0" type="line"/>
      <point x="384.0" y="578.0" type="line"/>
    </contour>
  </outline>
</glyph>
<glyph name="z" format="2">
  <advance width="940.0"/>
  <unicode hex="007A"/>
  <note>
z
</note>
  <anchor x="396.0" y="0.0" name="bottom"/>
  <anchor x="470.0" y="558.0" name="center"/>
  <anchor x="556.0" y="1114.0" name="top"/>
  <outline>
    <contour>
      <point x="24.0" y="0.0" type="line"/>
      <point x="782.0" y="0.0" type="line"/>
      <point x="792.0" y="116.0" type="line"/>
      <point x="166.0" y="116.0" type="line"/>
      <point x="304.0" y="264.0" type="line"/>
      <point x="938.0" y="1074.0" type="line"/>
      <point x="902.0" y="1114.0" type="line"/>
      <point x="196.0" y="1114.0" type="line"/>
      <point x="180.0" y="998.0" type="line"/>
      <point x="750.0" y="998.0" type="line"/>
      <point x="586.0" y="818.0" type="line"/>
      <point x="-20.0" y="44.0" type="line"/>
    </contour>
  </outline>
</glyph>
<glyph name="braceleft" format="2">
  <advance width="856.0"/>
  <unicode hex="007B"/>
  <note>
braceleft
</note>
  <outline>
    <contour>
      <point x="366.0" y="-166.0" type="curve" smooth="yes"/>
      <point x="464.0" y="-166.0"/>
      <point x="528.0" y="-154.0"/>
      <point x="634.0" y="-130.0" type="curve"/>
      <point x="642.0" y="-64.0" type="line"/>
      <point x="374.0" y="-64.0" type="line"/>
      <point x="458.0" y="604.0" type="line" smooth="yes"/>
      <point x="472.0" y="708.0"/>
      <point x="352.0" y="734.0"/>
      <point x="246.0" y="782.0" type="curve"/>
      <point x="324.0" y="804.0"/>
      <point x="494.0" y="854.0"/>
      <point x="506.0" y="946.0" type="curve" smooth="yes"/>
      <point x="586.0" y="1560.0" type="line"/>
      <point x="866.0" y="1560.0" type="line"/>
      <point x="876.0" y="1624.0" type="line"/>
      <point x="840.0" y="1636.0"/>
      <point x="666.0" y="1660.0"/>
      <point x="608.0" y="1660.0" type="curve" smooth="yes"/>
      <point x="486.0" y="1660.0"/>
      <point x="460.0" y="1614.0"/>
      <point x="440.0" y="1474.0" type="curve" smooth="yes"/>
      <point x="370.0" y="970.0" type="line" smooth="yes"/>
      <point x="360.0" y="902.0"/>
      <point x="230.0" y="864.0"/>
      <point x="98.0" y="830.0" type="curve"/>
      <point x="84.0" y="734.0" type="line"/>
      <point x="174.0" y="710.0"/>
      <point x="328.0" y="656.0"/>
      <point x="320.0" y="590.0" type="curve" smooth="yes"/>
      <point x="240.0" y="-56.0" type="line" smooth="yes"/>
      <point x="230.0" y="-140.0"/>
      <point x="276.0" y="-166.0"/>
    </contour>
  </outline>
</glyph>
<glyph name="braceright" format="2">
  <advance width="856.0"/>
  <unicode hex="007D"/>
  <note>
braceleft
</note>
  <outline>
    <contour>
      <point x="540.0" y="1660.0" type="curve" smooth="yes"/>
      <point x="442.0" y="1660.0"/>
      <point x="378.0" y="1648.0"/>
      <point x="272.0" y="1624.0" type="curve"/>
      <point x="264.0" y="1558.0" type="line"/>
      <point x="532.0" y="1558.0" type="line"/>
      <point x="448.0" y="890.0" type="line" smooth="yes"/>
      <point x="434.0" y="786.0"/>
      <point x="554.0" y="760.0"/>
      <point x="660.0" y="712.0" type="curve"/>
      <point x="582.0" y="690.0"/>
      <point x="412.0" y="640.0"/>
      <point x="400.0" y="548.0" type="curve" smooth="yes"/>
      <point x="320.0" y="-66.0" type="line"/>
      <point x="40.0" y="-66.0" type="line"/>
      <point x="30.0" y="-130.0" type="line"/>
      <point x="66.0" y="-142.0"/>
      <point x="240.0" y="-166.0"/>
      <point x="298.0" y="-166.0" type="curve" smooth="yes"/>
      <point x="420.0" y="-166.0"/>
      <point x="446.0" y="-120.0"/>
      <point x="466.0" y="20.0" type="curve" smooth="yes"/>
      <point x="536.0" y="524.0" type="line" smooth="yes"/>
      <point x="546.0" y="592.0"/>
      <point x="676.0" y="630.0"/>
      <point x="808.0" y="664.0" type="curve"/>
      <point x="822.0" y="760.0" type="line"/>
      <point x="732.0" y="784.0"/>
      <point x="578.0" y="838.0"/>
      <point x="586.0" y="904.0" type="curve" smooth="yes"/>
      <point x="666.0" y="1550.0" type="line" smooth="yes"/>
      <point x="676.0" y="1634.0"/>
      <point x="630.0" y="1660.0"/>
    </contour>
  </outline>
</glyph>
<glyph name="asciitilde" format="2">
  <advance width="1110.0"/>
  <unicode hex="007E"/>
  <note>
asciitilde
</note>
  <outline>
    <contour>
      <point x="740.0" y="724.0" type="curve" smooth="yes"/>
      <point x="872.0" y="724.0"/>
      <point x="992.0" y="818.0"/>
      <point x="1028.0" y="918.0" type="curve"/>
      <point x="972.0" y="974.0" type="line"/>
      <point x="926.0" y="902.0"/>
      <point x="856.0" y="848.0"/>
      <point x="768.0" y="848.0" type="curve" smooth="yes"/>
      <point x="718.0" y="848.0"/>
      <point x="682.0" y="874.0"/>
      <point x="620.0" y="924.0" type="curve" smooth="yes"/>
      <point x="548.0" y="986.0"/>
      <point x="502.0" y="1016.0"/>
      <point x="432.0" y="1016.0" type="curve" smooth="yes"/>
      <point x="300.0" y="1016.0"/>
      <point x="168.0" y="920.0"/>
      <point x="136.0" y="824.0" type="curve"/>
      <point x="190.0" y="768.0" type="line"/>
      <point x="244.0" y="848.0"/>
      <point x="316.0" y="894.0"/>
      <point x="404.0" y="894.0" type="curve" smooth="yes"/>
      <point x="452.0" y="894.0"/>
      <point x="488.0" y="870.0"/>
      <point x="550.0" y="816.0" type="curve" smooth="yes"/>
      <point x="622.0" y="754.0"/>
      <point x="668.0" y="724.0"/>
    </contour>
  </outline>
</glyph>
<glyph name="currency" format="2">
  <advance width="1424.0"/>
  <unicode hex="00A4"/>
  <note>
currency
</note>
  <outline>
    <contour>
      <point x="286.0" y="140.0" type="line"/>
      <point x="472.0" y="326.0" type="line"/>
      <point x="544.0" y="276.0"/>
      <point x="634.0" y="246.0"/>
      <point x="724.0" y="246.0" type="curve" smooth="yes"/>
      <point x="820.0" y="246.0"/>
      <point x="910.0" y="278.0"/>
      <point x="984.0" y="332.0" type="curve"/>
      <point x="1170.0" y="146.0" type="line"/>
      <point x="1256.0" y="230.0" type="line"/>
      <point x="1068.0" y="416.0" type="line"/>
      <point x="1122.0" y="490.0"/>
      <point x="1154.0" y="578.0"/>
      <point x="1154.0" y="674.0" type="curve" smooth="yes"/>
      <point x="1154.0" y="768.0"/>
      <point x="1126.0" y="854.0"/>
      <point x="1072.0" y="924.0" type="curve"/>
      <point x="1258.0" y="1110.0" type="line"/>
      <point x="1172.0" y="1194.0" type="line"/>
      <point x="990.0" y="1010.0" type="line"/>
      <point x="916.0" y="1068.0"/>
      <point x="822.0" y="1102.0"/>
      <point x="724.0" y="1102.0" type="curve" smooth="yes"/>
      <point x="630.0" y="1102.0"/>
      <point x="542.0" y="1072.0"/>
      <point x="470.0" y="1018.0" type="curve"/>
      <point x="282.0" y="1208.0" type="line"/>
      <point x="198.0" y="1122.0" type="line"/>
      <point x="384.0" y="936.0" type="line"/>
      <point x="328.0" y="862.0"/>
      <point x="294.0" y="772.0"/>
      <point x="294.0" y="674.0" type="curve" smooth="yes"/>
      <point x="294.0" y="576.0"/>
      <point x="328.0" y="482.0"/>
      <point x="386.0" y="410.0" type="curve"/>
      <point x="200.0" y="224.0" type="line"/>
    </contour>
    <contour>
      <point x="724.0" y="346.0" type="curve" smooth="yes"/>
      <point x="550.0" y="346.0"/>
      <point x="406.0" y="496.0"/>
      <point x="406.0" y="674.0" type="curve" smooth="yes"/>
      <point x="406.0" y="852.0"/>
      <point x="548.0" y="1002.0"/>
      <point x="724.0" y="1002.0" type="curve" smooth="yes"/>
      <point x="904.0" y="1002.0"/>
      <point x="1042.0" y="854.0"/>
      <point x="1042.0" y="674.0" type="curve" smooth="yes"/>
      <point x="1042.0" y="492.0"/>
      <point x="902.0" y="346.0"/>
    </contour>
  </outline>
</glyph>
<glyph name="yen" format="2">
  <advance width="1448.0"/>
  <unicode hex="00A5"/>
  <note>
yen
</note>
  <outline>
    <contour>
      <point x="598.0" y="0.0" type="line"/>
      <point x="730.0" y="0.0" type="line"/>
      <point x="774.0" y="374.0" type="line"/>
      <point x="1188.0" y="374.0" type="line"/>
      <point x="1200.0" y="470.0" type="line"/>
      <point x="784.0" y="470.0" type="line"/>
      <point x="814.0" y="718.0" type="line"/>
      <point x="1230.0" y="718.0" type="line"/>
      <point x="1244.0" y="818.0" type="line"/>
      <point x="876.0" y="818.0" type="line"/>
      <point x="1378.0" y="1494.0" type="line"/>
      <point x="1234.0" y="1494.0" type="line"/>
      <point x="850.0" y="940.0" type="line"/>
      <point x="776.0" y="818.0" type="line"/>
      <point x="728.0" y="934.0" type="line"/>
      <point x="462.0" y="1494.0" type="line"/>
      <point x="320.0" y="1494.0" type="line"/>
      <point x="648.0" y="818.0" type="line"/>
      <point x="288.0" y="818.0" type="line"/>
      <point x="276.0" y="718.0" type="line"/>
      <point x="680.0" y="718.0" type="line"/>
      <point x="652.0" y="470.0" type="line"/>
      <point x="244.0" y="470.0" type="line"/>
      <point x="232.0" y="374.0" type="line"/>
      <point x="642.0" y="374.0" type="line"/>
    </contour>
  </outline>
</glyph>
<glyph name="section" format="2">
  <advance width="1326.0"/>
  <unicode hex="00A7"/>
  <outline>
    <contour>
      <point x="306.0" y="1310.0" type="curve" smooth="yes"/>
      <point x="246.0" y="880.0"/>
      <point x="1002.0" y="958.0"/>
      <point x="950.0" y="590.0" type="curve" smooth="yes"/>
      <point x="938.0" y="504.0"/>
      <point x="868.0" y="392.0"/>
      <point x="814.0" y="338.0" type="curve"/>
      <point x="882.0" y="292.0" type="line"/>
      <point x="992.0" y="370.0"/>
      <point x="1084.0" y="484.0"/>
      <point x="1104.0" y="618.0" type="curve" smooth="yes"/>
      <point x="1164.0" y="1046.0"/>
      <point x="414.0" y="1002.0"/>
      <point x="460.0" y="1328.0" type="curve" smooth="yes"/>
      <point x="478.0" y="1464.0"/>
      <point x="632.0" y="1510.0"/>
      <point x="790.0" y="1510.0" type="curve" smooth="yes"/>
      <point x="964.0" y="1512.0"/>
      <point x="1062.0" y="1468.0"/>
      <point x="1102.0" y="1438.0" type="curve"/>
      <point x="1154.0" y="1562.0" type="line"/>
      <point x="1102.0" y="1596.0"/>
      <point x="992.0" y="1634.0"/>
      <point x="810.0" y="1634.0" type="curve" smooth="yes"/>
      <point x="608.0" y="1634.0"/>
      <point x="342.0" y="1568.0"/>
    </contour>
    <contour>
      <point x="1028.0" y="136.0" type="curve" smooth="yes"/>
      <point x="1082.0" y="528.0"/>
      <point x="324.0" y="456.0"/>
      <point x="372.0" y="792.0" type="curve" smooth="yes"/>
      <point x="386.0" y="890.0"/>
      <point x="466.0" y="1000.0"/>
      <point x="510.0" y="1046.0" type="curve"/>
      <point x="438.0" y="1092.0" type="line"/>
      <point x="332.0" y="1016.0"/>
      <point x="236.0" y="900.0"/>
      <point x="218.0" y="764.0" type="curve" smooth="yes"/>
      <point x="162.0" y="364.0"/>
      <point x="916.0" y="406.0"/>
      <point x="876.0" y="122.0" type="curve" smooth="yes"/>
      <point x="856.0" y="-16.0"/>
      <point x="692.0" y="-64.0"/>
      <point x="526.0" y="-66.0" type="curve" smooth="yes"/>
      <point x="338.0" y="-66.0"/>
      <point x="202.0" y="-12.0"/>
      <point x="156.0" y="26.0" type="curve"/>
      <point x="106.0" y="-98.0" type="line"/>
      <point x="162.0" y="-140.0"/>
      <point x="314.0" y="-188.0"/>
      <point x="504.0" y="-188.0" type="curve" smooth="yes"/>
      <point x="716.0" y="-188.0"/>
      <point x="992.0" y="-116.0"/>
    </contour>
  </outline>
</glyph>
<glyph name="plusminus" format="2">
  <advance width="1334.0"/>
  <unicode hex="00B1"/>
  <note>
plusminus
</note>
  <outline>
    <contour>
      <point x="558.0" y="288.0" type="line"/>
      <point x="694.0" y="288.0" type="line"/>
      <point x="722.0" y="524.0" type="line"/>
      <point x="736.0" y="700.0" type="line"/>
      <point x="864.0" y="696.0" type="line"/>
      <point x="1114.0" y="696.0" type="line"/>
      <point x="1126.0" y="814.0" type="line"/>
      <point x="876.0" y="814.0" type="line"/>
      <point x="748.0" y="806.0" type="line"/>
      <point x="776.0" y="982.0" type="line"/>
      <point x="802.0" y="1206.0" type="line"/>
      <point x="668.0" y="1206.0" type="line"/>
      <point x="642.0" y="982.0" type="line"/>
      <point x="626.0" y="804.0" type="line"/>
      <point x="470.0" y="814.0" type="line"/>
      <point x="250.0" y="814.0" type="line"/>
      <point x="238.0" y="696.0" type="line"/>
      <point x="458.0" y="696.0" type="line"/>
      <point x="614.0" y="700.0" type="line"/>
      <point x="586.0" y="524.0" type="line"/>
    </contour>
    <contour>
      <point x="168.0" y="30.0" type="line"/>
      <point x="1016.0" y="30.0" type="line"/>
      <point x="1030.0" y="142.0" type="line"/>
      <point x="180.0" y="142.0" type="line"/>
    </contour>
  </outline>
</glyph>
<glyph name="acute" format="2">
  <advance width="546.0"/>
  <unicode hex="00B4"/>
  <note>
acute
</note>
  <outline>
    <contour>
      <point x="118.0" y="1220.0" type="line"/>
      <point x="210.0" y="1272.0"/>
      <point x="418.0" y="1480.0"/>
      <point x="470.0" y="1562.0" type="curve"/>
      <point x="358.0" y="1664.0" type="line"/>
      <point x="56.0" y="1274.0" type="line"/>
    </contour>
  </outline>
</glyph>
<glyph name="micro" format="2">
  <advance width="1322.0"/>
  <unicode hex="00B5"/>
  <note>
uni00B5
</note>
  <outline>
    <contour>
      <point x="126.0" y="-364.0" type="line"/>
      <point x="264.0" y="-364.0" type="line"/>
      <point x="334.0" y="98.0" type="line"/>
      <point x="350.0" y="28.0"/>
      <point x="446.0" y="-18.0"/>
      <point x="522.0" y="-18.0" type="curve" smooth="yes"/>
      <point x="674.0" y="-18.0"/>
      <point x="766.0" y="38.0"/>
      <point x="856.0" y="132.0" type="curve"/>
      <point x="856.0" y="30.0"/>
      <point x="906.0" y="-18.0"/>
      <point x="986.0" y="-18.0" type="curve" smooth="yes"/>
      <point x="1080.0" y="-18.0"/>
      <point x="1176.0" y="64.0"/>
      <point x="1206.0" y="108.0" type="curve"/>
      <point x="1158.0" y="192.0" type="line"/>
      <point x="1112.0" y="138.0"/>
      <point x="1072.0" y="112.0"/>
      <point x="1038.0" y="112.0" type="curve" smooth="yes"/>
      <point x="998.0" y="112.0"/>
      <point x="994.0" y="172.0"/>
      <point x="1000.0" y="220.0" type="curve"/>
      <point x="1040.0" y="518.0"/>
      <point x="1082.0" y="816.0"/>
      <point x="1122.0" y="1114.0" type="curve"/>
      <point x="978.0" y="1114.0" type="line"/>
      <point x="862.0" y="290.0" type="line"/>
      <point x="798.0" y="210.0"/>
      <point x="670.0" y="112.0"/>
      <point x="562.0" y="112.0" type="curve" smooth="yes"/>
      <point x="456.0" y="112.0"/>
      <point x="376.0" y="166.0"/>
      <point x="376.0" y="292.0" type="curve" smooth="yes"/>
      <point x="376.0" y="344.0"/>
      <point x="452.0" y="844.0"/>
      <point x="464.0" y="944.0" type="curve"/>
      <point x="476.0" y="1034.0"/>
      <point x="452.0" y="1124.0"/>
      <point x="358.0" y="1124.0" type="curve" smooth="yes"/>
      <point x="260.0" y="1124.0"/>
      <point x="164.0" y="1058.0"/>
      <point x="134.0" y="1014.0" type="curve"/>
      <point x="184.0" y="928.0" type="line"/>
      <point x="222.0" y="966.0"/>
      <point x="256.0" y="984.0"/>
      <point x="286.0" y="984.0" type="curve" smooth="yes"/>
      <point x="318.0" y="984.0"/>
      <point x="320.0" y="934.0"/>
      <point x="310.0" y="874.0" type="curve"/>
    </contour>
  </outline>
</glyph>
<glyph name="ordmasculine" format="2">
  <advance width="788.0"/>
  <unicode hex="00BA"/>
  <note>
ordmasculine
</note>
  <outline>
    <contour>
      <point x="418.0" y="716.0" type="curve" smooth="yes"/>
      <point x="662.0" y="716.0"/>
      <point x="840.0" y="922.0"/>
      <point x="840.0" y="1190.0" type="curve" smooth="yes"/>
      <point x="840.0" y="1396.0"/>
      <point x="720.0" y="1552.0"/>
      <point x="522.0" y="1552.0" type="curve" smooth="yes"/>
      <point x="286.0" y="1552.0"/>
      <point x="98.0" y="1334.0"/>
      <point x="98.0" y="1074.0" type="curve" smooth="yes"/>
      <point x="98.0" y="872.0"/>
      <point x="226.0" y="716.0"/>
    </contour>
    <contour>
      <point x="420.0" y="810.0" type="curve" smooth="yes"/>
      <point x="304.0" y="810.0"/>
      <point x="236.0" y="932.0"/>
      <point x="236.0" y="1086.0" type="curve" smooth="yes"/>
      <point x="236.0" y="1268.0"/>
      <point x="336.0" y="1462.0"/>
      <point x="518.0" y="1462.0" type="curve" smooth="yes"/>
      <point x="640.0" y="1462.0"/>
      <point x="702.0" y="1348.0"/>
      <point x="702.0" y="1178.0" type="curve" smooth="yes"/>
      <point x="702.0" y="986.0"/>
      <point x="612.0" y="810.0"/>
    </contour>
  </outline>
</glyph>
<glyph name="guillemetright" format="2">
  <advance width="856.0"/>
  <unicode hex="00BB"/>
  <note>
guillemotright
</note>
  <outline>
    <contour>
      <point x="436.0" y="74.0" type="line"/>
      <point x="775.0" y="277.0" type="line"/>
      <point x="783.0" y="335.0" type="line"/>
      <point x="498.0" y="530.0" type="line"/>
      <point x="472.0" y="489.0" type="line"/>
      <point x="693.0" y="305.0" type="line"/>
      <point x="421.0" y="118.0" type="line"/>
    </contour>
    <contour>
      <point x="106.0" y="74.0" type="line"/>
      <point x="445.0" y="277.0" type="line"/>
      <point x="453.0" y="335.0" type="line"/>
      <point x="168.0" y="530.0" type="line"/>
      <point x="142.0" y="489.0" type="line"/>
      <point x="363.0" y="305.0" type="line"/>
      <point x="91.0" y="118.0" type="line"/>
    </contour>
  </outline>
</glyph>
<glyph name="questiondown" format="2">
  <advance width="840.0"/>
  <unicode hex="00BF"/>
  <note>
questiondown
</note>
  <outline>
    <contour>
      <point x="648.0" y="866.0" type="curve"/>
      <point x="518.0" y="866.0" type="line"/>
      <point x="536.0" y="810.0"/>
      <point x="536.0" y="770.0"/>
      <point x="534.0" y="720.0" type="curve" smooth="yes"/>
      <point x="530.0" y="612.0"/>
      <point x="428.0" y="560.0"/>
      <point x="308.0" y="488.0" type="curve" smooth="yes"/>
      <point x="134.0" y="384.0"/>
      <point x="16.0" y="230.0"/>
      <point x="16.0" y="32.0" type="curve" smooth="yes"/>
      <point x="16.0" y="-218.0"/>
      <point x="166.0" y="-358.0"/>
      <point x="436.0" y="-358.0" type="curve" smooth="yes"/>
      <point x="552.0" y="-358.0"/>
      <point x="644.0" y="-336.0"/>
      <point x="670.0" y="-306.0" type="curve"/>
      <point x="692.0" y="-200.0" type="line"/>
      <point x="622.0" y="-224.0"/>
      <point x="564.0" y="-238.0"/>
      <point x="482.0" y="-238.0" type="curve" smooth="yes"/>
      <point x="276.0" y="-238.0"/>
      <point x="152.0" y="-136.0"/>
      <point x="152.0" y="50.0" type="curve" smooth="yes"/>
      <point x="152.0" y="178.0"/>
      <point x="224.0" y="312.0"/>
      <point x="392.0" y="408.0" type="curve" smooth="yes"/>
      <point x="528.0" y="486.0"/>
      <point x="668.0" y="572.0"/>
      <point x="668.0" y="706.0" type="curve" smooth="yes"/>
      <point x="668.0" y="804.0"/>
      <point x="648.0" y="834.0"/>
    </contour>
    <contour>
      <point x="622.0" y="1392.0" type="curve" smooth="yes"/>
      <point x="548.0" y="1392.0"/>
      <point x="506.0" y="1348.0"/>
      <point x="506.0" y="1262.0" type="curve" smooth="yes"/>
      <point x="506.0" y="1212.0"/>
      <point x="534.0" y="1178.0"/>
      <point x="592.0" y="1178.0" type="curve" smooth="yes"/>
      <point x="662.0" y="1178.0"/>
      <point x="710.0" y="1234.0"/>
      <point x="710.0" y="1306.0" type="curve" smooth="yes"/>
      <point x="710.0" y="1360.0"/>
      <point x="672.0" y="1392.0"/>
    </contour>
  </outline>
</glyph>
<glyph name="AE" format="2">
  <advance width="1740.0"/>
  <unicode hex="00C6"/>
  <note>
AE
</note>
  <anchor x="796.0" y="0.0" name="bottom"/>
  <anchor x="994.0" y="1494.0" name="top"/>
  <outline>
    <contour>
      <point x="-104.0" y="0.0" type="line"/>
      <point x="54.0" y="0.0" type="line"/>
      <point x="300.0" y="448.0" type="line"/>
      <point x="806.0" y="448.0" type="line"/>
      <point x="750.0" y="0.0" type="line"/>
      <point x="1620.0" y="0.0" type="line"/>
      <point x="1630.0" y="124.0" type="line"/>
      <point x="910.0" y="112.0" type="line"/>
      <point x="986.0" y="710.0" type="line"/>
      <point x="1454.0" y="700.0" type="line"/>
      <point x="1462.0" y="824.0" type="line"/>
      <point x="1000.0" y="818.0" type="line"/>
      <point x="1072.0" y="1384.0" type="line"/>
      <point x="1670.0" y="1376.0" type="line"/>
      <point x="1676.0" y="1494.0" type="line"/>
      <point x="402.0" y="1494.0" type="line"/>
      <point x="392.0" y="1418.0" type="line"/>
      <point x="682.0" y="1402.0" type="line"/>
    </contour>
    <contour>
      <point x="362.0" y="562.0" type="line"/>
      <point x="816.0" y="1392.0" type="line"/>
      <point x="924.0" y="1386.0" type="line"/>
      <point x="822.0" y="562.0" type="line"/>
    </contour>
  </outline>
</glyph>
<glyph name="Oslash" format="2">
  <advance width="1346.0"/>
  <unicode hex="00D8"/>
  <note>
Oslash
</note>
  <anchor x="798.0" y="1494.0" name="top"/>
  <outline>
    <contour>
      <point x="122.0" y="-120.0" type="line"/>
      <point x="278.0" y="112.0" type="line"/>
      <point x="358.0" y="30.0"/>
      <point x="464.0" y="-16.0"/>
      <point x="590.0" y="-16.0" type="curve" smooth="yes"/>
      <point x="852.0" y="-16.0"/>
      <point x="1068.0" y="152.0"/>
      <point x="1184.0" y="424.0" type="curve" smooth="yes"/>
      <point x="1242.0" y="558.0"/>
      <point x="1270.0" y="708.0"/>
      <point x="1270.0" y="872.0" type="curve" smooth="yes"/>
      <point x="1270.0" y="1070.0"/>
      <point x="1222.0" y="1242.0"/>
      <point x="1126.0" y="1356.0" type="curve"/>
      <point x="1282.0" y="1584.0" type="line"/>
      <point x="1212.0" y="1620.0" type="line"/>
      <point x="1072.0" y="1414.0" type="line"/>
      <point x="996.0" y="1480.0"/>
      <point x="904.0" y="1512.0"/>
      <point x="794.0" y="1512.0" type="curve" smooth="yes"/>
      <point x="538.0" y="1512.0"/>
      <point x="320.0" y="1348.0"/>
      <point x="200.0" y="1078.0" type="curve" smooth="yes"/>
      <point x="140.0" y="942.0"/>
      <point x="110.0" y="790.0"/>
      <point x="110.0" y="624.0" type="curve" smooth="yes"/>
      <point x="110.0" y="446.0"/>
      <point x="148.0" y="286.0"/>
      <point x="228.0" y="174.0" type="curve"/>
      <point x="54.0" y="-82.0" type="line"/>
    </contour>
    <contour>
      <point x="614.0" y="98.0" type="curve" smooth="yes"/>
      <point x="508.0" y="98.0"/>
      <point x="424.0" y="138.0"/>
      <point x="364.0" y="220.0" type="curve"/>
      <point x="1040.0" y="1238.0" type="line"/>
      <point x="1090.0" y="1146.0"/>
      <point x="1116.0" y="1016.0"/>
      <point x="1116.0" y="846.0" type="curve" smooth="yes"/>
      <point x="1116.0" y="574.0"/>
      <point x="1026.0" y="332.0"/>
      <point x="874.0" y="198.0" type="curve" smooth="yes"/>
      <point x="796.0" y="132.0"/>
      <point x="710.0" y="98.0"/>
    </contour>
    <contour>
      <point x="320.0" y="296.0" type="line"/>
      <point x="282.0" y="386.0"/>
      <point x="262.0" y="504.0"/>
      <point x="262.0" y="646.0" type="curve" smooth="yes"/>
      <point x="262.0" y="912.0"/>
      <point x="356.0" y="1156.0"/>
      <point x="510.0" y="1292.0" type="curve" smooth="yes"/>
      <point x="588.0" y="1360.0"/>
      <point x="674.0" y="1394.0"/>
      <point x="770.0" y="1394.0" type="curve" smooth="yes"/>
      <point x="862.0" y="1394.0"/>
      <point x="936.0" y="1364.0"/>
      <point x="992.0" y="1306.0" type="curve"/>
    </contour>
  </outline>
</glyph>
<glyph name="Thorn" format="2">
  <advance width="1166.0"/>
  <unicode hex="00DE"/>
  <note>
Thorn
</note>
  <outline>
    <contour>
      <point x="118.0" y="0.0" type="line"/>
      <point x="264.0" y="0.0" type="line"/>
      <point x="300.0" y="290.0" type="line"/>
      <point x="356.0" y="284.0"/>
      <point x="422.0" y="280.0"/>
      <point x="498.0" y="280.0" type="curve" smooth="yes"/>
      <point x="732.0" y="280.0"/>
      <point x="922.0" y="376.0"/>
      <point x="1024.0" y="550.0" type="curve" smooth="yes"/>
      <point x="1074.0" y="636.0"/>
      <point x="1100.0" y="738.0"/>
      <point x="1100.0" y="856.0" type="curve" smooth="yes"/>
      <point x="1100.0" y="1118.0"/>
      <point x="948.0" y="1250.0"/>
      <point x="660.0" y="1250.0" type="curve" smooth="yes"/>
      <point x="620.0" y="1250.0"/>
      <point x="480.0" y="1242.0"/>
      <point x="420.0" y="1236.0" type="curve"/>
      <point x="454.0" y="1494.0" type="line"/>
      <point x="306.0" y="1494.0" type="line"/>
    </contour>
    <contour>
      <point x="502.0" y="394.0" type="curve" smooth="yes"/>
      <point x="438.0" y="394.0"/>
      <point x="358.0" y="402.0"/>
      <point x="316.0" y="410.0" type="curve"/>
      <point x="406.0" y="1122.0" type="line"/>
      <point x="462.0" y="1128.0"/>
      <point x="588.0" y="1140.0"/>
      <point x="636.0" y="1140.0" type="curve" smooth="yes"/>
      <point x="852.0" y="1140.0"/>
      <point x="952.0" y="1038.0"/>
      <point x="952.0" y="860.0" type="curve" smooth="yes"/>
      <point x="952.0" y="564.0"/>
      <point x="796.0" y="396.0"/>
    </contour>
  </outline>
</glyph>
<glyph name="germandbls" format="2">
  <advance width="1152.0"/>
  <unicode hex="00DF"/>
  <note>
germandbls
</note>
  <outline>
    <contour>
      <point x="664.0" y="-16.0" type="curve" smooth="yes"/>
      <point x="880.0" y="-16.0"/>
      <point x="1048.0" y="94.0"/>
      <point x="1048.0" y="300.0" type="curve" smooth="yes"/>
      <point x="1048.0" y="426.0"/>
      <point x="1000.0" y="512.0"/>
      <point x="926.0" y="614.0" type="curve" smooth="yes"/>
      <point x="848.0" y="710.0"/>
      <point x="802.0" y="758.0"/>
      <point x="802.0" y="804.0" type="curve" smooth="yes"/>
      <point x="802.0" y="852.0"/>
      <point x="834.0" y="890.0"/>
      <point x="900.0" y="954.0" type="curve" smooth="yes"/>
      <point x="988.0" y="1046.0"/>
      <point x="1062.0" y="1128.0"/>
      <point x="1062.0" y="1270.0" type="curve" smooth="yes"/>
      <point x="1062.0" y="1448.0"/>
      <point x="944.0" y="1550.0"/>
      <point x="760.0" y="1550.0" type="curve" smooth="yes"/>
      <point x="398.0" y="1550.0"/>
      <point x="248.0" y="1310.0"/>
      <point x="198.0" y="908.0" type="curve" smooth="yes"/>
      <point x="84.0" y="2.0" type="line"/>
      <point x="228.0" y="2.0" type="line"/>
      <point x="334.0" y="864.0" type="line" smooth="yes"/>
      <point x="380.0" y="1192.0"/>
      <point x="466.0" y="1446.0"/>
      <point x="718.0" y="1446.0" type="curve" smooth="yes"/>
      <point x="848.0" y="1446.0"/>
      <point x="912.0" y="1368.0"/>
      <point x="912.0" y="1266.0" type="curve" smooth="yes"/>
      <point x="912.0" y="1146.0"/>
      <point x="844.0" y="1066.0"/>
      <point x="750.0" y="968.0" type="curve" smooth="yes"/>
      <point x="692.0" y="902.0"/>
      <point x="662.0" y="860.0"/>
      <point x="662.0" y="786.0" type="curve" smooth="yes"/>
      <point x="662.0" y="716.0"/>
      <point x="726.0" y="640.0"/>
      <point x="808.0" y="538.0" type="curve" smooth="yes"/>
      <point x="870.0" y="450.0"/>
      <point x="902.0" y="368.0"/>
      <point x="902.0" y="294.0" type="curve" smooth="yes"/>
      <point x="902.0" y="156.0"/>
      <point x="816.0" y="98.0"/>
      <point x="648.0" y="98.0" type="curve" smooth="yes"/>
      <point x="562.0" y="98.0"/>
      <point x="480.0" y="138.0"/>
      <point x="438.0" y="176.0" type="curve"/>
      <point x="418.0" y="36.0" type="line"/>
      <point x="466.0" y="10.0"/>
      <point x="570.0" y="-16.0"/>
    </contour>
  </outline>
</glyph>
<glyph name="oslash" format="2">
  <advance width="554.0"/>
  <unicode hex="00F8"/>
  <note>
oslash
</note>
  <anchor x="240.0" y="0.0" name="bottom"/>
  <anchor x="277.0" y="279.0" name="center"/>
  <anchor x="335.0" y="10.0" name="ogonek"/>
  <anchor x="326.0" y="557.0" name="top"/>
  <anchor x="571.0" y="557.0" name="topright"/>
  <outline>
    <contour>
      <point x="62.0" y="-62.0" type="line"/>
      <point x="135.0" y="45.0" type="line"/>
      <point x="157.0" y="66.0" type="line"/>
      <point x="415.0" y="473.0" type="line"/>
      <point x="437.0" y="499.0" type="line"/>
      <point x="513.0" y="615.0" type="line"/>
      <point x="479.0" y="634.0" type="line"/>
      <point x="403.0" y="517.0" type="line"/>
      <point x="384.0" y="496.0" type="line"/>
      <point x="135.0" y="100.0" type="line"/>
      <point x="111.0" y="78.0" type="line"/>
      <point x="28.0" y="-43.0" type="line"/>
    </contour>
    <component base="o"/>
  </outline>
</glyph>
<glyph name="thorn" format="2">
  <advance width="1132.0"/>
  <unicode hex="00FE"/>
  <note>
thorn
</note>
  <outline>
    <contour>
      <point x="20.0" y="-504.0" type="line"/>
      <point x="162.0" y="-504.0" type="line"/>
      <point x="222.0" y="-98.0" type="line"/>
      <point x="236.0" y="8.0" type="line"/>
      <point x="298.0" y="-8.0"/>
      <point x="356.0" y="-16.0"/>
      <point x="410.0" y="-16.0" type="curve" smooth="yes"/>
      <point x="676.0" y="-16.0"/>
      <point x="870.0" y="152.0"/>
      <point x="966.0" y="376.0" type="curve" smooth="yes"/>
      <point x="1012.0" y="486.0"/>
      <point x="1036.0" y="596.0"/>
      <point x="1036.0" y="706.0" type="curve" smooth="yes"/>
      <point x="1036.0" y="968.0"/>
      <point x="930.0" y="1128.0"/>
      <point x="724.0" y="1128.0" type="curve" smooth="yes"/>
      <point x="574.0" y="1128.0"/>
      <point x="438.0" y="1034.0"/>
      <point x="352.0" y="916.0" type="curve"/>
      <point x="386.0" y="1120.0" type="line"/>
      <point x="444.0" y="1598.0" type="line"/>
      <point x="306.0" y="1598.0" type="line"/>
      <point x="92.0" y="2.0" type="line"/>
    </contour>
    <contour>
      <point x="432.0" y="92.0" type="curve" smooth="yes"/>
      <point x="370.0" y="92.0"/>
      <point x="304.0" y="104.0"/>
      <point x="254.0" y="126.0" type="curve"/>
      <point x="340.0" y="766.0" type="line"/>
      <point x="416.0" y="888.0"/>
      <point x="550.0" y="1016.0"/>
      <point x="700.0" y="1016.0" type="curve" smooth="yes"/>
      <point x="820.0" y="1016.0"/>
      <point x="884.0" y="906.0"/>
      <point x="884.0" y="690.0" type="curve" smooth="yes"/>
      <point x="884.0" y="512.0"/>
      <point x="816.0" y="310.0"/>
      <point x="680.0" y="186.0" type="curve" smooth="yes"/>
      <point x="610.0" y="124.0"/>
      <point x="528.0" y="92.0"/>
    </contour>
  </outline>
</glyph>
<glyph name="dcaron" format="2">
  <advance width="1396.0"/>
  <unicode hex="010F"/>
  <note>
dcaron
</note>
  <anchor x="488.0" y="0.0" name="bottom"/>
  <anchor x="562.0" y="558.0" name="center"/>
  <anchor x="530.0" y="1114.0" name="top"/>
  <anchor x="1156.0" y="1114.0" name="topright"/>
  <outline>
    <contour>
      <point x="1276.0" y="992.0" type="line"/>
      <point x="1346.0" y="1090.0"/>
      <point x="1396.0" y="1256.0"/>
      <point x="1402.0" y="1394.0" type="curve" smooth="yes"/>
      <point x="1402.0" y="1474.0"/>
      <point x="1402.0" y="1558.0"/>
      <point x="1374.0" y="1618.0" type="curve"/>
      <point x="1244.0" y="1584.0" type="line"/>
      <point x="1238.0" y="1560.0" type="line"/>
      <point x="1254.0" y="1534.0"/>
      <point x="1266.0" y="1470.0"/>
      <point x="1266.0" y="1392.0" type="curve" smooth="yes"/>
      <point x="1266.0" y="1286.0"/>
      <point x="1242.0" y="1170.0"/>
      <point x="1196.0" y="1040.0" type="curve"/>
      <point x="1200.0" y="1020.0" type="line"/>
    </contour>
    <component base="d"/>
  </outline>
</glyph>
<glyph name="dcroat" format="2">
  <advance width="1122.0"/>
  <unicode hex="0111"/>
  <note>
dcroat
</note>
  <anchor x="488.0" y="0.0" name="bottom"/>
  <anchor x="562.0" y="558.0" name="center"/>
  <anchor x="530.0" y="1114.0" name="top"/>
  <anchor x="1156.0" y="1114.0" name="topright"/>
  <outline>
    <contour>
      <point x="614.0" y="1262.0" type="line"/>
      <point x="1182.0" y="1262.0" type="line"/>
      <point x="1196.0" y="1360.0" type="line"/>
      <point x="626.0" y="1360.0" type="line"/>
    </contour>
    <component base="d"/>
  </outline>
</glyph>
<glyph name="Hbar" format="2">
  <advance width="1376.0"/>
  <unicode hex="0126"/>
  <note>
Hbar
</note>
  <outline>
    <contour>
      <point x="118.0" y="0.0" type="line"/>
      <point x="264.0" y="0.0" type="line"/>
      <point x="340.0" y="596.0" type="line"/>
      <point x="1048.0" y="596.0" type="line"/>
      <point x="974.0" y="0.0" type="line"/>
      <point x="1122.0" y="0.0" type="line"/>
      <point x="1248.0" y="1012.0" type="line"/>
      <point x="1470.0" y="1012.0" type="line"/>
      <point x="1480.0" y="1124.0" type="line"/>
      <point x="1262.0" y="1124.0" type="line"/>
      <point x="1308.0" y="1494.0" type="line"/>
      <point x="1162.0" y="1494.0" type="line"/>
      <point x="1116.0" y="1124.0" type="line"/>
      <point x="406.0" y="1124.0" type="line"/>
      <point x="454.0" y="1494.0" type="line"/>
      <point x="306.0" y="1494.0" type="line"/>
      <point x="260.0" y="1124.0" type="line"/>
      <point x="66.0" y="1124.0" type="line"/>
      <point x="54.0" y="1012.0" type="line"/>
      <point x="246.0" y="1012.0" type="line"/>
    </contour>
    <contour>
      <point x="354.0" y="708.0" type="line"/>
      <point x="392.0" y="1012.0" type="line"/>
      <point x="1102.0" y="1012.0" type="line"/>
      <point x="1062.0" y="708.0" type="line"/>
    </contour>
  </outline>
</glyph>
<glyph name="hbar" format="2">
  <advance width="1170.0"/>
  <unicode hex="0127"/>
  <note>
hbar
</note>
  <anchor x="512.0" y="0.0" name="bottom"/>
  <anchor x="642.0" y="984.0" name="center"/>
  <anchor x="370.0" y="1516.0" name="top"/>
  <outline>
    <contour>
      <point x="130.0" y="1262.0" type="line"/>
      <point x="698.0" y="1262.0" type="line"/>
      <point x="710.0" y="1360.0" type="line"/>
      <point x="142.0" y="1360.0" type="line"/>
    </contour>
    <component base="h"/>
  </outline>
</glyph>
<glyph name="Lcaron" format="2">
  <advance width="956.0"/>
  <unicode hex="013D"/>
  <note>
Lcaron
</note>
  <anchor x="484.0" y="0.0" name="bottom"/>
  <anchor x="504.0" y="748.0" name="center"/>
  <anchor x="386.0" y="1494.0" name="top"/>
  <anchor x="1040.0" y="1494.0" name="topright"/>
  <outline>
    <contour>
      <point x="854.0" y="952.0" type="line"/>
      <point x="924.0" y="1050.0"/>
      <point x="974.0" y="1216.0"/>
      <point x="980.0" y="1354.0" type="curve" smooth="yes"/>
      <point x="980.0" y="1434.0"/>
      <point x="980.0" y="1518.0"/>
      <point x="952.0" y="1578.0" type="curve"/>
      <point x="822.0" y="1544.0" type="line"/>
      <point x="816.0" y="1520.0" type="line"/>
      <point x="832.0" y="1494.0"/>
      <point x="844.0" y="1430.0"/>
      <point x="844.0" y="1352.0" type="curve" smooth="yes"/>
      <point x="844.0" y="1246.0"/>
      <point x="820.0" y="1130.0"/>
      <point x="774.0" y="1000.0" type="curve"/>
      <point x="778.0" y="980.0" type="line"/>
    </contour>
    <component base="L"/>
  </outline>
</glyph>
<glyph name="lcaron" format="2">
  <advance width="774.0"/>
  <unicode hex="013E"/>
  <note>
lcaron
</note>
  <anchor x="208.0" y="0.0" name="bottom"/>
  <anchor x="332.0" y="984.0" name="center"/>
  <anchor x="414.0" y="1556.0" name="top"/>
  <anchor x="634.0" y="1422.0" name="topright"/>
  <outline>
    <contour>
      <point x="724.0" y="992.0" type="line"/>
      <point x="794.0" y="1090.0"/>
      <point x="844.0" y="1256.0"/>
      <point x="850.0" y="1394.0" type="curve"/>
      <point x="850.0" y="1474.0"/>
      <point x="850.0" y="1558.0"/>
      <point x="822.0" y="1618.0" type="curve"/>
      <point x="692.0" y="1584.0" type="line"/>
      <point x="686.0" y="1560.0" type="line"/>
      <point x="702.0" y="1534.0"/>
      <point x="714.0" y="1470.0"/>
      <point x="714.0" y="1392.0" type="curve" smooth="yes"/>
      <point x="714.0" y="1286.0"/>
      <point x="690.0" y="1170.0"/>
      <point x="644.0" y="1040.0" type="curve"/>
      <point x="648.0" y="1020.0" type="line"/>
    </contour>
    <component base="l"/>
  </outline>
</glyph>
<glyph name="lslash" format="2">
  <advance width="263.0"/>
  <unicode hex="0142"/>
  <note>
lslash
</note>
  <outline>
    <contour>
      <point x="53.0" y="1.0" type="line"/>
      <point x="126.0" y="1.0" type="line"/>
      <point x="190.0" y="472.0" type="line"/>
      <point x="279.0" y="507.0" type="line"/>
      <point x="279.0" y="562.0" type="line"/>
      <point x="198.0" y="529.0" type="line"/>
      <point x="234.0" y="799.0" type="line"/>
      <point x="162.0" y="799.0" type="line"/>
      <point x="121.0" y="497.0" type="line"/>
      <point x="38.0" y="463.0" type="line"/>
      <point x="38.0" y="412.0" type="line"/>
      <point x="113.0" y="442.0" type="line"/>
    </contour>
  </outline>
</glyph>
<glyph name="Eng" format="2">
  <advance width="1364.0"/>
  <unicode hex="014A"/>
  <note>
Eng
</note>
  <outline>
    <contour>
      <point x="684.0" y="-308.0" type="line"/>
      <point x="910.0" y="-268.0"/>
      <point x="1076.0" y="-160.0"/>
      <point x="1110.0" y="0.0" type="curve" smooth="yes"/>
      <point x="1302.0" y="1494.0" type="line"/>
      <point x="1162.0" y="1494.0" type="line"/>
      <point x="1032.0" y="424.0" type="line"/>
      <point x="1010.0" y="192.0" type="line"/>
      <point x="940.0" y="394.0" type="line"/>
      <point x="460.0" y="1494.0" type="line"/>
      <point x="306.0" y="1494.0" type="line"/>
      <point x="118.0" y="0.0" type="line"/>
      <point x="256.0" y="0.0" type="line"/>
      <point x="386.0" y="1048.0" type="line"/>
      <point x="416.0" y="1330.0" type="line"/>
      <point x="486.0" y="1096.0" type="line"/>
      <point x="962.0" y="12.0" type="line"/>
      <point x="920.0" y="-102.0"/>
      <point x="804.0" y="-200.0"/>
      <point x="658.0" y="-242.0" type="curve"/>
    </contour>
  </outline>
</glyph>
<glyph name="eng" format="2">
  <advance width="1166.0"/>
  <unicode hex="014B"/>
  <note>
eng
</note>
  <outline>
    <contour>
      <point x="494.0" y="-506.0" type="curve" smooth="yes"/>
      <point x="716.0" y="-506.0"/>
      <point x="864.0" y="-336.0"/>
      <point x="918.0" y="0.0" type="curve" smooth="yes"/>
      <point x="950.0" y="194.0"/>
      <point x="972.0" y="358.0"/>
      <point x="1006.0" y="576.0" type="curve" smooth="yes"/>
      <point x="1022.0" y="694.0"/>
      <point x="1034.0" y="782.0"/>
      <point x="1036.0" y="842.0" type="curve" smooth="yes"/>
      <point x="1036.0" y="1042.0"/>
      <point x="966.0" y="1128.0"/>
      <point x="816.0" y="1128.0" type="curve" smooth="yes"/>
      <point x="658.0" y="1128.0"/>
      <point x="476.0" y="1010.0"/>
      <point x="350.0" y="852.0" type="curve"/>
      <point x="380.0" y="1114.0" type="line"/>
      <point x="242.0" y="1114.0" type="line"/>
      <point x="90.0" y="0.0" type="line"/>
      <point x="236.0" y="0.0" type="line"/>
      <point x="330.0" y="696.0" type="line"/>
      <point x="418.0" y="822.0"/>
      <point x="614.0" y="996.0"/>
      <point x="756.0" y="996.0" type="curve" smooth="yes"/>
      <point x="852.0" y="996.0"/>
      <point x="888.0" y="944.0"/>
      <point x="888.0" y="834.0" type="curve" smooth="yes"/>
      <point x="888.0" y="728.0"/>
      <point x="838.0" y="392.0"/>
      <point x="774.0" y="0.0" type="curve" smooth="yes"/>
      <point x="728.0" y="-280.0"/>
      <point x="650.0" y="-416.0"/>
      <point x="468.0" y="-416.0" type="curve" smooth="yes"/>
      <point x="444.0" y="-416.0"/>
      <point x="398.0" y="-410.0"/>
      <point x="376.0" y="-396.0" type="curve"/>
      <point x="350.0" y="-466.0" type="line"/>
      <point x="372.0" y="-490.0"/>
      <point x="430.0" y="-506.0"/>
    </contour>
  </outline>
</glyph>
<glyph name="OE" format="2">
  <advance width="2040.0"/>
  <unicode hex="0152"/>
  <note>
OE
</note>
  <outline>
    <contour>
      <point x="602.0" y="-16.0" type="curve" smooth="yes"/>
      <point x="820.0" y="-16.0"/>
      <point x="986.0" y="94.0"/>
      <point x="1106.0" y="300.0" type="curve"/>
      <point x="1066.0" y="0.0" type="line"/>
      <point x="1916.0" y="0.0" type="line"/>
      <point x="1926.0" y="124.0" type="line"/>
      <point x="1200.0" y="112.0" type="line"/>
      <point x="1272.0" y="710.0" type="line"/>
      <point x="1746.0" y="700.0" type="line"/>
      <point x="1754.0" y="824.0" type="line"/>
      <point x="1286.0" y="818.0" type="line"/>
      <point x="1354.0" y="1384.0" type="line"/>
      <point x="1968.0" y="1376.0" type="line"/>
      <point x="1974.0" y="1494.0" type="line"/>
      <point x="1248.0" y="1494.0" type="line"/>
      <point x="1212.0" y="1154.0" type="line"/>
      <point x="1166.0" y="1376.0"/>
      <point x="1026.0" y="1510.0"/>
      <point x="804.0" y="1510.0" type="curve" smooth="yes"/>
      <point x="384.0" y="1510.0"/>
      <point x="116.0" y="1094.0"/>
      <point x="116.0" y="624.0" type="curve" smooth="yes"/>
      <point x="116.0" y="272.0"/>
      <point x="276.0" y="-16.0"/>
    </contour>
    <contour>
      <point x="626.0" y="96.0" type="curve" smooth="yes"/>
      <point x="392.0" y="96.0"/>
      <point x="268.0" y="278.0"/>
      <point x="268.0" y="644.0" type="curve" smooth="yes"/>
      <point x="268.0" y="1010.0"/>
      <point x="462.0" y="1394.0"/>
      <point x="782.0" y="1394.0" type="curve" smooth="yes"/>
      <point x="1008.0" y="1394.0"/>
      <point x="1122.0" y="1212.0"/>
      <point x="1122.0" y="848.0" type="curve" smooth="yes"/>
      <point x="1122.0" y="476.0"/>
      <point x="950.0" y="96.0"/>
    </contour>
  </outline>
</glyph>
<glyph name="tcaron" format="2">
  <advance width="722.0"/>
  <unicode hex="0165"/>
  <note>
tcaron
</note>
  <anchor x="278.0" y="0.0" name="bottom"/>
  <anchor x="352.0" y="558.0" name="center"/>
  <anchor x="400.0" y="1316.0" name="top"/>
  <anchor x="746.0" y="1114.0" name="topright"/>
  <outline>
    <contour>
      <point x="714.0" y="1220.0" type="line"/>
      <point x="784.0" y="1318.0"/>
      <point x="834.0" y="1484.0"/>
      <point x="840.0" y="1622.0" type="curve"/>
      <point x="840.0" y="1702.0"/>
      <point x="840.0" y="1786.0"/>
      <point x="812.0" y="1846.0" type="curve"/>
      <point x="682.0" y="1812.0" type="line"/>
      <point x="676.0" y="1788.0" type="line"/>
      <point x="692.0" y="1762.0"/>
      <point x="704.0" y="1698.0"/>
      <point x="704.0" y="1620.0" type="curve" smooth="yes"/>
      <point x="704.0" y="1514.0"/>
      <point x="680.0" y="1398.0"/>
      <point x="634.0" y="1268.0" type="curve"/>
      <point x="638.0" y="1248.0" type="line"/>
    </contour>
    <component base="t"/>
  </outline>
</glyph>
<glyph name="Tbar" format="2">
  <advance width="1096.0"/>
  <unicode hex="0166"/>
  <note>
Tbar
</note>
  <outline>
    <contour>
      <point x="400.0" y="0.0" type="line"/>
      <point x="546.0" y="0.0" type="line"/>
      <point x="636.0" y="716.0" type="line"/>
      <point x="938.0" y="716.0" type="line"/>
      <point x="952.0" y="814.0" type="line"/>
      <point x="650.0" y="814.0" type="line"/>
      <point x="722.0" y="1386.0" type="line"/>
      <point x="1154.0" y="1376.0" type="line"/>
      <point x="1170.0" y="1494.0" type="line"/>
      <point x="152.0" y="1494.0" type="line"/>
      <point x="134.0" y="1376.0" type="line"/>
      <point x="576.0" y="1386.0" type="line"/>
      <point x="502.0" y="814.0" type="line"/>
      <point x="226.0" y="814.0" type="line"/>
      <point x="214.0" y="716.0" type="line"/>
      <point x="490.0" y="716.0" type="line"/>
    </contour>
  </outline>
</glyph>
<glyph name="tbar" format="2">
  <advance width="722.0"/>
  <unicode hex="0167"/>
  <note>
tbar
</note>
  <anchor x="278.0" y="0.0" name="bottom"/>
  <anchor x="352.0" y="558.0" name="center"/>
  <anchor x="400.0" y="1316.0" name="top"/>
  <anchor x="746.0" y="1114.0" name="topright"/>
  <outline>
    <contour>
      <point x="660.0" y="738.0" type="line"/>
      <point x="98.0" y="738.0" type="line"/>
      <point x="86.0" y="628.0" type="line"/>
      <point x="648.0" y="628.0" type="line"/>
    </contour>
    <component base="t"/>
  </outline>
</glyph>
<glyph name="Schwa" format="2">
  <advance width="656.0"/>
  <unicode hex="018F"/>
  <anchor x="260.0" y="0.0" name="bottom"/>
  <anchor x="358.0" y="747.0" name="top"/>
  <outline>
    <contour>
      <point x="290.0" y="-8.0" type="curve" smooth="yes"/>
      <point x="500.0" y="-8.0"/>
      <point x="626.0" y="199.0"/>
      <point x="626.0" y="436.0" type="curve" smooth="yes"/>
      <point x="626.0" y="606.0"/>
      <point x="555.0" y="755.0"/>
      <point x="336.0" y="755.0" type="curve" smooth="yes"/>
      <point x="262.0" y="755.0"/>
      <point x="188.0" y="739.0"/>
      <point x="150.0" y="722.0" type="curve"/>
      <point x="157.0" y="655.0" type="line"/>
      <point x="198.0" y="676.0"/>
      <point x="261.0" y="694.0"/>
      <point x="321.0" y="695.0" type="curve" smooth="yes"/>
      <point x="496.0" y="697.0"/>
      <point x="549.0" y="603.0"/>
      <point x="549.0" y="422.0" type="curve" smooth="yes"/>
      <point x="549.0" y="238.0"/>
      <point x="463.0" y="48.0"/>
      <point x="302.0" y="48.0" type="curve" smooth="yes"/>
      <point x="185.0" y="48.0"/>
      <point x="107.0" y="156.0"/>
      <point x="129.0" y="338.0" type="curve"/>
      <point x="562.0" y="338.0" type="line"/>
      <point x="569.0" y="397.0" type="line"/>
      <point x="69.0" y="397.0" type="line"/>
      <point x="66.0" y="385.0"/>
      <point x="54.0" y="353.0"/>
      <point x="54.0" y="296.0" type="curve" smooth="yes"/>
      <point x="54.0" y="136.0"/>
      <point x="129.0" y="-8.0"/>
    </contour>
  </outline>
</glyph>
<glyph name="Ezh" format="2">
  <advance width="508.0"/>
  <unicode hex="01B7"/>
  <anchor x="337.0" y="747.0" name="top"/>
  <outline>
    <contour>
      <point x="166.0" y="-7.0" type="curve" smooth="yes"/>
      <point x="376.0" y="-4.0"/>
      <point x="480.0" y="108.0"/>
      <point x="480.0" y="249.0" type="curve" smooth="yes"/>
      <point x="480.0" y="348.0"/>
      <point x="382.0" y="438.0"/>
      <point x="258.0" y="426.0" type="curve"/>
      <point x="519.0" y="670.0" type="line"/>
      <point x="532.0" y="748.0" type="line"/>
      <point x="109.0" y="747.0" type="line"/>
      <point x="101.0" y="688.0" type="line"/>
      <point x="465.0" y="692.0" type="line"/>
      <point x="395.0" y="637.0" type="line"/>
      <point x="155.0" y="406.0" type="line"/>
      <point x="147.0" y="333.0" type="line"/>
      <point x="211.0" y="378.0" type="line"/>
      <point x="334.0" y="389.0"/>
      <point x="408.0" y="327.0"/>
      <point x="408.0" y="236.0" type="curve" smooth="yes"/>
      <point x="408.0" y="149.0"/>
      <point x="326.0" y="50.0"/>
      <point x="163.0" y="50.0" type="curve" smooth="yes"/>
      <point x="122.0" y="50.0"/>
      <point x="78.0" y="52.0"/>
      <point x="50.0" y="58.0" type="curve"/>
      <point x="42.0" y="5.0" type="line"/>
      <point x="77.0" y="-3.0"/>
      <point x="107.0" y="-8.0"/>
    </contour>
  </outline>
</glyph>
<glyph name="jdotless" format="2">
  <advance width="562.0"/>
  <unicode hex="0237"/>
  <note>
uni0237
</note>
  <anchor x="136.0" y="-546.0" name="bottom"/>
  <anchor x="368.0" y="1114.0" name="top"/>
  <outline>
    <contour>
      <point x="-106.0" y="-502.0" type="curve" smooth="yes"/>
      <point x="104.0" y="-502.0"/>
      <point x="242.0" y="-318.0"/>
      <point x="284.0" y="4.0" type="curve" smooth="yes"/>
      <point x="434.0" y="1118.0" type="line"/>
      <point x="288.0" y="1118.0" type="line"/>
      <point x="146.0" y="58.0" type="line" smooth="yes"/>
      <point x="114.0" y="-192.0"/>
      <point x="62.0" y="-402.0"/>
      <point x="-126.0" y="-402.0" type="curve" smooth="yes"/>
      <point x="-152.0" y="-402.0"/>
      <point x="-186.0" y="-392.0"/>
      <point x="-200.0" y="-382.0" type="curve"/>
      <point x="-238.0" y="-466.0" type="line"/>
      <point x="-212.0" y="-488.0"/>
      <point x="-164.0" y="-502.0"/>
    </contour>
  </outline>
</glyph>
<glyph name="schwa" format="2">
  <advance width="503.0"/>
  <unicode hex="0259"/>
  <anchor x="174.0" y="0.0" name="bottom"/>
  <anchor x="185.0" y="547.0" name="ogonek"/>
  <anchor x="258.0" y="557.0" name="top"/>
  <outline>
    <contour>
      <point x="269.0" y="565.0" type="curve" smooth="yes"/>
      <point x="203.0" y="565.0"/>
      <point x="100.0" y="507.0"/>
      <point x="70.0" y="466.0" type="curve"/>
      <point x="91.0" y="424.0" type="line"/>
      <point x="144.0" y="479.0"/>
      <point x="206.0" y="507.0"/>
      <point x="261.0" y="507.0" type="curve" smooth="yes"/>
      <point x="349.0" y="507.0"/>
      <point x="383.0" y="441.0"/>
      <point x="383.0" y="357.0" type="curve" smooth="yes"/>
      <point x="383.0" y="350.0"/>
      <point x="383.0" y="344.0"/>
      <point x="382.0" y="341.0" type="curve"/>
      <point x="206.0" y="323.0"/>
      <point x="35.0" y="248.0"/>
      <point x="35.0" y="115.0" type="curve" smooth="yes"/>
      <point x="35.0" y="38.0"/>
      <point x="98.0" y="-7.0"/>
      <point x="171.0" y="-7.0" type="curve" smooth="yes"/>
      <point x="280.0" y="-7.0"/>
      <point x="369.0" y="58.0"/>
      <point x="419.0" y="164.0" type="curve" smooth="yes"/>
      <point x="444.0" y="217.0"/>
      <point x="458.0" y="277.0"/>
      <point x="459.0" y="342.0" type="curve" smooth="yes"/>
      <point x="462.0" y="419.0"/>
      <point x="436.0" y="490.0"/>
      <point x="379.0" y="533.0" type="curve" smooth="yes"/>
      <point x="350.0" y="554.0"/>
      <point x="314.0" y="565.0"/>
    </contour>
    <contour>
      <point x="380.0" y="288.0" type="curve"/>
      <point x="373.0" y="212.0"/>
      <point x="337.0" y="131.0"/>
      <point x="280.0" y="83.0" type="curve" smooth="yes"/>
      <point x="252.0" y="60.0"/>
      <point x="221.0" y="48.0"/>
      <point x="187.0" y="48.0" type="curve" smooth="yes"/>
      <point x="136.0" y="48.0"/>
      <point x="107.0" y="72.0"/>
      <point x="107.0" y="121.0" type="curve" smooth="yes"/>
      <point x="107.0" y="220.0"/>
      <point x="264.0" y="285.0"/>
    </contour>
  </outline>
</glyph>
<glyph name="ezh" format="2">
  <advance width="900.0"/>
  <unicode hex="0292"/>
  <anchor x="356.0" y="0.0" name="bottom"/>
  <anchor x="430.0" y="558.0" name="center"/>
  <anchor x="516.0" y="1114.0" name="top"/>
  <outline>
    <contour>
      <point x="190.0" y="-294.0" type="curve" smooth="yes"/>
      <point x="546.0" y="-294.0"/>
      <point x="796.0" y="-94.0"/>
      <point x="796.0" y="202.0" type="curve" smooth="yes"/>
      <point x="796.0" y="374.0"/>
      <point x="660.0" y="502.0"/>
      <point x="450.0" y="502.0" type="curve"/>
      <point x="892.0" y="1052.0" type="line"/>
      <point x="860.0" y="1114.0" type="line"/>
      <point x="158.0" y="1114.0" type="line"/>
      <point x="140.0" y="998.0" type="line"/>
      <point x="710.0" y="998.0" type="line"/>
      <point x="540.0" y="806.0" type="line"/>
      <point x="282.0" y="482.0" type="line"/>
      <point x="368.0" y="408.0" type="line"/>
      <point x="530.0" y="420.0"/>
      <point x="642.0" y="352.0"/>
      <point x="642.0" y="180.0" type="curve" smooth="yes"/>
      <point x="642.0" y="-48.0"/>
      <point x="448.0" y="-182.0"/>
      <point x="176.0" y="-182.0" type="curve" smooth="yes"/>
      <point x="110.0" y="-182.0"/>
      <point x="60.0" y="-182.0"/>
      <point x="4.0" y="-172.0" type="curve"/>
      <point x="-10.0" y="-286.0" type="line"/>
      <point x="56.0" y="-288.0"/>
      <point x="120.0" y="-294.0"/>
    </contour>
  </outline>
</glyph>
<glyph name="circumflex" format="2">
  <advance width="776.0"/>
  <unicode hex="02C6"/>
  <note>
circumflex
</note>
  <outline>
    <contour>
      <point x="152.0" y="1246.0" type="line"/>
      <point x="478.0" y="1538.0" type="line"/>
      <point x="690.0" y="1250.0" type="line"/>
      <point x="762.0" y="1302.0" type="line"/>
      <point x="564.0" y="1670.0" type="line"/>
      <point x="430.0" y="1670.0" type="line"/>
      <point x="94.0" y="1302.0" type="line"/>
    </contour>
  </outline>
</glyph>
<glyph name="dotaccent" format="2">
  <advance width="378.0"/>
  <unicode hex="02D9"/>
  <note>
dotaccent
</note>
  <outline>
    <contour>
      <point x="144.0" y="1372.0" type="curve" smooth="yes"/>
      <point x="204.0" y="1372.0"/>
      <point x="258.0" y="1430.0"/>
      <point x="258.0" y="1496.0" type="curve" smooth="yes"/>
      <point x="258.0" y="1546.0"/>
      <point x="222.0" y="1582.0"/>
      <point x="168.0" y="1582.0" type="curve" smooth="yes"/>
      <point x="110.0" y="1582.0"/>
      <point x="60.0" y="1526.0"/>
      <point x="60.0" y="1462.0" type="curve" smooth="yes"/>
      <point x="60.0" y="1408.0"/>
      <point x="96.0" y="1372.0"/>
    </contour>
  </outline>
</glyph>
<glyph name="ring" format="2">
  <advance width="706.0"/>
  <unicode hex="02DA"/>
  <note>
ring
</note>
  <outline>
    <contour>
      <point x="370.0" y="1228.0" type="curve" smooth="yes"/>
      <point x="488.0" y="1228.0"/>
      <point x="590.0" y="1268.0"/>
      <point x="650.0" y="1348.0" type="curve" smooth="yes"/>
      <point x="680.0" y="1388.0"/>
      <point x="694.0" y="1438.0"/>
      <point x="694.0" y="1496.0" type="curve" smooth="yes"/>
      <point x="694.0" y="1648.0"/>
      <point x="592.0" y="1740.0"/>
      <point x="430.0" y="1740.0" type="curve" smooth="yes"/>
      <point x="324.0" y="1740.0"/>
      <point x="212.0" y="1698.0"/>
      <point x="146.0" y="1618.0" type="curve" smooth="yes"/>
      <point x="112.0" y="1576.0"/>
      <point x="96.0" y="1528.0"/>
      <point x="96.0" y="1470.0" type="curve" smooth="yes"/>
      <point x="96.0" y="1318.0"/>
      <point x="196.0" y="1228.0"/>
    </contour>
    <contour>
      <point x="376.0" y="1310.0" type="curve" smooth="yes"/>
      <point x="276.0" y="1310.0"/>
      <point x="202.0" y="1374.0"/>
      <point x="202.0" y="1464.0" type="curve" smooth="yes"/>
      <point x="202.0" y="1600.0"/>
      <point x="300.0" y="1658.0"/>
      <point x="418.0" y="1658.0" type="curve" smooth="yes"/>
      <point x="522.0" y="1658.0"/>
      <point x="588.0" y="1598.0"/>
      <point x="588.0" y="1508.0" type="curve" smooth="yes"/>
      <point x="588.0" y="1366.0"/>
      <point x="498.0" y="1310.0"/>
    </contour>
  </outline>
</glyph>
<glyph name="ogonek" format="2">
  <advance width="476.0"/>
  <unicode hex="02DB"/>
  <note>
ogonek
</note>
  <outline>
    <contour>
      <point x="196.0" y="-420.0" type="curve" smooth="yes"/>
      <point x="298.0" y="-420.0"/>
      <point x="366.0" y="-378.0"/>
      <point x="420.0" y="-328.0" type="curve"/>
      <point x="382.0" y="-252.0" type="line"/>
      <point x="332.0" y="-290.0"/>
      <point x="282.0" y="-310.0"/>
      <point x="228.0" y="-310.0" type="curve" smooth="yes"/>
      <point x="186.0" y="-310.0"/>
      <point x="154.0" y="-288.0"/>
      <point x="154.0" y="-240.0" type="curve" smooth="yes"/>
      <point x="154.0" y="-162.0"/>
      <point x="256.0" y="-80.0"/>
      <point x="378.0" y="0.0" type="curve"/>
      <point x="334.0" y="44.0" type="line"/>
      <point x="258.0" y="0.0" type="line" smooth="yes"/>
      <point x="128.0" y="-74.0"/>
      <point x="10.0" y="-166.0"/>
      <point x="10.0" y="-284.0" type="curve" smooth="yes"/>
      <point x="10.0" y="-358.0"/>
      <point x="88.0" y="-420.0"/>
    </contour>
  </outline>
</glyph>
<glyph name="tilde" format="2">
  <advance width="760.0"/>
  <unicode hex="02DC"/>
  <note>
tilde
</note>
  <anchor x="452.0" y="1114.0" name="_top"/>
  <anchor x="502.0" y="1502.0" name="top"/>
  <outline>
    <contour>
      <point x="624.0" y="1270.0" type="curve" smooth="yes"/>
      <point x="716.0" y="1270.0"/>
      <point x="812.0" y="1346.0"/>
      <point x="836.0" y="1438.0" type="curve"/>
      <point x="778.0" y="1506.0" type="line"/>
      <point x="756.0" y="1472.0"/>
      <point x="710.0" y="1392.0"/>
      <point x="640.0" y="1392.0" type="curve" smooth="yes"/>
      <point x="602.0" y="1392.0"/>
      <point x="580.0" y="1412.0"/>
      <point x="538.0" y="1452.0" type="curve" smooth="yes"/>
      <point x="484.0" y="1504.0"/>
      <point x="432.0" y="1532.0"/>
      <point x="368.0" y="1532.0" type="curve" smooth="yes"/>
      <point x="274.0" y="1532.0"/>
      <point x="188.0" y="1454.0"/>
      <point x="148.0" y="1370.0" type="curve"/>
      <point x="210.0" y="1306.0" type="line"/>
      <point x="248.0" y="1366.0"/>
      <point x="296.0" y="1412.0"/>
      <point x="350.0" y="1412.0" type="curve" smooth="yes"/>
      <point x="394.0" y="1412.0"/>
      <point x="416.0" y="1392.0"/>
      <point x="458.0" y="1350.0" type="curve" smooth="yes"/>
      <point x="502.0" y="1306.0"/>
      <point x="558.0" y="1270.0"/>
    </contour>
  </outline>
</glyph>
<glyph name="circumflexcomb" format="2">
  <unicode hex="0302"/>
  <note>
circumflex
</note>
  <anchor x="37.0" y="557.0" name="_top"/>
  <anchor x="67.0" y="788.0" name="top"/>
  <outline>
    <contour>
      <point x="-103.0" y="620.0" type="line"/>
      <point x="60.0" y="766.0" type="line"/>
      <point x="166.0" y="622.0" type="line"/>
      <point x="202.0" y="648.0" type="line"/>
      <point x="103.0" y="832.0" type="line"/>
      <point x="36.0" y="832.0" type="line"/>
      <point x="-132.0" y="648.0" type="line"/>
    </contour>
  </outline>
</glyph>
<glyph name="tildecomb" format="2">
  <unicode hex="0303"/>
  <note>
tilde
</note>
  <anchor x="37.0" y="557.0" name="_top"/>
  <anchor x="60.0" y="731.0" name="top"/>
  <outline>
    <contour>
      <point x="113.0" y="633.0" type="curve" smooth="yes"/>
      <point x="159.0" y="633.0"/>
      <point x="207.0" y="671.0"/>
      <point x="219.0" y="717.0" type="curve"/>
      <point x="190.0" y="751.0" type="line"/>
      <point x="179.0" y="734.0"/>
      <point x="156.0" y="694.0"/>
      <point x="121.0" y="694.0" type="curve" smooth="yes"/>
      <point x="102.0" y="694.0"/>
      <point x="91.0" y="704.0"/>
      <point x="70.0" y="724.0" type="curve" smooth="yes"/>
      <point x="43.0" y="750.0"/>
      <point x="17.0" y="764.0"/>
      <point x="-15.0" y="764.0" type="curve" smooth="yes"/>
      <point x="-62.0" y="764.0"/>
      <point x="-105.0" y="725.0"/>
      <point x="-125.0" y="683.0" type="curve"/>
      <point x="-94.0" y="651.0" type="line"/>
      <point x="-75.0" y="681.0"/>
      <point x="-51.0" y="704.0"/>
      <point x="-24.0" y="704.0" type="curve" smooth="yes"/>
      <point x="-2.0" y="704.0"/>
      <point x="9.0" y="694.0"/>
      <point x="30.0" y="673.0" type="curve" smooth="yes"/>
      <point x="52.0" y="651.0"/>
      <point x="80.0" y="633.0"/>
    </contour>
  </outline>
</glyph>
<glyph name="macroncomb" format="2">
  <unicode hex="0304"/>
  <note>
macron
</note>
  <anchor x="74.0" y="1114.0" name="_top"/>
  <anchor x="114.0" y="1400.0" name="top"/>
  <outline>
    <contour>
      <point x="-144.0" y="1332.0" type="line"/>
      <point x="356.0" y="1332.0" type="line"/>
      <point x="368.0" y="1444.0" type="line"/>
      <point x="-132.0" y="1444.0" type="line"/>
    </contour>
  </outline>
</glyph>
<glyph name="brevecomb" format="2">
  <unicode hex="0306"/>
  <note>
breve
</note>
  <anchor x="74.0" y="1114.0" name="_top"/>
  <anchor x="134.0" y="1576.0" name="top"/>
  <outline>
    <contour>
      <point x="90.0" y="1264.0" type="curve" smooth="yes"/>
      <point x="280.0" y="1264.0"/>
      <point x="416.0" y="1412.0"/>
      <point x="416.0" y="1600.0" type="curve"/>
      <point x="318.0" y="1600.0" type="line"/>
      <point x="302.0" y="1494.0"/>
      <point x="242.0" y="1374.0"/>
      <point x="94.0" y="1374.0" type="curve" smooth="yes"/>
      <point x="-48.0" y="1374.0"/>
      <point x="-86.0" y="1478.0"/>
      <point x="-86.0" y="1600.0" type="curve"/>
      <point x="-186.0" y="1600.0" type="line"/>
      <point x="-212.0" y="1430.0"/>
      <point x="-104.0" y="1264.0"/>
    </contour>
  </outline>
</glyph>
<glyph name="dieresiscomb" format="2">
  <unicode hex="0308"/>
  <note>
dieresis
</note>
  <anchor x="37.0" y="557.0" name="_top"/>
  <anchor x="60.0" y="730.0" name="top"/>
  <outline>
    <contour>
      <point x="-56.0" y="662.0" type="curve" smooth="yes"/>
      <point x="-24.0" y="662.0"/>
      <point x="2.0" y="689.0"/>
      <point x="2.0" y="724.0" type="curve" smooth="yes"/>
      <point x="2.0" y="749.0"/>
      <point x="-16.0" y="766.0"/>
      <point x="-43.0" y="766.0" type="curve" smooth="yes"/>
      <point x="-72.0" y="766.0"/>
      <point x="-98.0" y="738.0"/>
      <point x="-98.0" y="706.0" type="curve" smooth="yes"/>
      <point x="-98.0" y="681.0"/>
      <point x="-79.0" y="662.0"/>
    </contour>
    <contour>
      <point x="150.0" y="662.0" type="curve" smooth="yes"/>
      <point x="181.0" y="662.0"/>
      <point x="207.0" y="689.0"/>
      <point x="207.0" y="724.0" type="curve" smooth="yes"/>
      <point x="207.0" y="749.0"/>
      <point x="190.0" y="766.0"/>
      <point x="163.0" y="766.0" type="curve" smooth="yes"/>
      <point x="132.0" y="766.0"/>
      <point x="108.0" y="739.0"/>
      <point x="108.0" y="706.0" type="curve" smooth="yes"/>
      <point x="108.0" y="681.0"/>
      <point x="126.0" y="662.0"/>
    </contour>
  </outline>
</glyph>
<glyph name="ringcomb" format="2">
  <unicode hex="030A"/>
  <note>
ring
</note>
  <anchor x="74.0" y="1114.0" name="_top"/>
  <anchor x="240.0" y="1470.0" name="top"/>
  <outline>
    <contour>
      <point x="96.0" y="1228.0" type="curve" smooth="yes"/>
      <point x="214.0" y="1228.0"/>
      <point x="316.0" y="1268.0"/>
      <point x="376.0" y="1348.0" type="curve" smooth="yes"/>
      <point x="406.0" y="1388.0"/>
      <point x="420.0" y="1438.0"/>
      <point x="420.0" y="1496.0" type="curve" smooth="yes"/>
      <point x="420.0" y="1648.0"/>
      <point x="318.0" y="1740.0"/>
      <point x="156.0" y="1740.0" type="curve" smooth="yes"/>
      <point x="50.0" y="1740.0"/>
      <point x="-62.0" y="1698.0"/>
      <point x="-128.0" y="1618.0" type="curve" smooth="yes"/>
      <point x="-162.0" y="1576.0"/>
      <point x="-178.0" y="1528.0"/>
      <point x="-178.0" y="1470.0" type="curve" smooth="yes"/>
      <point x="-178.0" y="1318.0"/>
      <point x="-78.0" y="1228.0"/>
    </contour>
    <contour>
      <point x="102.0" y="1310.0" type="curve" smooth="yes"/>
      <point x="2.0" y="1310.0"/>
      <point x="-72.0" y="1374.0"/>
      <point x="-72.0" y="1464.0" type="curve" smooth="yes"/>
      <point x="-72.0" y="1600.0"/>
      <point x="26.0" y="1658.0"/>
      <point x="144.0" y="1658.0" type="curve" smooth="yes"/>
      <point x="248.0" y="1658.0"/>
      <point x="314.0" y="1598.0"/>
      <point x="314.0" y="1508.0" type="curve" smooth="yes"/>
      <point x="314.0" y="1366.0"/>
      <point x="224.0" y="1310.0"/>
    </contour>
  </outline>
</glyph>
<glyph name="dblgravecomb" format="2">
  <unicode hex="030F"/>
  <anchor x="74.0" y="1114.0" name="_top"/>
  <anchor x="136.0" y="1578.0" name="top"/>
  <outline>
    <contour>
      <point x="-78.0" y="1280.0" type="curve"/>
      <point x="-14.0" y="1318.0" type="line"/>
      <point x="-258.0" y="1712.0" type="line"/>
      <point x="-356.0" y="1640.0" type="line"/>
      <point x="-316.0" y="1554.0"/>
      <point x="-158.0" y="1344.0"/>
    </contour>
    <contour>
      <point x="340.0" y="1280.0" type="curve"/>
      <point x="402.0" y="1318.0" type="line"/>
      <point x="170.0" y="1712.0" type="line"/>
      <point x="68.0" y="1640.0" type="line"/>
      <point x="122.0" y="1526.0"/>
      <point x="254.0" y="1350.0"/>
    </contour>
  </outline>
</glyph>
<glyph name="breveinvertedcomb" format="2">
  <unicode hex="0311"/>
  <note>
breve
</note>
  <anchor x="74.0" y="1114.0" name="_top"/>
  <anchor x="136.0" y="1578.0" name="top"/>
  <outline>
    <contour>
      <point x="104.0" y="1632.0" type="curve" smooth="yes"/>
      <point x="-66.0" y="1632.0"/>
      <point x="-222.0" y="1484.0"/>
      <point x="-222.0" y="1296.0" type="curve"/>
      <point x="-124.0" y="1296.0" type="line"/>
      <point x="-108.0" y="1402.0"/>
      <point x="-28.0" y="1522.0"/>
      <point x="100.0" y="1522.0" type="curve" smooth="yes"/>
      <point x="222.0" y="1522.0"/>
      <point x="292.0" y="1418.0"/>
      <point x="292.0" y="1296.0" type="curve"/>
      <point x="392.0" y="1296.0" type="line"/>
      <point x="418.0" y="1466.0"/>
      <point x="278.0" y="1632.0"/>
    </contour>
  </outline>
</glyph>
<glyph name="commaturnedabovecomb" format="2">
  <unicode hex="0312"/>
  <note>
uni0326
</note>
  <anchor x="74.0" y="1114.0" name="_top"/>
  <anchor x="134.0" y="1576.0" name="top"/>
  <outline>
    <contour>
      <point x="134.0" y="1784.0" type="line"/>
      <point x="34.0" y="1718.0"/>
      <point x="-14.0" y="1638.0"/>
      <point x="-14.0" y="1520.0" type="curve" smooth="yes"/>
      <point x="-14.0" y="1424.0"/>
      <point x="28.0" y="1360.0"/>
      <point x="102.0" y="1310.0" type="curve"/>
      <point x="210.0" y="1394.0" type="line"/>
      <point x="214.0" y="1436.0" type="line"/>
      <point x="172.0" y="1452.0"/>
      <point x="142.0" y="1506.0"/>
      <point x="142.0" y="1562.0" type="curve" smooth="yes"/>
      <point x="142.0" y="1610.0"/>
      <point x="144.0" y="1672.0"/>
      <point x="200.0" y="1712.0" type="curve"/>
      <point x="202.0" y="1732.0" type="line"/>
    </contour>
  </outline>
</glyph>
<glyph name="dieresisbelowcomb" format="2">
  <unicode hex="0324"/>
  <anchor x="0.0" y="0.0" name="_bottom"/>
  <anchor x="-52.0" y="-398.0" name="bottom"/>
  <outline>
    <contour>
      <point x="-264.0" y="-432.0" type="curve" smooth="yes"/>
      <point x="-200.0" y="-432.0"/>
      <point x="-148.0" y="-378.0"/>
      <point x="-148.0" y="-308.0" type="curve" smooth="yes"/>
      <point x="-148.0" y="-258.0"/>
      <point x="-184.0" y="-224.0"/>
      <point x="-238.0" y="-224.0" type="curve" smooth="yes"/>
      <point x="-296.0" y="-224.0"/>
      <point x="-348.0" y="-280.0"/>
      <point x="-348.0" y="-344.0" type="curve" smooth="yes"/>
      <point x="-348.0" y="-394.0"/>
      <point x="-310.0" y="-432.0"/>
    </contour>
    <contour>
      <point x="148.0" y="-432.0" type="curve" smooth="yes"/>
      <point x="210.0" y="-432.0"/>
      <point x="262.0" y="-378.0"/>
      <point x="262.0" y="-308.0" type="curve" smooth="yes"/>
      <point x="262.0" y="-258.0"/>
      <point x="228.0" y="-224.0"/>
      <point x="174.0" y="-224.0" type="curve" smooth="yes"/>
      <point x="112.0" y="-224.0"/>
      <point x="64.0" y="-278.0"/>
      <point x="64.0" y="-344.0" type="curve" smooth="yes"/>
      <point x="64.0" y="-394.0"/>
      <point x="100.0" y="-432.0"/>
    </contour>
  </outline>
</glyph>
<glyph name="commaaccentcomb" format="2">
  <unicode hex="0326"/>
  <note>
uni0326
</note>
  <anchor x="0.0" y="0.0" name="_bottom"/>
  <anchor x="-26.0" y="-199.0" name="bottom"/>
  <outline>
    <contour>
      <point x="-46.0" y="-329.0" type="line"/>
      <point x="-6.0" y="-318.0"/>
      <point x="36.0" y="-256.0"/>
      <point x="36.0" y="-187.0" type="curve" smooth="yes"/>
      <point x="36.0" y="-150.0"/>
      <point x="17.0" y="-104.0"/>
      <point x="-19.0" y="-92.0" type="curve"/>
      <point x="-72.0" y="-132.0" type="line"/>
      <point x="-74.0" y="-152.0" type="line"/>
      <point x="-54.0" y="-160.0"/>
      <point x="-42.0" y="-186.0"/>
      <point x="-42.0" y="-213.0" type="curve" smooth="yes"/>
      <point x="-42.0" y="-246.0"/>
      <point x="-55.0" y="-277.0"/>
      <point x="-82.0" y="-296.0" type="curve"/>
      <point x="-83.0" y="-305.0" type="line"/>
    </contour>
  </outline>
</glyph>
<glyph name="slashshortcomb" format="2">
  <unicode hex="0337"/>
  <outline>
    <contour>
      <point x="322.0" y="1110.0" type="line"/>
      <point x="-440.0" y="-202.0" type="line"/>
      <point x="-318.0" y="-202.0" type="line"/>
      <point x="440.0" y="1110.0" type="line"/>
    </contour>
  </outline>
</glyph>
<glyph name="pi" format="2">
  <advance width="1520.0"/>
  <unicode hex="03C0"/>
  <note>
pi
</note>
  <outline>
    <contour>
      <point x="216.0" y="-22.0" type="line"/>
      <point x="276.0" y="-8.0"/>
      <point x="324.0" y="14.0"/>
      <point x="360.0" y="44.0" type="curve" smooth="yes"/>
      <point x="434.0" y="110.0"/>
      <point x="508.0" y="264.0"/>
      <point x="522.0" y="420.0" type="curve" smooth="yes"/>
      <point x="606.0" y="978.0" type="line"/>
      <point x="956.0" y="978.0" type="line"/>
      <point x="940.0" y="890.0"/>
      <point x="838.0" y="192.0"/>
      <point x="838.0" y="164.0" type="curve" smooth="yes"/>
      <point x="838.0" y="50.0"/>
      <point x="902.0" y="-16.0"/>
      <point x="1020.0" y="-16.0" type="curve" smooth="yes"/>
      <point x="1142.0" y="-16.0"/>
      <point x="1318.0" y="138.0"/>
      <point x="1340.0" y="250.0" type="curve"/>
      <point x="1258.0" y="286.0" type="line"/>
      <point x="1226.0" y="196.0"/>
      <point x="1136.0" y="112.0"/>
      <point x="1066.0" y="112.0" type="curve" smooth="yes"/>
      <point x="1014.0" y="112.0"/>
      <point x="988.0" y="142.0"/>
      <point x="988.0" y="200.0" type="curve"/>
      <point x="1000.0" y="264.0"/>
      <point x="1044.0" y="628.0"/>
      <point x="1090.0" y="978.0" type="curve"/>
      <point x="1294.0" y="978.0"/>
      <point x="1376.0" y="1018.0"/>
      <point x="1392.0" y="1186.0" type="curve"/>
      <point x="1286.0" y="1186.0" type="line"/>
      <point x="1268.0" y="1132.0"/>
      <point x="1228.0" y="1116.0"/>
      <point x="1138.0" y="1116.0" type="curve" smooth="yes"/>
      <point x="424.0" y="1116.0" type="line" smooth="yes"/>
      <point x="234.0" y="1116.0"/>
      <point x="132.0" y="1050.0"/>
      <point x="98.0" y="898.0" type="curve"/>
      <point x="182.0" y="858.0" type="line"/>
      <point x="216.0" y="932.0"/>
      <point x="290.0" y="978.0"/>
      <point x="402.0" y="978.0" type="curve" smooth="yes"/>
      <point x="470.0" y="978.0" type="line"/>
      <point x="380.0" y="464.0" type="line"/>
      <point x="360.0" y="308.0"/>
      <point x="340.0" y="200.0"/>
      <point x="240.0" y="126.0" type="curve"/>
      <point x="198.0" y="96.0"/>
      <point x="148.0" y="74.0"/>
      <point x="118.0" y="68.0" type="curve"/>
    </contour>
  </outline>
</glyph>
<glyph name="dram-arm" format="2">
  <advance width="1540.0"/>
  <unicode hex="058F"/>
  <anchor x="670.0" y="-166.0" name="btm"/>
  <anchor x="668.0" y="1660.0" name="top"/>
  <outline>
    <contour>
      <point x="868.0" y="-14.0" type="line"/>
      <point x="1020.0" y="-14.0" type="line"/>
      <point x="1140.0" y="842.0" type="line" smooth="yes"/>
      <point x="1200.0" y="1270.0"/>
      <point x="1062.0" y="1488.0"/>
      <point x="726.0" y="1488.0" type="curve" smooth="yes"/>
      <point x="364.0" y="1488.0"/>
      <point x="178.0" y="1262.0"/>
      <point x="120.0" y="844.0" type="curve" smooth="yes"/>
      <point x="104.0" y="738.0" type="line"/>
      <point x="258.0" y="738.0" type="line"/>
      <point x="266.0" y="804.0" type="line" smooth="yes"/>
      <point x="328.0" y="1236.0"/>
      <point x="480.0" y="1358.0"/>
      <point x="712.0" y="1358.0" type="curve" smooth="yes"/>
      <point x="928.0" y="1358.0"/>
      <point x="1044.0" y="1230.0"/>
      <point x="984.0" y="804.0" type="curve" smooth="yes"/>
    </contour>
    <contour>
      <point x="548.0" y="252.0" type="line"/>
      <point x="1406.0" y="252.0" type="line"/>
      <point x="1420.0" y="360.0" type="line"/>
      <point x="564.0" y="360.0" type="line"/>
    </contour>
    <contour>
      <point x="628.0" y="616.0" type="line"/>
      <point x="1448.0" y="616.0" type="line"/>
      <point x="1462.0" y="722.0" type="line"/>
      <point x="642.0" y="722.0" type="line"/>
    </contour>
  </outline>
</glyph>
<glyph name="Germandbls" format="2">
  <advance width="1402.0"/>
  <unicode hex="1E9E"/>
  <note>
uni1E9E
</note>
  <outline>
    <contour>
      <point x="798.0" y="-22.0" type="curve" smooth="yes"/>
      <point x="1066.0" y="-22.0"/>
      <point x="1294.0" y="186.0"/>
      <point x="1310.0" y="478.0" type="curve" smooth="yes"/>
      <point x="1322.0" y="696.0"/>
      <point x="1118.0" y="856.0"/>
      <point x="920.0" y="856.0" type="curve"/>
      <point x="1284.0" y="1336.0" type="line"/>
      <point x="1296.0" y="1412.0" type="line"/>
      <point x="1266.0" y="1412.0"/>
      <point x="1242.0" y="1422.0"/>
      <point x="1192.0" y="1440.0" type="curve" smooth="yes"/>
      <point x="1094.0" y="1476.0"/>
      <point x="1016.0" y="1502.0"/>
      <point x="880.0" y="1502.0" type="curve" smooth="yes"/>
      <point x="462.0" y="1502.0"/>
      <point x="252.0" y="1186.0"/>
      <point x="202.0" y="736.0" type="curve" smooth="yes"/>
      <point x="102.0" y="0.0" type="line"/>
      <point x="252.0" y="0.0" type="line"/>
      <point x="364.0" y="818.0" type="line" smooth="yes"/>
      <point x="398.0" y="1140.0"/>
      <point x="582.0" y="1384.0"/>
      <point x="876.0" y="1384.0" type="curve" smooth="yes"/>
      <point x="972.0" y="1384.0"/>
      <point x="1054.0" y="1358.0"/>
      <point x="1112.0" y="1320.0" type="curve"/>
      <point x="746.0" y="832.0" type="line"/>
      <point x="738.0" y="766.0" type="line"/>
      <point x="1034.0" y="766.0"/>
      <point x="1164.0" y="662.0"/>
      <point x="1152.0" y="460.0" type="curve" smooth="yes"/>
      <point x="1140.0" y="248.0"/>
      <point x="972.0" y="98.0"/>
      <point x="794.0" y="98.0" type="curve" smooth="yes"/>
      <point x="668.0" y="98.0"/>
      <point x="574.0" y="134.0"/>
      <point x="520.0" y="182.0" type="curve"/>
      <point x="440.0" y="62.0" type="line"/>
      <point x="522.0" y="8.0"/>
      <point x="606.0" y="-22.0"/>
    </contour>
  </outline>
</glyph>
<glyph name="figuredash" format="2">
  <advance width="1232.0"/>
  <unicode hex="2012"/>
  <outline>
    <contour>
      <point x="214.0" y="656.0" type="line"/>
      <point x="1046.0" y="656.0" type="line"/>
      <point x="1060.0" y="774.0" type="line"/>
      <point x="228.0" y="774.0" type="line"/>
    </contour>
  </outline>
</glyph>
<glyph name="quoteleft" format="2">
  <advance width="330.0"/>
  <unicode hex="2018"/>
  <note>
quoteleft
</note>
  <outline>
    <contour>
      <point x="189.0" y="452.0" type="curve"/>
      <point x="226.0" y="491.0" type="line"/>
      <point x="228.0" y="506.0" type="line"/>
      <point x="196.0" y="529.0"/>
      <point x="178.0" y="573.0"/>
      <point x="178.0" y="616.0" type="curve" smooth="yes"/>
      <point x="178.0" y="716.0"/>
      <point x="241.0" y="781.0"/>
      <point x="283.0" y="802.0" type="curve"/>
      <point x="284.0" y="810.0" type="line"/>
      <point x="257.0" y="850.0" type="line"/>
      <point x="177.0" y="809.0"/>
      <point x="106.0" y="730.0"/>
      <point x="106.0" y="605.0" type="curve" smooth="yes"/>
      <point x="106.0" y="543.0"/>
      <point x="144.0" y="469.0"/>
    </contour>
  </outline>
</glyph>
<glyph name="quotereversed" format="2">
  <advance width="337.0"/>
  <unicode hex="201B"/>
  <note>
quotereversed
</note>
  <outline>
    <contour>
      <point x="235.0" y="433.0" type="curve"/>
      <point x="268.0" y="467.0" type="line"/>
      <point x="269.0" y="475.0" type="line"/>
      <point x="231.0" y="503.0"/>
      <point x="194.0" y="570.0"/>
      <point x="194.0" y="634.0" type="curve" smooth="yes"/>
      <point x="194.0" y="704.0"/>
      <point x="222.0" y="757.0"/>
      <point x="266.0" y="776.0" type="curve"/>
      <point x="267.0" y="790.0" type="line"/>
      <point x="237.0" y="837.0" type="line"/>
      <point x="188.0" y="826.0"/>
      <point x="127.0" y="763.0"/>
      <point x="124.0" y="655.0" type="curve" smooth="yes"/>
      <point x="122.0" y="550.0"/>
      <point x="174.0" y="483.0"/>
    </contour>
  </outline>
</glyph>
<glyph name="daggerdbl" format="2">
  <advance width="796.0"/>
  <unicode hex="2021"/>
  <note>
daggerdbl
</note>
  <outline>
    <contour>
      <point x="286.0" y="-50.0" type="line"/>
      <point x="372.0" y="-50.0" type="line"/>
      <point x="476.0" y="498.0" type="line"/>
      <point x="490.0" y="634.0" type="line"/>
      <point x="724.0" y="634.0" type="line"/>
      <point x="740.0" y="746.0" type="line"/>
      <point x="498.0" y="746.0" type="line"/>
      <point x="550.0" y="958.0" type="line"/>
      <point x="562.0" y="1120.0" type="line"/>
      <point x="832.0" y="1120.0" type="line"/>
      <point x="848.0" y="1230.0" type="line"/>
      <point x="562.0" y="1230.0" type="line"/>
      <point x="616.0" y="1434.0" type="line"/>
      <point x="642.0" y="1608.0" type="line"/>
      <point x="502.0" y="1608.0" type="line"/>
      <point x="476.0" y="1434.0" type="line"/>
      <point x="468.0" y="1230.0" type="line"/>
      <point x="188.0" y="1230.0" type="line"/>
      <point x="172.0" y="1120.0" type="line"/>
      <point x="436.0" y="1120.0" type="line"/>
      <point x="398.0" y="958.0" type="line"/>
      <point x="390.0" y="746.0" type="line"/>
      <point x="146.0" y="746.0" type="line"/>
      <point x="128.0" y="634.0" type="line"/>
      <point x="364.0" y="634.0" type="line"/>
      <point x="336.0" y="498.0" type="line"/>
    </contour>
  </outline>
</glyph>
<glyph name="bullet" format="2">
  <advance width="838.0"/>
  <unicode hex="2022"/>
  <note>
bullet
</note>
  <outline>
    <contour>
      <point x="410.0" y="544.0" type="curve" smooth="yes"/>
      <point x="516.0" y="544.0"/>
      <point x="598.0" y="642.0"/>
      <point x="598.0" y="740.0" type="curve" smooth="yes"/>
      <point x="598.0" y="814.0"/>
      <point x="544.0" y="870.0"/>
      <point x="466.0" y="870.0" type="curve" smooth="yes"/>
      <point x="362.0" y="870.0"/>
      <point x="276.0" y="772.0"/>
      <point x="276.0" y="676.0" type="curve" smooth="yes"/>
      <point x="276.0" y="602.0"/>
      <point x="334.0" y="544.0"/>
    </contour>
  </outline>
</glyph>
<glyph name="perthousand" format="2">
  <advance width="2464.0"/>
  <unicode hex="2030"/>
  <note>
perthousand
</note>
  <outline>
    <contour>
      <point x="396.0" y="728.0" type="curve" smooth="yes"/>
      <point x="628.0" y="728.0"/>
      <point x="796.0" y="922.0"/>
      <point x="796.0" y="1158.0" type="curve" smooth="yes"/>
      <point x="796.0" y="1314.0"/>
      <point x="710.0" y="1446.0"/>
      <point x="514.0" y="1446.0" type="curve" smooth="yes"/>
      <point x="294.0" y="1446.0"/>
      <point x="122.0" y="1250.0"/>
      <point x="122.0" y="1030.0" type="curve" smooth="yes"/>
      <point x="122.0" y="854.0"/>
      <point x="226.0" y="728.0"/>
    </contour>
    <contour>
      <point x="418.0" y="820.0" type="curve" smooth="yes"/>
      <point x="308.0" y="820.0"/>
      <point x="242.0" y="904.0"/>
      <point x="242.0" y="1032.0" type="curve" smooth="yes"/>
      <point x="242.0" y="1210.0"/>
      <point x="366.0" y="1354.0"/>
      <point x="494.0" y="1354.0" type="curve" smooth="yes"/>
      <point x="614.0" y="1354.0"/>
      <point x="670.0" y="1278.0"/>
      <point x="670.0" y="1152.0" type="curve" smooth="yes"/>
      <point x="670.0" y="966.0"/>
      <point x="548.0" y="820.0"/>
    </contour>
    <contour>
      <point x="330.0" y="0.0" type="line"/>
      <point x="450.0" y="0.0" type="line"/>
      <point x="1376.0" y="1494.0" type="line"/>
      <point x="1256.0" y="1494.0" type="line"/>
    </contour>
    <contour>
      <point x="1220.0" y="112.0" type="curve" smooth="yes"/>
      <point x="1452.0" y="112.0"/>
      <point x="1620.0" y="306.0"/>
      <point x="1620.0" y="542.0" type="curve" smooth="yes"/>
      <point x="1620.0" y="698.0"/>
      <point x="1534.0" y="830.0"/>
      <point x="1338.0" y="830.0" type="curve" smooth="yes"/>
      <point x="1118.0" y="830.0"/>
      <point x="946.0" y="634.0"/>
      <point x="946.0" y="414.0" type="curve" smooth="yes"/>
      <point x="946.0" y="238.0"/>
      <point x="1050.0" y="112.0"/>
    </contour>
    <contour>
      <point x="1242.0" y="204.0" type="curve" smooth="yes"/>
      <point x="1132.0" y="204.0"/>
      <point x="1066.0" y="288.0"/>
      <point x="1066.0" y="416.0" type="curve" smooth="yes"/>
      <point x="1066.0" y="594.0"/>
      <point x="1190.0" y="738.0"/>
      <point x="1318.0" y="738.0" type="curve" smooth="yes"/>
      <point x="1438.0" y="738.0"/>
      <point x="1494.0" y="662.0"/>
      <point x="1494.0" y="536.0" type="curve" smooth="yes"/>
      <point x="1494.0" y="350.0"/>
      <point x="1372.0" y="204.0"/>
    </contour>
    <contour>
      <point x="2002.0" y="112.0" type="curve" smooth="yes"/>
      <point x="2234.0" y="112.0"/>
      <point x="2402.0" y="306.0"/>
      <point x="2402.0" y="542.0" type="curve" smooth="yes"/>
      <point x="2402.0" y="698.0"/>
      <point x="2316.0" y="830.0"/>
      <point x="2120.0" y="830.0" type="curve" smooth="yes"/>
      <point x="1900.0" y="830.0"/>
      <point x="1728.0" y="634.0"/>
      <point x="1728.0" y="414.0" type="curve" smooth="yes"/>
      <point x="1728.0" y="238.0"/>
      <point x="1832.0" y="112.0"/>
    </contour>
    <contour>
      <point x="2024.0" y="204.0" type="curve" smooth="yes"/>
      <point x="1914.0" y="204.0"/>
      <point x="1848.0" y="288.0"/>
      <point x="1848.0" y="416.0" type="curve" smooth="yes"/>
      <point x="1848.0" y="594.0"/>
      <point x="1972.0" y="738.0"/>
      <point x="2100.0" y="738.0" type="curve" smooth="yes"/>
      <point x="2220.0" y="738.0"/>
      <point x="2276.0" y="662.0"/>
      <point x="2276.0" y="536.0" type="curve" smooth="yes"/>
      <point x="2276.0" y="350.0"/>
      <point x="2154.0" y="204.0"/>
    </contour>
  </outline>
</glyph>
<glyph name="guilsinglleft" format="2">
  <advance width="533.0"/>
  <unicode hex="2039"/>
  <note>
guilsinglleft
</note>
  <outline>
    <contour>
      <point x="363.0" y="74.0" type="line"/>
      <point x="389.0" y="116.0" type="line"/>
      <point x="169.0" y="300.0" type="line"/>
      <point x="440.0" y="487.0" type="line"/>
      <point x="426.0" y="530.0" type="line"/>
      <point x="87.0" y="328.0" type="line"/>
      <point x="79.0" y="269.0" type="line"/>
    </contour>
  </outline>
</glyph>
<glyph name="guilsinglright" format="2">
  <advance width="1068.0"/>
  <unicode hex="203A"/>
  <note>
guilsinglright
</note>
  <outline>
    <contour>
      <point x="226.0" y="148.0" type="line"/>
      <point x="906.0" y="554.0" type="line"/>
      <point x="922.0" y="670.0" type="line"/>
      <point x="352.0" y="1060.0" type="line"/>
      <point x="300.0" y="978.0" type="line"/>
      <point x="742.0" y="610.0" type="line"/>
      <point x="182.0" y="236.0" type="line"/>
    </contour>
  </outline>
</glyph>
<glyph name="colonsign" format="2">
  <advance width="1298.0"/>
  <unicode hex="20A1"/>
  <note>
colonmonetary
</note>
  <outline>
    <contour>
      <point x="348.0" y="-346.0" type="line"/>
      <point x="436.0" y="-346.0" type="line"/>
      <point x="506.0" y="4.0" type="line"/>
      <point x="554.0" y="-10.0"/>
      <point x="602.0" y="-16.0"/>
      <point x="662.0" y="-16.0" type="curve"/>
      <point x="598.0" y="-346.0" type="line"/>
      <point x="684.0" y="-346.0" type="line"/>
      <point x="750.0" y="-12.0" type="line"/>
      <point x="918.0" y="2.0"/>
      <point x="1058.0" y="50.0"/>
      <point x="1116.0" y="108.0" type="curve"/>
      <point x="1074.0" y="204.0" type="line"/>
      <point x="990.0" y="148.0"/>
      <point x="890.0" y="114.0"/>
      <point x="772.0" y="100.0" type="curve"/>
      <point x="1028.0" y="1386.0" type="line"/>
      <point x="1098.0" y="1376.0"/>
      <point x="1150.0" y="1356.0"/>
      <point x="1176.0" y="1338.0" type="curve"/>
      <point x="1222.0" y="1458.0" type="line"/>
      <point x="1164.0" y="1476.0"/>
      <point x="1106.0" y="1490.0"/>
      <point x="1050.0" y="1500.0" type="curve"/>
      <point x="1104.0" y="1772.0" type="line"/>
      <point x="1016.0" y="1772.0" type="line"/>
      <point x="964.0" y="1508.0" type="line"/>
      <point x="926.0" y="1510.0"/>
      <point x="852.0" y="1510.0"/>
      <point x="802.0" y="1502.0" type="curve"/>
      <point x="856.0" y="1772.0" type="line"/>
      <point x="766.0" y="1772.0" type="line"/>
      <point x="710.0" y="1484.0" type="line"/>
      <point x="346.0" y="1386.0"/>
      <point x="142.0" y="1048.0"/>
      <point x="142.0" y="638.0" type="curve" smooth="yes"/>
      <point x="142.0" y="400.0"/>
      <point x="228.0" y="148.0"/>
      <point x="424.0" y="40.0" type="curve"/>
    </contour>
    <contour>
      <point x="298.0" y="642.0" type="curve" smooth="yes"/>
      <point x="298.0" y="964.0"/>
      <point x="412.0" y="1268.0"/>
      <point x="686.0" y="1366.0" type="curve"/>
      <point x="450.0" y="174.0" type="line"/>
      <point x="348.0" y="268.0"/>
      <point x="298.0" y="436.0"/>
    </contour>
    <contour>
      <point x="684.0" y="94.0" type="line"/>
      <point x="630.0" y="94.0"/>
      <point x="582.0" y="100.0"/>
      <point x="530.0" y="124.0" type="curve"/>
      <point x="780.0" y="1390.0" type="line"/>
      <point x="818.0" y="1398.0"/>
      <point x="896.0" y="1400.0"/>
      <point x="942.0" y="1396.0" type="curve"/>
    </contour>
  </outline>
</glyph>
<glyph name="franc" format="2">
  <advance width="590.0"/>
  <unicode hex="20A3"/>
  <note>
franc
</note>
  <outline>
    <contour>
      <point x="115.0" y="0.0" type="line"/>
      <point x="188.0" y="0.0" type="line"/>
      <point x="209.0" y="166.0" type="line"/>
      <point x="342.0" y="166.0" type="line"/>
      <point x="349.0" y="225.0" type="line"/>
      <point x="216.0" y="225.0" type="line"/>
      <point x="233.0" y="354.0" type="line"/>
      <point x="483.0" y="348.0" type="line"/>
      <point x="488.0" y="412.0" type="line"/>
      <point x="240.0" y="408.0" type="line"/>
      <point x="275.0" y="692.0" type="line"/>
      <point x="584.0" y="688.0" type="line"/>
      <point x="589.0" y="747.0" type="line"/>
      <point x="209.0" y="747.0" type="line"/>
      <point x="143.0" y="225.0" type="line"/>
      <point x="33.0" y="225.0" type="line"/>
      <point x="26.0" y="166.0" type="line"/>
      <point x="136.0" y="166.0" type="line"/>
    </contour>
  </outline>
</glyph>
<glyph name="lira" format="2">
  <advance width="691.0"/>
  <unicode hex="20A4"/>
  <note>
lira
</note>
  <outline>
    <contour>
      <point x="40.0" y="-7.0" type="curve" smooth="yes"/>
      <point x="72.0" y="-7.0"/>
      <point x="115.0" y="17.0"/>
      <point x="138.0" y="45.0" type="curve"/>
      <point x="223.0" y="28.0"/>
      <point x="280.0" y="-12.0"/>
      <point x="398.0" y="-12.0" type="curve" smooth="yes"/>
      <point x="531.0" y="-12.0"/>
      <point x="632.0" y="37.0"/>
      <point x="632.0" y="158.0" type="curve" smooth="yes"/>
      <point x="632.0" y="210.0"/>
      <point x="606.0" y="257.0"/>
      <point x="566.0" y="290.0" type="curve"/>
      <point x="508.0" y="246.0" type="line"/>
      <point x="533.0" y="230.0"/>
      <point x="555.0" y="192.0"/>
      <point x="555.0" y="156.0" type="curve" smooth="yes"/>
      <point x="555.0" y="85.0"/>
      <point x="504.0" y="41.0"/>
      <point x="388.0" y="41.0" type="curve" smooth="yes"/>
      <point x="293.0" y="41.0"/>
      <point x="246.0" y="68.0"/>
      <point x="180.0" y="84.0" type="curve"/>
      <point x="219.0" y="140.0"/>
      <point x="236.0" y="192.0"/>
      <point x="252.0" y="289.0" type="curve"/>
      <point x="442.0" y="289.0" type="line"/>
      <point x="450.0" y="342.0" type="line"/>
      <point x="261.0" y="342.0" type="line"/>
      <point x="276.0" y="424.0" type="line"/>
      <point x="471.0" y="424.0" type="line"/>
      <point x="478.0" y="478.0" type="line"/>
      <point x="285.0" y="478.0" type="line"/>
      <point x="311.0" y="632.0"/>
      <point x="362.0" y="702.0"/>
      <point x="459.0" y="702.0" type="curve" smooth="yes"/>
      <point x="507.0" y="702.0"/>
      <point x="548.0" y="682.0"/>
      <point x="565.0" y="665.0" type="curve"/>
      <point x="595.0" y="715.0" type="line"/>
      <point x="568.0" y="746.0"/>
      <point x="518.0" y="754.0"/>
      <point x="470.0" y="754.0" type="curve" smooth="yes"/>
      <point x="321.0" y="754.0"/>
      <point x="233.0" y="635.0"/>
      <point x="210.0" y="478.0" type="curve"/>
      <point x="87.0" y="478.0" type="line"/>
      <point x="80.0" y="424.0" type="line"/>
      <point x="201.0" y="424.0" type="line"/>
      <point x="187.0" y="342.0" type="line"/>
      <point x="59.0" y="342.0" type="line"/>
      <point x="51.0" y="289.0" type="line"/>
      <point x="178.0" y="289.0" type="line"/>
      <point x="169.0" y="238.0" type="line"/>
      <point x="161.0" y="177.0"/>
      <point x="144.0" y="118.0"/>
      <point x="115.0" y="94.0" type="curve"/>
      <point x="51.0" y="81.0"/>
      <point x="7.0" y="51.0"/>
      <point x="7.0" y="22.0" type="curve" smooth="yes"/>
      <point x="7.0" y="2.0"/>
      <point x="21.0" y="-7.0"/>
    </contour>
  </outline>
</glyph>
<glyph name="naira" format="2">
  <advance width="838.0"/>
  <unicode hex="20A6"/>
  <note>
uni20A6
</note>
  <anchor x="373.0" y="0.0" name="bottom"/>
  <anchor x="472.0" y="747.0" name="top"/>
  <outline>
    <contour>
      <point x="54.0" y="201.0" type="line"/>
      <point x="203.0" y="201.0" type="line"/>
      <point x="213.0" y="272.0" type="line"/>
      <point x="64.0" y="272.0" type="line"/>
    </contour>
    <contour>
      <point x="247.0" y="557.0" type="line"/>
      <point x="99.0" y="557.0" type="line"/>
      <point x="90.0" y="487.0" type="line"/>
      <point x="238.0" y="487.0" type="line"/>
    </contour>
    <contour>
      <point x="626.0" y="200.0" type="line"/>
      <point x="765.0" y="200.0" type="line"/>
      <point x="775.0" y="271.0" type="line"/>
      <point x="636.0" y="271.0" type="line"/>
    </contour>
    <contour>
      <point x="809.0" y="556.0" type="line"/>
      <point x="671.0" y="556.0" type="line"/>
      <point x="662.0" y="486.0" type="line"/>
      <point x="800.0" y="486.0" type="line"/>
    </contour>
    <component base="N" xOffset="67.0"/>
  </outline>
</glyph>
<glyph name="peseta" format="2">
  <advance width="775.0"/>
  <unicode hex="20A7"/>
  <note>
peseta
</note>
  <outline>
    <contour>
      <point x="135.0" y="0.0" type="line"/>
      <point x="209.0" y="0.0" type="line"/>
      <point x="242.0" y="264.0" type="line"/>
      <point x="285.0" y="260.0"/>
      <point x="322.0" y="258.0"/>
      <point x="353.0" y="258.0" type="curve" smooth="yes"/>
      <point x="496.0" y="258.0"/>
      <point x="614.0" y="337.0"/>
      <point x="645.0" y="479.0" type="curve"/>
      <point x="751.0" y="479.0" type="line"/>
      <point x="758.0" y="535.0" type="line"/>
      <point x="651.0" y="535.0" type="line"/>
      <point x="662.0" y="681.0"/>
      <point x="585.0" y="756.0"/>
      <point x="429.0" y="756.0" type="curve" smooth="yes"/>
      <point x="395.0" y="756.0"/>
      <point x="309.0" y="748.0"/>
      <point x="272.0" y="748.0" type="curve" smooth="yes"/>
      <point x="229.0" y="748.0" type="line"/>
      <point x="202.0" y="535.0" type="line"/>
      <point x="96.0" y="535.0" type="line"/>
      <point x="89.0" y="479.0" type="line"/>
      <point x="195.0" y="479.0" type="line"/>
    </contour>
    <contour>
      <point x="355.0" y="315.0" type="curve" smooth="yes"/>
      <point x="324.0" y="315.0"/>
      <point x="269.0" y="320.0"/>
      <point x="249.0" y="324.0" type="curve"/>
      <point x="269.0" y="479.0" type="line"/>
      <point x="569.0" y="479.0" type="line"/>
      <point x="545.0" y="372.0"/>
      <point x="474.0" y="316.0"/>
    </contour>
    <contour>
      <point x="276.0" y="535.0" type="line"/>
      <point x="295.0" y="690.0" type="line"/>
      <point x="352.0" y="697.0"/>
      <point x="393.0" y="700.0"/>
      <point x="418.0" y="700.0" type="curve" smooth="yes"/>
      <point x="533.0" y="700.0"/>
      <point x="587.0" y="648.0"/>
      <point x="577.0" y="535.0" type="curve"/>
    </contour>
  </outline>
</glyph>
<glyph name="won" format="2">
  <advance width="2072.0"/>
  <unicode hex="20A9"/>
  <note>
uni20A9
</note>
  <anchor x="972.0" y="0.0" name="bottom"/>
  <anchor x="1170.0" y="1494.0" name="top"/>
  <outline>
    <contour>
      <point x="206.0" y="402.0" type="line"/>
      <point x="504.0" y="402.0" type="line"/>
      <point x="524.0" y="544.0" type="line"/>
      <point x="226.0" y="544.0" type="line"/>
    </contour>
    <contour>
      <point x="492.0" y="1114.0" type="line"/>
      <point x="196.0" y="1114.0" type="line"/>
      <point x="178.0" y="974.0" type="line"/>
      <point x="474.0" y="974.0" type="line"/>
    </contour>
    <contour>
      <point x="1490.0" y="400.0" type="line"/>
      <point x="1792.0" y="400.0" type="line"/>
      <point x="1812.0" y="542.0" type="line"/>
      <point x="1510.0" y="542.0" type="line"/>
    </contour>
    <contour>
      <point x="2020.0" y="1112.0" type="line"/>
      <point x="1720.0" y="1112.0" type="line"/>
      <point x="1702.0" y="972.0" type="line"/>
      <point x="2002.0" y="972.0" type="line"/>
    </contour>
    <component base="W" xOffset="182.0"/>
  </outline>
</glyph>
<glyph name="sheqel" format="2">
  <advance width="1476.0"/>
  <unicode hex="20AA"/>
  <note>
uni20AA
</note>
  <outline>
    <contour>
      <point x="60.0" y="0.0" type="line"/>
      <point x="188.0" y="0.0" type="line"/>
      <point x="362.0" y="1380.0" type="line"/>
      <point x="718.0" y="1380.0" type="line" smooth="yes"/>
      <point x="878.0" y="1380.0"/>
      <point x="940.0" y="1324.0"/>
      <point x="940.0" y="1194.0" type="curve" smooth="yes"/>
      <point x="940.0" y="1172.0"/>
      <point x="938.0" y="1142.0"/>
      <point x="932.0" y="1102.0" type="curve" smooth="yes"/>
      <point x="832.0" y="358.0" type="line"/>
      <point x="968.0" y="358.0" type="line"/>
      <point x="1066.0" y="1076.0" type="line" smooth="yes"/>
      <point x="1072.0" y="1126.0"/>
      <point x="1076.0" y="1168.0"/>
      <point x="1076.0" y="1202.0" type="curve" smooth="yes"/>
      <point x="1076.0" y="1378.0"/>
      <point x="1004.0" y="1492.0"/>
      <point x="788.0" y="1492.0" type="curve" smooth="yes"/>
      <point x="246.0" y="1492.0" type="line"/>
    </contour>
    <contour>
      <point x="812.0" y="0.0" type="curve" smooth="yes"/>
      <point x="1278.0" y="0.0" type="line"/>
      <point x="1464.0" y="1492.0" type="line"/>
      <point x="1336.0" y="1492.0" type="line"/>
      <point x="1168.0" y="108.0" type="line"/>
      <point x="902.0" y="108.0" type="line" smooth="yes"/>
      <point x="690.0" y="108.0"/>
      <point x="590.0" y="180.0"/>
      <point x="590.0" y="276.0" type="curve" smooth="yes"/>
      <point x="590.0" y="282.0"/>
      <point x="590.0" y="292.0"/>
      <point x="592.0" y="306.0" type="curve" smooth="yes"/>
      <point x="704.0" y="1138.0" type="line"/>
      <point x="564.0" y="1138.0" type="line"/>
      <point x="462.0" y="318.0" type="line" smooth="yes"/>
      <point x="460.0" y="300.0"/>
      <point x="458.0" y="284.0"/>
      <point x="458.0" y="270.0" type="curve" smooth="yes"/>
      <point x="458.0" y="84.0"/>
      <point x="594.0" y="0.0"/>
    </contour>
  </outline>
</glyph>
<glyph name="dong" format="2">
  <advance width="1278.0"/>
  <unicode hex="20AB"/>
  <note>
dong
</note>
  <outline>
    <contour>
      <point x="546.0" y="284.0" type="curve" smooth="yes"/>
      <point x="676.0" y="284.0"/>
      <point x="778.0" y="320.0"/>
      <point x="854.0" y="390.0" type="curve"/>
      <point x="842.0" y="284.0" type="line"/>
      <point x="964.0" y="284.0" type="line"/>
      <point x="1108.0" y="1376.0" type="line"/>
      <point x="1338.0" y="1376.0" type="line"/>
      <point x="1354.0" y="1486.0" type="line"/>
      <point x="1124.0" y="1486.0" type="line"/>
      <point x="1146.0" y="1654.0" type="line"/>
      <point x="1004.0" y="1654.0" type="line"/>
      <point x="980.0" y="1486.0" type="line"/>
      <point x="718.0" y="1486.0" type="line"/>
      <point x="702.0" y="1376.0" type="line"/>
      <point x="966.0" y="1376.0" type="line"/>
      <point x="938.0" y="1178.0" type="line"/>
      <point x="884.0" y="1204.0"/>
      <point x="820.0" y="1218.0"/>
      <point x="750.0" y="1218.0" type="curve" smooth="yes"/>
      <point x="416.0" y="1218.0"/>
      <point x="192.0" y="970.0"/>
      <point x="192.0" y="636.0" type="curve" smooth="yes"/>
      <point x="192.0" y="420.0"/>
      <point x="330.0" y="284.0"/>
    </contour>
    <contour>
      <point x="564.0" y="408.0" type="curve" smooth="yes"/>
      <point x="426.0" y="408.0"/>
      <point x="342.0" y="498.0"/>
      <point x="342.0" y="668.0" type="curve" smooth="yes"/>
      <point x="342.0" y="904.0"/>
      <point x="486.0" y="1098.0"/>
      <point x="732.0" y="1098.0" type="curve" smooth="yes"/>
      <point x="784.0" y="1098.0"/>
      <point x="886.0" y="1092.0"/>
      <point x="916.0" y="1062.0" type="curve"/>
      <point x="844.0" y="512.0" type="line"/>
      <point x="824.0" y="472.0"/>
      <point x="682.0" y="408.0"/>
    </contour>
    <contour>
      <point x="54.0" y="0.0" type="line"/>
      <point x="1110.0" y="0.0" type="line"/>
      <point x="1130.0" y="132.0" type="line"/>
      <point x="74.0" y="132.0" type="line"/>
    </contour>
  </outline>
</glyph>
<glyph name="kip" format="2">
  <advance width="705.0"/>
  <unicode hex="20AD"/>
  <anchor x="305.0" y="0.0" name="bottom"/>
  <anchor x="404.0" y="747.0" name="top"/>
  <outline>
    <contour>
      <point x="97.0" y="0.0" type="line"/>
      <point x="170.0" y="0.0" type="line"/>
      <point x="213.0" y="349.0" type="line"/>
      <point x="233.0" y="349.0" type="line"/>
      <point x="517.0" y="0.0" type="line"/>
      <point x="606.0" y="0.0" type="line"/>
      <point x="291.0" y="369.0" type="line"/>
      <point x="664.0" y="747.0" type="line"/>
      <point x="578.0" y="747.0" type="line"/>
      <point x="217.0" y="382.0" type="line"/>
      <point x="265.0" y="747.0" type="line"/>
      <point x="191.0" y="747.0" type="line"/>
    </contour>
    <contour>
      <point x="70.0" y="336.0" type="line"/>
      <point x="554.0" y="336.0" type="line"/>
      <point x="563.0" y="400.0" type="line"/>
      <point x="79.0" y="400.0" type="line"/>
    </contour>
  </outline>
</glyph>
<glyph name="tugrik" format="2">
  <advance width="1269.0"/>
  <unicode hex="20AE"/>
  <anchor x="571.0" y="0.0" name="bottom"/>
  <anchor x="671.0" y="748.0" name="center"/>
  <anchor x="769.0" y="1494.0" name="top"/>
  <outline>
    <contour>
      <point x="211.0" y="682.0" type="line"/>
      <point x="1073.0" y="962.0" type="line"/>
      <point x="1077.0" y="1086.0" type="line"/>
      <point x="215.0" y="804.0" type="line"/>
    </contour>
    <contour>
      <point x="203.0" y="246.0" type="line"/>
      <point x="1065.0" y="526.0" type="line"/>
      <point x="1069.0" y="650.0" type="line"/>
      <point x="207.0" y="370.0" type="line"/>
    </contour>
    <component base="T" xOffset="97.0"/>
  </outline>
</glyph>
<glyph name="peso" format="2">
  <advance width="725.0"/>
  <unicode hex="20B1"/>
  <note>
uni20B1
</note>
  <outline>
    <contour>
      <point x="130.0" y="0.0" type="line"/>
      <point x="204.0" y="0.0" type="line"/>
      <point x="237.0" y="264.0" type="line"/>
      <point x="280.0" y="260.0"/>
      <point x="317.0" y="258.0"/>
      <point x="348.0" y="258.0" type="curve" smooth="yes"/>
      <point x="472.0" y="258.0"/>
      <point x="570.0" y="314.0"/>
      <point x="617.0" y="413.0" type="curve"/>
      <point x="720.0" y="413.0" type="line"/>
      <point x="726.0" y="453.0" type="line"/>
      <point x="633.0" y="453.0" type="line"/>
      <point x="642.0" y="484.0"/>
      <point x="646.0" y="518.0"/>
      <point x="647.0" y="556.0" type="curve"/>
      <point x="734.0" y="556.0" type="line"/>
      <point x="740.0" y="596.0" type="line"/>
      <point x="646.0" y="596.0" type="line"/>
      <point x="631.0" y="703.0"/>
      <point x="556.0" y="756.0"/>
      <point x="424.0" y="756.0" type="curve" smooth="yes"/>
      <point x="390.0" y="756.0"/>
      <point x="304.0" y="748.0"/>
      <point x="267.0" y="748.0" type="curve" smooth="yes"/>
      <point x="224.0" y="748.0" type="line"/>
      <point x="205.0" y="596.0" type="line"/>
      <point x="104.0" y="596.0" type="line"/>
      <point x="99.0" y="556.0" type="line"/>
      <point x="200.0" y="556.0" type="line"/>
      <point x="187.0" y="453.0" type="line"/>
      <point x="90.0" y="453.0" type="line"/>
      <point x="84.0" y="413.0" type="line"/>
      <point x="182.0" y="413.0" type="line"/>
    </contour>
    <contour>
      <point x="350.0" y="315.0" type="curve" smooth="yes"/>
      <point x="319.0" y="315.0"/>
      <point x="264.0" y="320.0"/>
      <point x="244.0" y="324.0" type="curve"/>
      <point x="255.0" y="413.0" type="line"/>
      <point x="540.0" y="413.0" type="line"/>
      <point x="504.0" y="349.0"/>
      <point x="441.0" y="316.0"/>
    </contour>
    <contour>
      <point x="260.0" y="453.0" type="line"/>
      <point x="273.0" y="556.0" type="line"/>
      <point x="573.0" y="556.0" type="line"/>
      <point x="572.0" y="517.0"/>
      <point x="567.0" y="483.0"/>
      <point x="557.0" y="453.0" type="curve"/>
    </contour>
    <contour>
      <point x="278.0" y="596.0" type="line"/>
      <point x="290.0" y="690.0" type="line"/>
      <point x="347.0" y="697.0"/>
      <point x="388.0" y="700.0"/>
      <point x="413.0" y="700.0" type="curve" smooth="yes"/>
      <point x="505.0" y="700.0"/>
      <point x="557.0" y="665.0"/>
      <point x="570.0" y="596.0" type="curve"/>
    </contour>
  </outline>
</glyph>
<glyph name="guarani" format="2">
  <advance width="706.0"/>
  <unicode hex="20B2"/>
  <note>
uni20B2
</note>
  <outline>
    <contour>
      <point x="286.0" y="-126.0" type="line"/>
      <point x="352.0" y="-126.0" type="line"/>
      <point x="368.0" y="-5.0" type="line"/>
      <point x="408.0" y="-1.0"/>
      <point x="446.0" y="9.0"/>
      <point x="511.0" y="30.0" type="curve" smooth="yes"/>
      <point x="536.0" y="38.0"/>
      <point x="561.0" y="43.0"/>
      <point x="578.0" y="46.0" type="curve"/>
      <point x="618.0" y="356.0" type="line"/>
      <point x="409.0" y="356.0" type="line"/>
      <point x="401.0" y="297.0" type="line"/>
      <point x="539.0" y="296.0" type="line"/>
      <point x="512.0" y="91.0" type="line"/>
      <point x="438.0" y="63.0"/>
      <point x="378.0" y="49.0"/>
      <point x="331.0" y="49.0" type="curve" smooth="yes"/>
      <point x="201.0" y="49.0"/>
      <point x="146.0" y="177.0"/>
      <point x="146.0" y="320.0" type="curve" smooth="yes"/>
      <point x="146.0" y="512.0"/>
      <point x="247.0" y="695.0"/>
      <point x="429.0" y="695.0" type="curve" smooth="yes"/>
      <point x="508.0" y="695.0"/>
      <point x="566.0" y="676.0"/>
      <point x="603.0" y="655.0" type="curve"/>
      <point x="625.0" y="722.0" type="line"/>
      <point x="565.0" y="741.0"/>
      <point x="525.0" y="750.0"/>
      <point x="462.0" y="754.0" type="curve"/>
      <point x="476.0" y="860.0" type="line"/>
      <point x="410.0" y="860.0" type="line"/>
      <point x="396.0" y="753.0" type="line"/>
      <point x="192.0" y="733.0"/>
      <point x="67.0" y="534.0"/>
      <point x="71.0" y="306.0" type="curve" smooth="yes"/>
      <point x="74.0" y="145.0"/>
      <point x="149.0" y="2.0"/>
      <point x="302.0" y="-8.0" type="curve"/>
    </contour>
  </outline>
</glyph>
<glyph name="hryvnia" format="2">
  <advance width="1288.0"/>
  <unicode hex="20B4"/>
  <anchor x="720.0" y="-166.0" name="btm"/>
  <anchor x="756.0" y="1660.0" name="top"/>
  <outline>
    <contour>
      <point x="578.0" y="-16.0" type="curve" smooth="yes"/>
      <point x="756.0" y="-16.0"/>
      <point x="924.0" y="36.0"/>
      <point x="978.0" y="72.0" type="curve"/>
      <point x="958.0" y="208.0" type="line"/>
      <point x="878.0" y="160.0"/>
      <point x="734.0" y="116.0"/>
      <point x="604.0" y="116.0" type="curve" smooth="yes"/>
      <point x="456.0" y="116.0"/>
      <point x="346.0" y="194.0"/>
      <point x="368.0" y="358.0" type="curve" smooth="yes"/>
      <point x="374.0" y="396.0"/>
      <point x="384.0" y="430.0"/>
      <point x="402.0" y="460.0" type="curve"/>
      <point x="1150.0" y="460.0" type="line"/>
      <point x="1166.0" y="592.0" type="line"/>
      <point x="128.0" y="592.0" type="line"/>
      <point x="112.0" y="460.0" type="line"/>
      <point x="242.0" y="460.0" type="line"/>
      <point x="232.0" y="434.0"/>
      <point x="226.0" y="406.0"/>
      <point x="222.0" y="376.0" type="curve" smooth="yes"/>
      <point x="188.0" y="114.0"/>
      <point x="354.0" y="-16.0"/>
    </contour>
    <contour>
      <point x="170.0" y="896.0" type="line"/>
      <point x="1206.0" y="896.0" type="line"/>
      <point x="1222.0" y="1024.0" type="line"/>
      <point x="1082.0" y="1024.0" type="line"/>
      <point x="1096.0" y="1058.0"/>
      <point x="1106.0" y="1094.0"/>
      <point x="1112.0" y="1134.0" type="curve" smooth="yes"/>
      <point x="1148.0" y="1408.0"/>
      <point x="926.0" y="1502.0"/>
      <point x="718.0" y="1502.0" type="curve" smooth="yes"/>
      <point x="544.0" y="1502.0"/>
      <point x="436.0" y="1458.0"/>
      <point x="382.0" y="1422.0" type="curve"/>
      <point x="396.0" y="1292.0" type="line"/>
      <point x="470.0" y="1338.0"/>
      <point x="560.0" y="1372.0"/>
      <point x="700.0" y="1372.0" type="curve" smooth="yes"/>
      <point x="846.0" y="1372.0"/>
      <point x="988.0" y="1304.0"/>
      <point x="970.0" y="1156.0" type="curve" smooth="yes"/>
      <point x="962.0" y="1104.0"/>
      <point x="946.0" y="1062.0"/>
      <point x="920.0" y="1024.0" type="curve"/>
      <point x="188.0" y="1024.0" type="line"/>
    </contour>
  </outline>
</glyph>
<glyph name="cedi" format="2">
  <advance width="1298.0"/>
  <unicode hex="20B5"/>
  <note>
uni20B5
</note>
  <outline>
    <contour>
      <point x="530.0" y="-346.0" type="line"/>
      <point x="640.0" y="-346.0" type="line"/>
      <point x="690.0" y="-14.0" type="line"/>
      <point x="882.0" y="-8.0"/>
      <point x="1046.0" y="42.0"/>
      <point x="1116.0" y="108.0" type="curve"/>
      <point x="1074.0" y="204.0" type="line"/>
      <point x="978.0" y="140.0"/>
      <point x="862.0" y="114.0"/>
      <point x="708.0" y="106.0" type="curve"/>
      <point x="896.0" y="1390.0" type="line"/>
      <point x="1026.0" y="1388.0"/>
      <point x="1142.0" y="1368.0"/>
      <point x="1182.0" y="1338.0" type="curve"/>
      <point x="1228.0" y="1458.0" type="line"/>
      <point x="1128.0" y="1496.0"/>
      <point x="1030.0" y="1508.0"/>
      <point x="922.0" y="1510.0" type="curve"/>
      <point x="962.0" y="1772.0" type="line"/>
      <point x="852.0" y="1772.0" type="line"/>
      <point x="812.0" y="1504.0" type="line"/>
      <point x="400.0" y="1452.0"/>
      <point x="142.0" y="1090.0"/>
      <point x="142.0" y="638.0" type="curve" smooth="yes"/>
      <point x="142.0" y="324.0"/>
      <point x="284.0" y="26.0"/>
      <point x="580.0" y="-10.0" type="curve"/>
    </contour>
    <contour>
      <point x="598.0" y="114.0" type="line"/>
      <point x="392.0" y="154.0"/>
      <point x="298.0" y="348.0"/>
      <point x="298.0" y="638.0" type="curve" smooth="yes"/>
      <point x="298.0" y="1020.0"/>
      <point x="448.0" y="1334.0"/>
      <point x="786.0" y="1384.0" type="curve"/>
    </contour>
  </outline>
</glyph>
<glyph name="tenge" format="2">
  <advance width="693.0"/>
  <unicode hex="20B8"/>
  <anchor x="346.0" y="-83.0" name="btm"/>
  <anchor x="344.0" y="830.0" name="top"/>
  <outline>
    <contour>
      <point x="261.0" y="0.0" type="line"/>
      <point x="345.0" y="0.0" type="line"/>
      <point x="414.0" y="494.0" type="line"/>
      <point x="657.0" y="494.0" type="line"/>
      <point x="666.0" y="558.0" type="line"/>
      <point x="99.0" y="558.0" type="line"/>
      <point x="90.0" y="494.0" type="line"/>
      <point x="330.0" y="494.0" type="line"/>
    </contour>
    <contour>
      <point x="116.0" y="679.0" type="line"/>
      <point x="683.0" y="679.0" type="line"/>
      <point x="692.0" y="743.0" type="line"/>
      <point x="125.0" y="743.0" type="line"/>
    </contour>
  </outline>
</glyph>
<glyph name="rupeeIndian" format="2">
  <advance width="694.0"/>
  <unicode hex="20B9"/>
  <note>
uni20B9
</note>
  <outline>
    <contour>
      <point x="464.0" y="0.0" type="curve" smooth="yes"/>
      <point x="550.0" y="0.0" type="line"/>
      <point x="529.0" y="28.0"/>
      <point x="513.0" y="70.0"/>
      <point x="486.0" y="146.0" type="curve" smooth="yes"/>
      <point x="451.0" y="245.0"/>
      <point x="432.0" y="297.0"/>
      <point x="399.0" y="326.0" type="curve"/>
      <point x="479.0" y="354.0"/>
      <point x="546.0" y="409.0"/>
      <point x="566.0" y="504.0" type="curve"/>
      <point x="661.0" y="504.0" type="line"/>
      <point x="669.0" y="563.0" type="line"/>
      <point x="573.0" y="563.0" type="line"/>
      <point x="573.0" y="610.0"/>
      <point x="564.0" y="650.0"/>
      <point x="538.0" y="688.0" type="curve"/>
      <point x="666.0" y="688.0" type="line"/>
      <point x="674.0" y="747.0" type="line"/>
      <point x="124.0" y="747.0" type="line"/>
      <point x="116.0" y="688.0" type="line"/>
      <point x="447.0" y="688.0" type="line"/>
      <point x="486.0" y="666.0"/>
      <point x="504.0" y="612.0"/>
      <point x="498.0" y="563.0" type="curve"/>
      <point x="119.0" y="563.0" type="line"/>
      <point x="111.0" y="504.0" type="line"/>
      <point x="486.0" y="504.0" type="line"/>
      <point x="450.0" y="401.0"/>
      <point x="368.0" y="364.0"/>
      <point x="212.0" y="364.0" type="curve" smooth="yes"/>
      <point x="152.0" y="364.0"/>
      <point x="112.0" y="365.0"/>
      <point x="91.0" y="367.0" type="curve"/>
      <point x="85.0" y="306.0" type="line"/>
      <point x="101.0" y="305.0"/>
      <point x="144.0" y="302.0"/>
      <point x="192.0" y="302.0" type="curve" smooth="yes"/>
      <point x="237.0" y="302.0"/>
      <point x="280.0" y="304.0"/>
      <point x="323.0" y="309.0" type="curve"/>
      <point x="354.0" y="284.0"/>
      <point x="377.0" y="222.0"/>
      <point x="410.0" y="118.0" type="curve" smooth="yes"/>
      <point x="427.0" y="64.0"/>
      <point x="446.0" y="0.0"/>
    </contour>
  </outline>
</glyph>
<glyph name="liraTurkish" format="2">
  <advance width="1430.0"/>
  <unicode hex="20BA"/>
  <note>
uni20BA
</note>
  <outline>
    <contour>
      <point x="368.0" y="0.0" type="line"/>
      <point x="520.0" y="0.0" type="line" smooth="yes"/>
      <point x="658.0" y="0.0"/>
      <point x="790.0" y="26.0"/>
      <point x="912.0" y="80.0" type="curve" smooth="yes"/>
      <point x="1156.0" y="186.0"/>
      <point x="1326.0" y="392.0"/>
      <point x="1360.0" y="658.0" type="curve" smooth="yes"/>
      <point x="1366.0" y="702.0" type="line"/>
      <point x="1212.0" y="702.0" type="line"/>
      <point x="1196.0" y="574.0"/>
      <point x="1156.0" y="468.0"/>
      <point x="1090.0" y="382.0" type="curve" smooth="yes"/>
      <point x="958.0" y="212.0"/>
      <point x="756.0" y="130.0"/>
      <point x="538.0" y="130.0" type="curve"/>
      <point x="604.0" y="640.0" type="line"/>
      <point x="1104.0" y="846.0" type="line"/>
      <point x="1122.0" y="972.0" type="line"/>
      <point x="620.0" y="766.0" type="line"/>
      <point x="654.0" y="1020.0" type="line"/>
      <point x="1170.0" y="1234.0" type="line"/>
      <point x="1190.0" y="1366.0" type="line"/>
      <point x="670.0" y="1152.0" type="line"/>
      <point x="716.0" y="1502.0" type="line"/>
      <point x="564.0" y="1502.0" type="line"/>
      <point x="510.0" y="1084.0" type="line"/>
      <point x="208.0" y="960.0" type="line"/>
      <point x="190.0" y="830.0" type="line"/>
      <point x="492.0" y="954.0" type="line"/>
      <point x="458.0" y="700.0" type="line"/>
      <point x="166.0" y="580.0" type="line"/>
      <point x="150.0" y="456.0" type="line"/>
      <point x="442.0" y="576.0" type="line"/>
    </contour>
  </outline>
</glyph>
<glyph name="manat" format="2">
  <advance width="1458.0"/>
  <unicode hex="20BC"/>
  <outline>
    <contour>
      <point x="66.0" y="0.0" type="line"/>
      <point x="222.0" y="0.0" type="line"/>
      <point x="312.0" y="668.0" type="line" smooth="yes"/>
      <point x="354.0" y="968.0"/>
      <point x="564.0" y="1094.0"/>
      <point x="802.0" y="1094.0" type="curve" smooth="yes"/>
      <point x="1048.0" y="1094.0"/>
      <point x="1216.0" y="968.0"/>
      <point x="1174.0" y="668.0" type="curve" smooth="yes"/>
      <point x="1086.0" y="4.0" type="line"/>
      <point x="1242.0" y="0.0" type="line"/>
      <point x="1328.0" y="636.0" type="line" smooth="yes"/>
      <point x="1386.0" y="1068.0"/>
      <point x="1150.0" y="1246.0"/>
      <point x="796.0" y="1246.0" type="curve" smooth="yes"/>
      <point x="510.0" y="1246.0"/>
      <point x="210.0" y="1080.0"/>
      <point x="152.0" y="646.0" type="curve" smooth="yes"/>
    </contour>
    <contour>
      <point x="612.0" y="276.0" type="line"/>
      <point x="770.0" y="276.0" type="line"/>
      <point x="942.0" y="1550.0" type="line"/>
      <point x="784.0" y="1550.0" type="line"/>
    </contour>
  </outline>
</glyph>
<glyph name="Ohm" format="2">
  <advance width="1658.0"/>
  <unicode hex="2126"/>
  <note>
uni2126
</note>
  <outline>
    <contour>
      <point x="76.0" y="0.0" type="line"/>
      <point x="600.0" y="0.0" type="line"/>
      <point x="632.0" y="104.0" type="line"/>
      <point x="446.0" y="210.0"/>
      <point x="298.0" y="510.0"/>
      <point x="298.0" y="750.0" type="curve" smooth="yes"/>
      <point x="298.0" y="1128.0"/>
      <point x="502.0" y="1392.0"/>
      <point x="862.0" y="1392.0" type="curve" smooth="yes"/>
      <point x="1150.0" y="1392.0"/>
      <point x="1354.0" y="1196.0"/>
      <point x="1354.0" y="890.0" type="curve" smooth="yes"/>
      <point x="1354.0" y="592.0"/>
      <point x="1144.0" y="240.0"/>
      <point x="892.0" y="104.0" type="curve"/>
      <point x="908.0" y="0.0" type="line"/>
      <point x="1466.0" y="0.0" type="line"/>
      <point x="1476.0" y="120.0" type="line"/>
      <point x="1076.0" y="120.0" type="line"/>
      <point x="1298.0" y="274.0"/>
      <point x="1502.0" y="588.0"/>
      <point x="1502.0" y="904.0" type="curve" smooth="yes"/>
      <point x="1502.0" y="1260.0"/>
      <point x="1236.0" y="1508.0"/>
      <point x="876.0" y="1508.0" type="curve" smooth="yes"/>
      <point x="434.0" y="1508.0"/>
      <point x="154.0" y="1218.0"/>
      <point x="154.0" y="754.0" type="curve" smooth="yes"/>
      <point x="154.0" y="536.0"/>
      <point x="306.0" y="228.0"/>
      <point x="474.0" y="114.0" type="curve"/>
      <point x="90.0" y="114.0" type="line"/>
    </contour>
  </outline>
</glyph>
<glyph name="increment" format="2">
  <advance width="1374.0"/>
  <unicode hex="2206"/>
  <note>
uni2206
</note>
  <outline>
    <contour>
      <point x="-8.0" y="0.0" type="line"/>
      <point x="1272.0" y="0.0" type="line"/>
      <point x="1288.0" y="26.0" type="line"/>
      <point x="746.0" y="1472.0" type="line"/>
      <point x="716.0" y="1472.0" type="line"/>
      <point x="-20.0" y="22.0" type="line"/>
    </contour>
    <contour>
      <point x="204.0" y="128.0" type="line"/>
      <point x="714.0" y="1170.0" type="line"/>
      <point x="1090.0" y="128.0" type="line"/>
    </contour>
  </outline>
</glyph>
<glyph name="integral" format="2">
  <advance width="1018.0"/>
  <unicode hex="222B"/>
  <note>
integral
</note>
  <outline>
    <contour>
      <point x="424.0" y="-506.0" type="curve" smooth="yes"/>
      <point x="690.0" y="-506.0"/>
      <point x="808.0" y="-322.0"/>
      <point x="808.0" y="-28.0" type="curve" smooth="yes"/>
      <point x="808.0" y="164.0"/>
      <point x="724.0" y="346.0"/>
      <point x="598.0" y="592.0" type="curve" smooth="yes"/>
      <point x="488.0" y="806.0"/>
      <point x="392.0" y="998.0"/>
      <point x="392.0" y="1178.0" type="curve" smooth="yes"/>
      <point x="392.0" y="1394.0"/>
      <point x="474.0" y="1524.0"/>
      <point x="650.0" y="1524.0" type="curve" smooth="yes"/>
      <point x="748.0" y="1524.0"/>
      <point x="824.0" y="1490.0"/>
      <point x="856.0" y="1436.0" type="curve"/>
      <point x="942.0" y="1520.0" type="line"/>
      <point x="886.0" y="1606.0"/>
      <point x="784.0" y="1646.0"/>
      <point x="654.0" y="1646.0" type="curve" smooth="yes"/>
      <point x="384.0" y="1646.0"/>
      <point x="248.0" y="1454.0"/>
      <point x="248.0" y="1178.0" type="curve" smooth="yes"/>
      <point x="248.0" y="986.0"/>
      <point x="324.0" y="800.0"/>
      <point x="450.0" y="560.0" type="curve" smooth="yes"/>
      <point x="560.0" y="340.0"/>
      <point x="664.0" y="154.0"/>
      <point x="664.0" y="-28.0" type="curve" smooth="yes"/>
      <point x="664.0" y="-286.0"/>
      <point x="572.0" y="-384.0"/>
      <point x="404.0" y="-384.0" type="curve" smooth="yes"/>
      <point x="294.0" y="-384.0"/>
      <point x="218.0" y="-334.0"/>
      <point x="170.0" y="-286.0" type="curve"/>
      <point x="108.0" y="-386.0" type="line"/>
      <point x="174.0" y="-458.0"/>
      <point x="298.0" y="-506.0"/>
    </contour>
  </outline>
</glyph>
<glyph name="notequal" format="2">
  <advance width="1038.0"/>
  <unicode hex="2260"/>
  <note>
notequal
</note>
  <outline>
    <contour>
      <point x="170.0" y="0.0" type="line"/>
      <point x="290.0" y="0.0" type="line"/>
      <point x="450.0" y="350.0" type="line"/>
      <point x="892.0" y="350.0" type="line"/>
      <point x="906.0" y="466.0" type="line"/>
      <point x="504.0" y="466.0" type="line"/>
      <point x="680.0" y="846.0" type="line"/>
      <point x="960.0" y="846.0" type="line"/>
      <point x="974.0" y="964.0" type="line"/>
      <point x="734.0" y="964.0" type="line"/>
      <point x="886.0" y="1292.0" type="line"/>
      <point x="768.0" y="1292.0" type="line"/>
      <point x="616.0" y="964.0" type="line"/>
      <point x="178.0" y="964.0" type="line"/>
      <point x="166.0" y="846.0" type="line"/>
      <point x="562.0" y="846.0" type="line"/>
      <point x="386.0" y="466.0" type="line"/>
      <point x="110.0" y="466.0" type="line"/>
      <point x="96.0" y="350.0" type="line"/>
      <point x="332.0" y="350.0" type="line"/>
    </contour>
  </outline>
</glyph>
<glyph name="rightBlackTriangle" format="2">
  <advance width="1186.0"/>
  <unicode hex="25B6"/>
  <outline>
    <contour>
      <point x="180.0" y="-144.0" type="line"/>
      <point x="1136.0" y="446.0" type="line"/>
      <point x="180.0" y="1034.0" type="line"/>
    </contour>
  </outline>
</glyph>
<glyph name="downWhiteTriangle" format="2">
  <advance width="1284.0"/>
  <unicode hex="25BD"/>
  <outline>
    <contour>
      <point x="642.0" y="78.0" type="line"/>
      <point x="1202.0" y="1058.0" type="line"/>
      <point x="82.0" y="1058.0" type="line"/>
    </contour>
    <contour>
      <point x="642.0" y="308.0" type="line"/>
      <point x="276.0" y="946.0" type="line"/>
      <point x="1008.0" y="946.0" type="line"/>
    </contour>
  </outline>
</glyph>
<glyph name="rightanglebracket-math" format="2">
  <advance width="838.0"/>
  <unicode hex="27E9"/>
  <outline>
    <contour>
      <point x="-52.0" y="-514.0" type="line"/>
      <point x="78.0" y="-514.0" type="line"/>
      <point x="764.0" y="660.0" type="line"/>
      <point x="390.0" y="1802.0" type="line"/>
      <point x="280.0" y="1802.0" type="line"/>
      <point x="630.0" y="674.0" type="line"/>
    </contour>
  </outline>
</glyph>
<glyph name="ae.sc" format="2">
  <advance width="1682.0"/>
  <note>
AE
</note>
  <anchor x="764.0" y="0.0" name="bottom"/>
  <anchor x="956.0" y="1280.0" name="top"/>
  <outline>
    <contour>
      <point x="-102.0" y="0.0" type="line"/>
      <point x="58.0" y="0.0" type="line"/>
      <point x="284.0" y="370.0" type="line"/>
      <point x="764.0" y="370.0" type="line"/>
      <point x="716.0" y="0.0" type="line"/>
      <point x="1554.0" y="0.0" type="line"/>
      <point x="1562.0" y="126.0" type="line"/>
      <point x="876.0" y="114.0" type="line"/>
      <point x="942.0" y="604.0" type="line"/>
      <point x="1386.0" y="592.0" type="line"/>
      <point x="1392.0" y="718.0" type="line"/>
      <point x="954.0" y="714.0" type="line"/>
      <point x="1016.0" y="1180.0" type="line"/>
      <point x="1584.0" y="1172.0" type="line"/>
      <point x="1590.0" y="1292.0" type="line"/>
      <point x="362.0" y="1292.0" type="line"/>
      <point x="352.0" y="1216.0" type="line"/>
      <point x="630.0" y="1200.0" type="line"/>
    </contour>
    <contour>
      <point x="346.0" y="486.0" type="line"/>
      <point x="766.0" y="1188.0" type="line"/>
      <point x="866.0" y="1188.0" type="line"/>
      <point x="778.0" y="486.0" type="line"/>
    </contour>
  </outline>
</glyph>
<glyph name="b.sc" format="2">
  <advance width="586.0"/>
  <note>
B
</note>
  <anchor x="254.0" y="0.0" name="bottom"/>
  <anchor x="336.0" y="640.0" name="top"/>
  <outline>
    <contour>
      <point x="213.0" y="-6.0" type="curve" smooth="yes"/>
      <point x="392.0" y="-6.0"/>
      <point x="526.0" y="51.0"/>
      <point x="526.0" y="195.0" type="curve" smooth="yes"/>
      <point x="526.0" y="274.0"/>
      <point x="466.0" y="326.0"/>
      <point x="379.0" y="337.0" type="curve"/>
      <point x="470.0" y="362.0"/>
      <point x="525.0" y="421.0"/>
      <point x="525.0" y="507.0" type="curve" smooth="yes"/>
      <point x="525.0" y="598.0"/>
      <point x="459.0" y="653.0"/>
      <point x="313.0" y="653.0" type="curve" smooth="yes"/>
      <point x="289.0" y="653.0"/>
      <point x="187.0" y="646.0"/>
      <point x="169.0" y="646.0" type="curve" smooth="yes"/>
      <point x="135.0" y="646.0" type="line"/>
      <point x="54.0" y="0.0" type="line"/>
      <point x="89.0" y="0.0" type="line" smooth="yes"/>
      <point x="125.0" y="0.0"/>
      <point x="181.0" y="-6.0"/>
    </contour>
    <contour>
      <point x="229.0" y="48.0" type="curve" smooth="yes"/>
      <point x="208.0" y="48.0"/>
      <point x="153.0" y="51.0"/>
      <point x="135.0" y="56.0" type="curve"/>
      <point x="168.0" y="304.0" type="line"/>
      <point x="197.0" y="305.0"/>
      <point x="235.0" y="306.0"/>
      <point x="286.0" y="306.0" type="curve" smooth="yes"/>
      <point x="385.0" y="306.0"/>
      <point x="447.0" y="268.0"/>
      <point x="447.0" y="190.0" type="curve" smooth="yes"/>
      <point x="447.0" y="90.0"/>
      <point x="364.0" y="48.0"/>
    </contour>
    <contour>
      <point x="174.0" y="360.0" type="curve"/>
      <point x="204.0" y="596.0" type="line"/>
      <point x="232.0" y="599.0"/>
      <point x="281.0" y="601.0"/>
      <point x="296.0" y="601.0" type="curve" smooth="yes"/>
      <point x="405.0" y="601.0"/>
      <point x="450.0" y="568.0"/>
      <point x="450.0" y="500.0" type="curve" smooth="yes"/>
      <point x="450.0" y="412.0"/>
      <point x="378.0" y="359.0"/>
      <point x="278.0" y="359.0" type="curve" smooth="yes"/>
      <point x="213.0" y="359.0"/>
      <point x="189.0" y="359.0"/>
    </contour>
  </outline>
</glyph>
<glyph name="braceright.case" format="2">
  <advance width="776.0"/>
  <note>
braceleft
</note>
  <outline>
    <contour>
      <point x="460.0" y="1660.0" type="curve" smooth="yes"/>
      <point x="362.0" y="1660.0"/>
      <point x="298.0" y="1648.0"/>
      <point x="192.0" y="1624.0" type="curve"/>
      <point x="184.0" y="1558.0" type="line"/>
      <point x="452.0" y="1558.0" type="line"/>
      <point x="368.0" y="890.0" type="line" smooth="yes"/>
      <point x="354.0" y="786.0"/>
      <point x="474.0" y="760.0"/>
      <point x="580.0" y="712.0" type="curve"/>
      <point x="502.0" y="690.0"/>
      <point x="332.0" y="640.0"/>
      <point x="320.0" y="548.0" type="curve" smooth="yes"/>
      <point x="240.0" y="-66.0" type="line"/>
      <point x="-40.0" y="-66.0" type="line"/>
      <point x="-50.0" y="-130.0" type="line"/>
      <point x="-14.0" y="-142.0"/>
      <point x="160.0" y="-166.0"/>
      <point x="218.0" y="-166.0" type="curve" smooth="yes"/>
      <point x="340.0" y="-166.0"/>
      <point x="366.0" y="-120.0"/>
      <point x="386.0" y="20.0" type="curve" smooth="yes"/>
      <point x="456.0" y="524.0" type="line" smooth="yes"/>
      <point x="466.0" y="592.0"/>
      <point x="596.0" y="630.0"/>
      <point x="728.0" y="664.0" type="curve"/>
      <point x="742.0" y="760.0" type="line"/>
      <point x="652.0" y="784.0"/>
      <point x="498.0" y="838.0"/>
      <point x="506.0" y="904.0" type="curve" smooth="yes"/>
      <point x="586.0" y="1550.0" type="line" smooth="yes"/>
      <point x="596.0" y="1634.0"/>
      <point x="550.0" y="1660.0"/>
    </contour>
  </outline>
</glyph>
<glyph name="bracketright.case" format="2">
  <advance width="698.0"/>
  <note>
bracketright
</note>
  <outline>
    <contour>
      <point x="536.0" y="1676.0" type="curve" smooth="yes"/>
      <point x="448.0" y="1676.0"/>
      <point x="336.0" y="1662.0"/>
      <point x="246.0" y="1640.0" type="curve"/>
      <point x="240.0" y="1576.0" type="line"/>
      <point x="528.0" y="1574.0" type="line"/>
      <point x="304.0" y="-62.0" type="line"/>
      <point x="18.0" y="-62.0" type="line"/>
      <point x="10.0" y="-126.0" type="line"/>
      <point x="92.0" y="-144.0"/>
      <point x="224.0" y="-162.0"/>
      <point x="282.0" y="-162.0" type="curve" smooth="yes"/>
      <point x="404.0" y="-162.0"/>
      <point x="436.0" y="-114.0"/>
      <point x="454.0" y="24.0" type="curve" smooth="yes"/>
      <point x="660.0" y="1488.0" type="line" smooth="yes"/>
      <point x="662.0" y="1518.0"/>
      <point x="666.0" y="1548.0"/>
      <point x="666.0" y="1572.0" type="curve" smooth="yes"/>
      <point x="666.0" y="1652.0"/>
      <point x="630.0" y="1676.0"/>
    </contour>
  </outline>
</glyph>
<glyph name="breve.case" format="2">
  <note>
breve.cap
</note>
  <anchor x="124.0" y="1494.0" name="_top"/>
  <anchor x="174.0" y="1878.0" name="top"/>
  <outline>
    <contour>
      <point x="162.0" y="1598.0" type="curve" smooth="yes"/>
      <point x="340.0" y="1598.0"/>
      <point x="488.0" y="1756.0"/>
      <point x="488.0" y="1934.0" type="curve"/>
      <point x="390.0" y="1934.0" type="line"/>
      <point x="380.0" y="1818.0"/>
      <point x="294.0" y="1708.0"/>
      <point x="166.0" y="1708.0" type="curve" smooth="yes"/>
      <point x="46.0" y="1708.0"/>
      <point x="-26.0" y="1802.0"/>
      <point x="-26.0" y="1904.0" type="curve" smooth="yes"/>
      <point x="-26.0" y="1914.0"/>
      <point x="-28.0" y="1924.0"/>
      <point x="-28.0" y="1934.0" type="curve"/>
      <point x="-128.0" y="1934.0" type="line"/>
      <point x="-130.0" y="1930.0"/>
      <point x="-130.0" y="1898.0"/>
      <point x="-130.0" y="1888.0" type="curve" smooth="yes"/>
      <point x="-130.0" y="1716.0"/>
      <point x="-22.0" y="1598.0"/>
    </contour>
  </outline>
</glyph>
<glyph name="brevecomb_gravecomb" format="2">
  <anchor x="74.0" y="1114.0" name="_top"/>
  <anchor x="134.0" y="1576.0" name="top"/>
  <outline>
    <contour>
      <point x="92.0" y="1282.0" type="curve" smooth="yes"/>
      <point x="302.0" y="1282.0"/>
      <point x="416.0" y="1442.0"/>
      <point x="416.0" y="1618.0" type="curve"/>
      <point x="318.0" y="1618.0" type="line"/>
      <point x="302.0" y="1512.0"/>
      <point x="272.0" y="1386.0"/>
      <point x="94.0" y="1386.0" type="curve" smooth="yes"/>
      <point x="-42.0" y="1386.0"/>
      <point x="-82.0" y="1496.0"/>
      <point x="-82.0" y="1618.0" type="curve"/>
      <point x="-182.0" y="1618.0" type="line"/>
      <point x="-208.0" y="1448.0"/>
      <point x="-96.0" y="1282.0"/>
    </contour>
    <contour>
      <point x="150.0" y="1682.0" type="curve"/>
      <point x="214.0" y="1744.0" type="line"/>
      <point x="-30.0" y="2038.0" type="line"/>
      <point x="-124.0" y="1958.0" type="line"/>
      <point x="-88.0" y="1868.0"/>
      <point x="66.0" y="1750.0"/>
    </contour>
  </outline>
</glyph>
<glyph name="brevecomb_hookabovecomb.case" format="2">
  <anchor x="124.0" y="1494.0" name="_top"/>
  <anchor x="186.0" y="1952.0" name="top"/>
  <outline>
    <contour>
      <point x="108.0" y="1956.0" type="curve"/>
      <point x="198.0" y="1956.0" type="line"/>
      <point x="186.0" y="2002.0"/>
      <point x="208.0" y="2042.0"/>
      <point x="224.0" y="2054.0" type="curve" smooth="yes"/>
      <point x="282.0" y="2098.0"/>
      <point x="358.0" y="2126.0"/>
      <point x="368.0" y="2230.0" type="curve" smooth="yes"/>
      <point x="378.0" y="2336.0"/>
      <point x="306.0" y="2402.0"/>
      <point x="184.0" y="2402.0" type="curve" smooth="yes"/>
      <point x="138.0" y="2402.0"/>
      <point x="86.0" y="2388.0"/>
      <point x="52.0" y="2374.0" type="curve"/>
      <point x="46.0" y="2272.0" type="line"/>
      <point x="68.0" y="2284.0"/>
      <point x="100.0" y="2290.0"/>
      <point x="128.0" y="2290.0" type="curve" smooth="yes"/>
      <point x="204.0" y="2290.0"/>
      <point x="236.0" y="2260.0"/>
      <point x="230.0" y="2204.0" type="curve"/>
      <point x="222.0" y="2138.0"/>
      <point x="106.0" y="2126.0"/>
      <point x="94.0" y="2036.0" type="curve"/>
      <point x="90.0" y="2002.0"/>
      <point x="102.0" y="1982.0"/>
    </contour>
    <contour>
      <point x="138.0" y="1590.0" type="curve" smooth="yes"/>
      <point x="348.0" y="1590.0"/>
      <point x="462.0" y="1750.0"/>
      <point x="462.0" y="1926.0" type="curve"/>
      <point x="364.0" y="1926.0" type="line"/>
      <point x="348.0" y="1820.0"/>
      <point x="318.0" y="1694.0"/>
      <point x="140.0" y="1694.0" type="curve" smooth="yes"/>
      <point x="4.0" y="1694.0"/>
      <point x="-36.0" y="1804.0"/>
      <point x="-36.0" y="1926.0" type="curve"/>
      <point x="-136.0" y="1926.0" type="line"/>
      <point x="-162.0" y="1756.0"/>
      <point x="-50.0" y="1590.0"/>
    </contour>
  </outline>
</glyph>
<glyph name="brevecomb_tildecomb" format="2">
  <anchor x="74.0" y="1114.0" name="_top"/>
  <anchor x="134.0" y="1576.0" name="top"/>
  <outline>
    <contour>
      <point x="92.0" y="1282.0" type="curve" smooth="yes"/>
      <point x="302.0" y="1282.0"/>
      <point x="416.0" y="1430.0"/>
      <point x="416.0" y="1618.0" type="curve"/>
      <point x="318.0" y="1618.0" type="line"/>
      <point x="302.0" y="1512.0"/>
      <point x="272.0" y="1386.0"/>
      <point x="94.0" y="1386.0" type="curve" smooth="yes"/>
      <point x="-42.0" y="1386.0"/>
      <point x="-82.0" y="1496.0"/>
      <point x="-82.0" y="1618.0" type="curve"/>
      <point x="-182.0" y="1618.0" type="line"/>
      <point x="-208.0" y="1448.0"/>
      <point x="-82.0" y="1282.0"/>
    </contour>
    <contour>
      <point x="272.0" y="1778.0" type="curve" smooth="yes"/>
      <point x="358.0" y="1778.0"/>
      <point x="446.0" y="1854.0"/>
      <point x="468.0" y="1946.0" type="curve"/>
      <point x="414.0" y="2014.0" type="line"/>
      <point x="394.0" y="1980.0"/>
      <point x="352.0" y="1900.0"/>
      <point x="288.0" y="1900.0" type="curve" smooth="yes"/>
      <point x="252.0" y="1900.0"/>
      <point x="238.0" y="1924.0"/>
      <point x="194.0" y="1960.0" type="curve" smooth="yes"/>
      <point x="144.0" y="2002.0"/>
      <point x="96.0" y="2030.0"/>
      <point x="36.0" y="2030.0" type="curve" smooth="yes"/>
      <point x="-50.0" y="2030.0"/>
      <point x="-130.0" y="1962.0"/>
      <point x="-166.0" y="1878.0" type="curve"/>
      <point x="-108.0" y="1814.0" type="line"/>
      <point x="-76.0" y="1874.0"/>
      <point x="-30.0" y="1910.0"/>
      <point x="20.0" y="1910.0" type="curve" smooth="yes"/>
      <point x="60.0" y="1910.0"/>
      <point x="80.0" y="1890.0"/>
      <point x="120.0" y="1858.0" type="curve" smooth="yes"/>
      <point x="168.0" y="1818.0"/>
      <point x="212.0" y="1778.0"/>
    </contour>
  </outline>
</glyph>
<glyph name="breveinvertedcomb.case" format="2">
  <note>
breve
</note>
  <anchor x="62.0" y="747.0" name="_top"/>
  <anchor x="93.0" y="976.0" name="top"/>
  <outline>
    <contour>
      <point x="89.0" y="985.0" type="curve" smooth="yes"/>
      <point x="4.0" y="985.0"/>
      <point x="-74.0" y="911.0"/>
      <point x="-74.0" y="817.0" type="curve"/>
      <point x="-25.0" y="817.0" type="line"/>
      <point x="-17.0" y="870.0"/>
      <point x="23.0" y="930.0"/>
      <point x="87.0" y="930.0" type="curve" smooth="yes"/>
      <point x="148.0" y="930.0"/>
      <point x="183.0" y="878.0"/>
      <point x="183.0" y="817.0" type="curve"/>
      <point x="233.0" y="817.0" type="line"/>
      <point x="246.0" y="902.0"/>
      <point x="176.0" y="985.0"/>
    </contour>
  </outline>
</glyph>
<glyph name="c.sc" format="2">
  <advance width="1078.0"/>
  <note>
C
</note>
  <anchor x="586.0" y="0.0" name="bottom"/>
  <anchor x="704.0" y="1280.0" name="top"/>
  <outline>
    <contour>
      <point x="582.0" y="-14.0" type="curve" smooth="yes"/>
      <point x="756.0" y="-14.0"/>
      <point x="882.0" y="24.0"/>
      <point x="972.0" y="72.0" type="curve"/>
      <point x="948.0" y="198.0" type="line"/>
      <point x="884.0" y="158.0"/>
      <point x="736.0" y="106.0"/>
      <point x="608.0" y="106.0" type="curve" smooth="yes"/>
      <point x="360.0" y="106.0"/>
      <point x="248.0" y="318.0"/>
      <point x="248.0" y="576.0" type="curve" smooth="yes"/>
      <point x="248.0" y="762.0"/>
      <point x="318.0" y="968.0"/>
      <point x="462.0" y="1088.0" type="curve" smooth="yes"/>
      <point x="544.0" y="1156.0"/>
      <point x="630.0" y="1188.0"/>
      <point x="750.0" y="1188.0" type="curve" smooth="yes"/>
      <point x="866.0" y="1188.0"/>
      <point x="936.0" y="1168.0"/>
      <point x="1006.0" y="1134.0" type="curve"/>
      <point x="1058.0" y="1256.0" type="line"/>
      <point x="906.0" y="1300.0"/>
      <point x="846.0" y="1314.0"/>
      <point x="754.0" y="1314.0" type="curve" smooth="yes"/>
      <point x="510.0" y="1314.0"/>
      <point x="294.0" y="1182.0"/>
      <point x="180.0" y="952.0" type="curve" smooth="yes"/>
      <point x="120.0" y="832.0"/>
      <point x="96.0" y="702.0"/>
      <point x="96.0" y="568.0" type="curve" smooth="yes"/>
      <point x="96.0" y="236.0"/>
      <point x="254.0" y="-14.0"/>
    </contour>
  </outline>
</glyph>
<glyph name="caroncomb.case" format="2">
  <note>
caron
</note>
  <anchor x="124.0" y="1494.0" name="_top"/>
  <anchor x="186.0" y="1952.0" name="top"/>
  <outline>
    <contour>
      <point x="80.0" y="1634.0" type="line"/>
      <point x="212.0" y="1634.0" type="line"/>
      <point x="540.0" y="1956.0" type="line"/>
      <point x="478.0" y="2020.0" type="line"/>
      <point x="152.0" y="1748.0" type="line"/>
      <point x="-90.0" y="2020.0" type="line"/>
      <point x="-156.0" y="1956.0" type="line"/>
    </contour>
  </outline>
</glyph>
<glyph name="circumflexcomb_gravecomb" format="2">
  <anchor x="37.0" y="557.0" name="_top"/>
  <anchor x="67.0" y="788.0" name="top"/>
  <outline>
    <contour>
      <point x="305.0" y="775.0" type="curve"/>
      <point x="337.0" y="806.0" type="line"/>
      <point x="215.0" y="953.0" type="line"/>
      <point x="168.0" y="913.0" type="line"/>
      <point x="186.0" y="868.0"/>
      <point x="263.0" y="809.0"/>
    </contour>
    <contour>
      <point x="-80.0" y="634.0" type="line"/>
      <point x="73.0" y="770.0" type="line"/>
      <point x="173.0" y="636.0" type="line"/>
      <point x="215.0" y="662.0" type="line"/>
      <point x="116.0" y="836.0" type="line"/>
      <point x="49.0" y="836.0" type="line"/>
      <point x="-117.0" y="662.0" type="line"/>
    </contour>
  </outline>
</glyph>
<glyph name="circumflexcomb_hookabovecomb.case" format="2">
  <anchor x="124.0" y="1494.0" name="_top"/>
  <anchor x="186.0" y="1952.0" name="top"/>
  <outline>
    <contour>
      <point x="498.0" y="1936.0" type="curve"/>
      <point x="588.0" y="1936.0" type="line"/>
      <point x="576.0" y="1982.0"/>
      <point x="598.0" y="2022.0"/>
      <point x="614.0" y="2034.0" type="curve" smooth="yes"/>
      <point x="672.0" y="2078.0"/>
      <point x="748.0" y="2106.0"/>
      <point x="758.0" y="2210.0" type="curve" smooth="yes"/>
      <point x="768.0" y="2316.0"/>
      <point x="696.0" y="2382.0"/>
      <point x="574.0" y="2382.0" type="curve" smooth="yes"/>
      <point x="528.0" y="2382.0"/>
      <point x="476.0" y="2368.0"/>
      <point x="442.0" y="2354.0" type="curve"/>
      <point x="436.0" y="2252.0" type="line"/>
      <point x="458.0" y="2264.0"/>
      <point x="490.0" y="2270.0"/>
      <point x="518.0" y="2270.0" type="curve" smooth="yes"/>
      <point x="594.0" y="2270.0"/>
      <point x="626.0" y="2240.0"/>
      <point x="620.0" y="2184.0" type="curve"/>
      <point x="612.0" y="2118.0"/>
      <point x="496.0" y="2106.0"/>
      <point x="484.0" y="2016.0" type="curve"/>
      <point x="480.0" y="1982.0"/>
      <point x="492.0" y="1962.0"/>
    </contour>
    <contour>
      <point x="-122.0" y="1606.0" type="line"/>
      <point x="184.0" y="1878.0" type="line"/>
      <point x="384.0" y="1610.0" type="line"/>
      <point x="468.0" y="1662.0" type="line"/>
      <point x="270.0" y="2010.0" type="line"/>
      <point x="136.0" y="2010.0" type="line"/>
      <point x="-196.0" y="1662.0" type="line"/>
    </contour>
  </outline>
</glyph>
<glyph name="circumflexcomb_tildecomb.case" format="2">
  <anchor x="124.0" y="1494.0" name="_top"/>
  <anchor x="174.0" y="1878.0" name="top"/>
  <outline>
    <contour>
      <point x="-122.0" y="1606.0" type="line"/>
      <point x="184.0" y="1878.0" type="line"/>
      <point x="384.0" y="1610.0" type="line"/>
      <point x="468.0" y="1662.0" type="line"/>
      <point x="270.0" y="2010.0" type="line"/>
      <point x="136.0" y="2010.0" type="line"/>
      <point x="-196.0" y="1662.0" type="line"/>
    </contour>
    <contour>
      <point x="362.0" y="2102.0" type="curve" smooth="yes"/>
      <point x="448.0" y="2102.0"/>
      <point x="536.0" y="2178.0"/>
      <point x="558.0" y="2270.0" type="curve"/>
      <point x="504.0" y="2338.0" type="line"/>
      <point x="484.0" y="2304.0"/>
      <point x="442.0" y="2224.0"/>
      <point x="378.0" y="2224.0" type="curve" smooth="yes"/>
      <point x="342.0" y="2224.0"/>
      <point x="322.0" y="2244.0"/>
      <point x="284.0" y="2284.0" type="curve" smooth="yes"/>
      <point x="234.0" y="2336.0"/>
      <point x="186.0" y="2364.0"/>
      <point x="126.0" y="2364.0" type="curve" smooth="yes"/>
      <point x="40.0" y="2364.0"/>
      <point x="-40.0" y="2286.0"/>
      <point x="-76.0" y="2202.0" type="curve"/>
      <point x="-18.0" y="2138.0" type="line"/>
      <point x="16.0" y="2198.0"/>
      <point x="60.0" y="2244.0"/>
      <point x="110.0" y="2244.0" type="curve" smooth="yes"/>
      <point x="150.0" y="2244.0"/>
      <point x="170.0" y="2224.0"/>
      <point x="210.0" y="2182.0" type="curve" smooth="yes"/>
      <point x="252.0" y="2138.0"/>
      <point x="302.0" y="2102.0"/>
    </contour>
  </outline>
</glyph>
